<svg width="924" height="102" viewBox="0 0 924 102" fill="none" xmlns="http://www.w3.org/2000/svg">
<path d="M-2.45215 100L-2.74316 68.8613H-0.815186C3.79256 80.3322 9.26123 88.1654 15.5908 92.3608C21.9447 96.5563 28.2985 98.6541 34.6523 98.6541C40.3999 98.6541 45.335 97.005 49.4578 93.7068C53.6047 90.4086 55.6782 86.104 55.6782 80.793C55.6782 70.4134 50.3551 63.7564 39.7087 60.822L22.1387 56.0566C8.02441 52.1764 0.967285 42.1849 0.967285 26.082C0.967285 21.4985 2.05859 17.2667 4.24121 13.3865C6.42383 9.50627 9.46737 6.43848 13.3718 4.18311C17.3005 1.90348 21.6658 0.763672 26.4675 0.763672C30.372 0.763672 33.3428 1.00618 35.3799 1.49121C37.4412 1.95199 39.3328 2.65527 41.0547 3.60107C42.8008 4.54688 44.2316 5.21379 45.3472 5.60181C46.487 5.96558 48.3907 6.14746 51.0583 6.14746C52.1497 6.14746 53.2895 4.89852 54.4778 2.40063H56.8423L57.4607 25.9365H55.3508C48.7787 10.9492 39.2965 3.45557 26.9041 3.45557C21.0595 3.45557 16.4396 5.17741 13.0444 8.62109C9.6735 12.0648 7.98804 16.1996 7.98804 21.0256C7.98804 25.2696 9.00659 28.6527 11.0437 31.1748C13.0808 33.6969 15.2998 35.4915 17.7007 36.5586C20.1016 37.6014 22.9753 38.5836 26.322 39.5051L41.5276 43.543C47.7602 45.1921 52.5256 47.7384 55.8237 51.1821C59.1219 54.6258 61.256 58.1423 62.2261 61.7314C63.2204 65.3206 63.7175 68.8371 63.7175 72.2808C63.7175 77.131 62.6868 81.8236 60.6255 86.3586C58.5884 90.8694 55.4842 94.5435 51.313 97.3809C47.1418 100.218 42.1339 101.637 36.2893 101.637C28.2864 101.637 20.8897 100 14.0994 96.7261C10.5829 95.1255 8.35181 94.3252 7.40601 94.3252C5.68416 94.3252 4.26546 94.8345 3.1499 95.853C2.03434 96.8716 1.36743 98.2539 1.14917 100H-2.45215ZM110.383 49.3269V97.0171H120.824V100H82.2276V97.0171H93.6863V5.23804H82.2276V2.40063H120.824V5.23804H110.383V46.344H154.327V5.23804H143.923V2.40063H182.519V5.23804H171.024V97.0171H182.519V100H143.923V97.0171H154.327V49.3269H110.383ZM202.157 51.1458C202.157 41.324 204.436 32.5693 208.995 24.8816C213.579 17.1939 219.496 11.2524 226.747 7.05688C234.023 2.86141 241.468 0.763672 249.083 0.763672C256.771 0.763672 264.252 2.86141 271.527 7.05688C278.803 11.2524 284.72 17.1939 289.279 24.8816C293.863 32.5693 296.155 41.324 296.155 51.1458C296.155 61.0645 293.875 69.8678 289.316 77.5554C284.757 85.2431 278.827 91.1847 271.527 95.3801C264.228 99.5514 256.746 101.637 249.083 101.637C243.432 101.637 237.818 100.461 232.24 98.1084C226.663 95.7318 221.594 92.3245 217.035 87.8865C212.5 83.4242 208.886 78.0647 206.194 71.8079C203.503 65.551 202.157 58.6637 202.157 51.1458ZM249.083 3.60107C244.645 3.60107 240.316 4.86214 236.096 7.38428C231.901 9.90641 228.324 14.7082 225.365 21.7896C222.406 28.8709 220.927 38.6563 220.927 51.1458C220.927 63.0774 222.285 72.6082 225.001 79.738C227.717 86.8437 231.173 91.8031 235.369 94.6162C239.588 97.4051 244.16 98.7996 249.083 98.7996C253.569 98.7996 257.922 97.5506 262.142 95.0527C266.362 92.5306 269.951 87.7167 272.91 80.6111C275.893 73.5055 277.384 63.6837 277.384 51.1458C277.384 38.7048 275.893 28.9316 272.91 21.8259C269.927 14.7203 266.313 9.90641 262.069 7.38428C257.825 4.86214 253.497 3.60107 249.083 3.60107ZM311.718 2.40063H348.823V5.23804H337.8L363.301 73.6267L381.453 26.8459L373.559 5.23804H363.301V2.40063H402.77V5.23804H391.456L417.211 74.6816L436.6 26.2275C438.274 21.9836 439.11 18.9643 439.11 17.1697C439.11 13.92 438.213 11.1432 436.418 8.83936C434.624 6.51123 430.513 5.31079 424.087 5.23804V2.40063H457.917V5.23804C454.716 5.5048 452.097 6.48698 450.06 8.18457C448.023 9.85791 446.446 11.798 445.331 14.0049C444.239 16.2118 442.772 19.6433 440.929 24.2996L409.936 101.637L383.235 32.0479L355.698 101.637L319.612 5.23804H311.718V2.40063ZM500.327 97.0171H511.822V100H472.171V97.0171H483.63V5.23804H472.171V2.40063H512.549C520.286 2.40063 527.064 2.86141 532.884 3.78296C538.704 4.70451 543.567 6.76587 547.471 9.96704C551.4 13.1682 553.364 17.8972 553.364 24.1541C553.364 30.2411 551 35.5158 546.271 39.978C541.566 44.416 533.757 47.0837 522.844 47.981V48.5994C529.174 49.5694 534.109 50.9275 537.65 52.6736C541.19 54.3954 543.797 56.6144 545.471 59.3306C547.144 62.0225 548.296 65.1388 548.926 68.6794C549.557 72.1959 550.297 77.8222 551.145 85.5583C551.485 88.8323 551.958 91.4393 552.564 93.3794C553.195 95.3195 554.359 96.2896 556.056 96.2896C557.196 96.2896 558.578 95.7318 560.203 94.6162C561.852 93.4764 563.15 92.3366 564.096 91.1968L566.351 93.5977C563.902 96.9201 561.452 99.0906 559.003 100.109C556.553 101.128 553.74 101.637 550.563 101.637C546.489 101.637 543.288 101.031 540.96 99.8181C538.656 98.5813 536.886 96.3866 535.649 93.2339C534.436 90.0812 533.49 85.3886 532.811 79.156C532.084 72.0504 531.223 66.509 530.229 62.5317C529.234 58.5303 527.998 55.6444 526.518 53.874C525.063 52.1037 523.329 51.0124 521.316 50.6001C519.328 50.1636 516.357 49.9453 512.404 49.9453H500.327V97.0171ZM500.327 46.9624H510.767C515.253 46.9624 519.206 46.441 522.626 45.3982C526.045 44.3311 528.895 42.1 531.174 38.7048C533.454 35.3097 534.594 30.4109 534.594 24.0085C534.594 19.0855 533.684 15.2538 531.866 12.5134C530.047 9.77303 527.488 7.88143 524.19 6.83862C520.892 5.77157 516.709 5.23804 511.64 5.23804H500.327V46.9624ZM580.896 51.1458C580.896 41.324 583.176 32.5693 587.735 24.8816C592.318 17.1939 598.236 11.2524 605.487 7.05688C612.762 2.86141 620.207 0.763672 627.822 0.763672C635.51 0.763672 642.991 2.86141 650.267 7.05688C657.542 11.2524 663.459 17.1939 668.019 24.8816C672.602 32.5693 674.894 41.324 674.894 51.1458C674.894 61.0645 672.614 69.8678 668.055 77.5554C663.496 85.2431 657.566 91.1847 650.267 95.3801C642.967 99.5514 635.486 101.637 627.822 101.637C622.172 101.637 616.557 100.461 610.98 98.1084C605.402 95.7318 600.333 92.3245 595.774 87.8865C591.239 83.4242 587.626 78.0647 584.934 71.8079C582.242 65.551 580.896 58.6637 580.896 51.1458ZM627.822 3.60107C623.384 3.60107 619.055 4.86214 614.836 7.38428C610.64 9.90641 607.063 14.7082 604.104 21.7896C601.146 28.8709 599.666 38.6563 599.666 51.1458C599.666 63.0774 601.025 72.6082 603.741 79.738C606.457 86.8437 609.913 91.8031 614.108 94.6162C618.328 97.4051 622.899 98.7996 627.822 98.7996C632.309 98.7996 636.662 97.5506 640.882 95.0527C645.101 92.5306 648.69 87.7167 651.649 80.6111C654.632 73.5055 656.123 63.6837 656.123 51.1458C656.123 38.7048 654.632 28.9316 651.649 21.8259C648.666 14.7203 645.053 9.90641 640.809 7.38428C636.565 4.86214 632.236 3.60107 627.822 3.60107ZM695.841 51.1458C695.841 41.324 698.121 32.5693 702.68 24.8816C707.264 17.1939 713.181 11.2524 720.432 7.05688C727.708 2.86141 735.153 0.763672 742.768 0.763672C750.455 0.763672 757.937 2.86141 765.212 7.05688C772.488 11.2524 778.405 17.1939 782.964 24.8816C787.548 32.5693 789.839 41.324 789.839 51.1458C789.839 61.0645 787.56 69.8678 783 77.5554C778.441 85.2431 772.512 91.1847 765.212 95.3801C757.913 99.5514 750.431 101.637 742.768 101.637C737.117 101.637 731.503 100.461 725.925 98.1084C720.347 95.7318 715.279 92.3245 710.719 87.8865C706.184 83.4242 702.571 78.0647 699.879 71.8079C697.187 65.551 695.841 58.6637 695.841 51.1458ZM742.768 3.60107C738.33 3.60107 734.001 4.86214 729.781 7.38428C725.586 9.90641 722.008 14.7082 719.05 21.7896C716.091 28.8709 714.612 38.6563 714.612 51.1458C714.612 63.0774 715.97 72.6082 718.686 79.738C721.402 86.8437 724.858 91.8031 729.053 94.6162C733.273 97.4051 737.845 98.7996 742.768 98.7996C747.254 98.7996 751.607 97.5506 755.827 95.0527C760.047 92.5306 763.636 87.7167 766.594 80.6111C769.577 73.5055 771.069 63.6837 771.069 51.1458C771.069 38.7048 769.577 28.9316 766.594 21.8259C763.612 14.7203 759.998 9.90641 755.754 7.38428C751.51 4.86214 747.181 3.60107 742.768 3.60107ZM867.244 77.9556L895.108 2.40063H923.264V5.23804H911.805V97.0171H923.264V100H883.65V97.0171H895.108V11.3494L862.042 101.782H859.35L824.792 12.0769V84.6489C824.792 87.8501 825.447 90.5784 826.756 92.8337C828.066 95.0891 831.182 96.4836 836.105 97.0171V100H809.586V97.0171C814.436 97.0171 817.662 95.6226 819.262 92.8337C820.863 90.0448 821.663 87.2681 821.663 84.5034V13.7139C821.663 8.06331 818.632 5.23804 812.569 5.23804H809.877L810.023 2.40063H838.178L867.244 77.9556Z" fill="#F3F3F3"/>
</svg>
