<svg width="884" height="102" viewBox="0 0 884 102" fill="none" xmlns="http://www.w3.org/2000/svg">
<path d="M11.7156 97.0171V5.23804H0.256836V2.40063H39.9077V5.23804H28.4126V97.0171H39.9077V100H0.256836V97.0171H11.7156ZM135.646 70.9348V15.2053C135.646 11.3494 134.312 8.73022 131.645 7.3479C128.977 5.94132 126.043 5.23804 122.841 5.23804V2.40063H151.579V5.23804C147.675 5.26229 144.789 5.94132 142.921 7.27515C141.054 8.58472 139.89 10.1368 139.429 11.9314C138.993 13.726 138.774 16.0177 138.774 18.8066V101.637H137.72L74.3872 17.3152V83.594C74.3872 86.3586 75.3452 89.2931 77.261 92.3972C79.2011 95.4771 82.5721 97.0171 87.3738 97.0171V100H58.4541V97.0171C62.5284 97.0171 65.681 96.0349 67.9121 94.0706C70.1433 92.1062 71.2588 88.614 71.2588 83.594V13.1318C71.2588 10.3672 70.0826 8.39071 67.7303 7.20239C65.3779 5.98983 62.8315 5.33504 60.0911 5.23804V2.40063H83.7725L135.646 70.9348ZM170.344 100L170.053 68.8613H171.981C176.589 80.3322 182.057 88.1654 188.387 92.3608C194.741 96.5563 201.094 98.6541 207.448 98.6541C213.196 98.6541 218.131 97.005 222.254 93.7068C226.401 90.4086 228.474 86.104 228.474 80.793C228.474 70.4134 223.151 63.7564 212.505 60.822L194.935 56.0566C180.82 52.1764 173.763 42.1849 173.763 26.082C173.763 21.4985 174.855 17.2667 177.037 13.3865C179.22 9.50627 182.263 6.43848 186.168 4.18311C190.097 1.90348 194.462 0.763672 199.264 0.763672C203.168 0.763672 206.139 1.00618 208.176 1.49121C210.237 1.95199 212.129 2.65527 213.851 3.60107C215.597 4.54687 217.028 5.21379 218.143 5.60181C219.283 5.96558 221.187 6.14746 223.854 6.14746C224.946 6.14746 226.085 4.89852 227.274 2.40063H229.638L230.257 25.9365H228.147C221.575 10.9492 212.092 3.45557 199.7 3.45557C193.855 3.45557 189.236 5.17741 185.84 8.62109C182.469 12.0648 180.784 16.1996 180.784 21.0256C180.784 25.2696 181.803 28.6527 183.84 31.1748C185.877 33.6969 188.096 35.4915 190.497 36.5586C192.898 37.6014 195.771 38.5836 199.118 39.5051L214.324 43.543C220.556 45.1921 225.322 47.7384 228.62 51.1821C231.918 54.6258 234.052 58.1423 235.022 61.7314C236.016 65.3206 236.514 68.8371 236.514 72.2808C236.514 77.131 235.483 81.8236 233.421 86.3586C231.384 90.8694 228.28 94.5435 224.109 97.3809C219.938 100.218 214.93 101.637 209.085 101.637C201.082 101.637 193.686 100 186.895 96.7261C183.379 95.1255 181.148 94.3252 180.202 94.3252C178.48 94.3252 177.061 94.8345 175.946 95.853C174.83 96.8716 174.163 98.2539 173.945 100H170.344ZM287.654 97.0171V5.23804C280.524 5.23804 274.813 6.13534 270.52 7.92993C266.228 9.72453 262.954 12.6468 260.698 16.6968C258.443 20.7225 256.952 26.1912 256.224 33.1028H252.041L252.805 2.40063H339.2L339.964 33.1028H335.78C334.956 25.9244 333.428 20.3466 331.197 16.3694C328.99 12.3679 325.765 9.51839 321.521 7.8208C317.277 6.09896 311.553 5.23804 304.351 5.23804V97.0171H315.809V100H276.195V97.0171H287.654ZM413.367 97.0171L402.344 66.9333H373.134L367.786 80.1746C367.544 80.7808 367.168 81.6903 366.659 82.9028C366.174 84.0911 365.761 85.2795 365.422 86.4678C365.107 87.6318 364.949 88.8201 364.949 90.0327C364.949 92.3608 365.604 94.0584 366.913 95.1255C368.247 96.1683 370.769 96.7988 374.48 97.0171V100H349.161V97.0171C352.217 96.8231 354.8 95.6711 356.91 93.5613C359.044 91.4272 360.535 89.2082 361.384 86.9043L394.305 2.40063H396.997L430.973 97.0171H441.086V100H400.125V97.0171H413.367ZM401.326 63.9504L388.485 26.9915L373.898 63.9504H401.326ZM530.058 32.5208H526.784C526.178 25.1484 523.862 18.5399 519.836 12.6953C515.81 6.8265 508.947 3.89209 499.247 3.89209C492.335 3.89209 487 6.01408 483.241 10.2581C479.482 14.502 476.96 20.0071 475.674 26.7732C474.389 33.5393 473.747 41.5544 473.747 50.8184C473.747 58.603 474.268 65.9997 475.311 73.0083C476.354 79.9927 478.609 86.0676 482.077 91.2332C485.545 96.3744 490.565 98.9451 497.137 98.9451C504.218 98.9451 509.881 97.1505 514.125 93.5613C518.393 89.9478 520.527 83.109 520.527 73.0447V62.3135H510.123V59.4761H547.664V62.3135H537.224V68.0974C537.224 74.9605 535.26 80.9264 531.331 85.9949C527.427 91.0391 522.395 94.883 516.235 97.5264C510.099 100.17 503.83 101.491 497.428 101.491C488.891 101.491 481.398 99.0663 474.947 94.2161C468.496 89.3416 463.549 82.8907 460.105 74.8635C456.686 66.8121 454.976 58.2029 454.976 49.0359C454.976 41.6635 456.819 34.2183 460.505 26.7004C464.192 19.1825 469.369 12.9863 476.038 8.11182C482.707 3.21305 490.237 0.763672 498.628 0.763672C501.296 0.763672 503.43 0.969808 505.031 1.38208C506.656 1.7701 508.438 2.37638 510.378 3.20093C512.318 4.00122 513.882 4.57113 515.071 4.91064C516.259 5.22591 517.981 5.38354 520.236 5.38354C521.522 5.38354 522.649 5.10465 523.619 4.54687C524.589 3.9891 525.499 2.72803 526.348 0.763672H529.767L530.058 32.5208ZM592.22 97.0171H603.716V100H564.065V97.0171H575.523V5.23804H564.065V2.40063H604.443C612.179 2.40063 618.958 2.86141 624.778 3.78296C630.598 4.70451 635.461 6.76587 639.365 9.96704C643.294 13.1682 645.258 17.8972 645.258 24.1541C645.258 30.2411 642.894 35.5158 638.165 39.978C633.46 44.416 625.651 47.0837 614.738 47.981V48.5994C621.067 49.5694 626.003 50.9275 629.543 52.6736C633.084 54.3954 635.691 56.6144 637.364 59.3306C639.038 62.0225 640.19 65.1388 640.82 68.6794C641.451 72.1959 642.19 77.8222 643.039 85.5583C643.379 88.8323 643.851 91.4393 644.458 93.3794C645.088 95.3195 646.252 96.2896 647.95 96.2896C649.09 96.2896 650.472 95.7318 652.097 94.6162C653.746 93.4764 655.043 92.3366 655.989 91.1968L658.245 93.5977C655.795 96.9201 653.346 99.0906 650.896 100.109C648.447 101.128 645.634 101.637 642.457 101.637C638.383 101.637 635.182 101.031 632.854 99.8181C630.55 98.5813 628.779 96.3866 627.542 93.2339C626.33 90.0812 625.384 85.3886 624.705 79.156C623.978 72.0504 623.117 66.509 622.122 62.5317C621.128 58.5303 619.891 55.6444 618.412 53.874C616.957 52.1037 615.223 51.0124 613.21 50.6001C611.221 50.1636 608.251 49.9453 604.298 49.9453H592.22V97.0171ZM592.22 46.9624H602.661C607.147 46.9624 611.1 46.441 614.52 45.3982C617.939 44.3311 620.788 42.1 623.068 38.7048C625.348 35.3097 626.488 30.4109 626.488 24.0085C626.488 19.0855 625.578 15.2538 623.759 12.5134C621.94 9.77303 619.382 7.88143 616.084 6.83862C612.786 5.77157 608.602 5.23804 603.534 5.23804H592.22V46.9624ZM729.538 97.0171L718.515 66.9333H689.305L683.957 80.1746C683.715 80.7808 683.339 81.6903 682.83 82.9028C682.345 84.0911 681.932 85.2795 681.593 86.4678C681.278 87.6318 681.12 88.8201 681.12 90.0327C681.12 92.3608 681.775 94.0584 683.084 95.1255C684.418 96.1683 686.94 96.7988 690.651 97.0171V100H665.332V97.0171C668.388 96.8231 670.971 95.6711 673.081 93.5613C675.215 91.4272 676.706 89.2082 677.555 86.9043L710.476 2.40063L713.168 2.40063L747.144 97.0171H757.257V100H716.296V97.0171H729.538ZM717.497 63.9504L704.656 26.9915L690.069 63.9504H717.497ZM827.168 77.9556L855.032 2.40063L883.188 2.40063V5.23804H871.729V97.0171H883.188V100H843.574V97.0171H855.032V11.3494L821.966 101.782H819.274L784.716 12.0769V84.6489C784.716 87.8501 785.37 90.5784 786.68 92.8337C787.99 95.0891 791.106 96.4836 796.029 97.0171V100H769.51V97.0171C774.36 97.0171 777.586 95.6226 779.186 92.8337C780.787 90.0448 781.587 87.2681 781.587 84.5034V13.7139C781.587 8.06331 778.556 5.23804 772.493 5.23804H769.801L769.947 2.40063H798.102L827.168 77.9556Z" fill="#F3F3F3"/>
</svg>
