<svg width="21" height="21" viewBox="0 0 21 21" fill="none" xmlns="http://www.w3.org/2000/svg">
<path d="M17.8913 7.27273L17.8915 7.2826L17.8921 7.29246C17.94 8.1111 17.9403 8.37071 17.942 10.4832L17.9421 10.5123C17.9421 10.5124 17.9421 10.5125 17.9421 10.5126C17.9421 12.6468 17.9307 12.9064 17.8935 13.739L17.8934 13.739L17.8931 13.7498C17.881 14.3551 17.7672 14.951 17.5552 15.5161C17.3743 15.9815 17.0984 16.4043 16.7453 16.7574C16.3922 17.1105 15.9695 17.3863 15.504 17.5673C14.939 17.7791 14.342 17.8934 13.7387 17.9052L13.7302 17.9054L13.7217 17.9059C12.9012 17.954 12.6406 17.9541 10.5011 17.9541C8.36748 17.9541 8.1078 17.9428 7.27432 17.9056L7.27433 17.9056L7.26919 17.9054C6.66388 17.8855 6.06641 17.7624 5.50251 17.5415L5.50085 17.5409C5.0344 17.3604 4.61074 17.0845 4.25693 16.731C3.9037 16.378 3.62785 15.9554 3.44695 15.4899C3.23484 14.9238 3.12109 14.3279 3.10897 13.7235L3.1088 13.7151L3.10831 13.7067C3.0602 12.8853 3.06006 12.6255 3.06006 10.486C3.06006 8.35245 3.07141 8.09277 3.10862 7.25929L3.10877 7.2593L3.10898 7.24804C3.12038 6.64506 3.23467 6.04846 3.44691 5.48396C3.62749 5.01829 3.90317 4.59537 4.25635 4.24219C4.60948 3.88905 5.03234 3.61341 5.49793 3.43282C6.06292 3.221 6.65971 3.10641 7.26298 3.09393L7.27104 3.09376L7.27909 3.0933C8.09985 3.04603 8.36071 3.0459 10.5002 3.0459C12.6341 3.0459 12.8937 3.05638 13.726 3.09359L13.726 3.09371L13.7366 3.09393C14.3401 3.10632 14.9371 3.2209 15.5024 3.4328C15.9679 3.61352 16.3907 3.88923 16.7438 4.24236C17.0971 4.59557 17.3728 5.01847 17.5535 5.48413C17.7689 6.05625 17.8832 6.66145 17.8913 7.27273Z" stroke="white" stroke-width="0.875"/>
<circle cx="10.5" cy="10.5" r="3.0625" stroke="white" stroke-width="0.875"/>
</svg>
