<svg width="110" height="26" viewBox="0 0 110 26" fill="none" xmlns="http://www.w3.org/2000/svg">
<path fill-rule="evenodd" clip-rule="evenodd" d="M37.5342 0.795768C37.4289 0.903648 37.2827 1.10614 37.2093 1.24582C37.1359 1.38544 37.0535 1.52973 37.0262 1.5664C36.8105 1.8563 35.9083 3.28342 35.9083 3.33482C35.9083 3.37063 35.8819 3.39997 35.8496 3.39997C35.8174 3.39997 35.7537 3.48998 35.7081 3.59999C35.6626 3.71 35.6023 3.80002 35.5744 3.80002C35.5464 3.80002 35.5068 3.85256 35.4864 3.9167C35.4659 3.98084 35.3456 4.21707 35.2192 4.44163C35.0927 4.66619 35.0084 4.87622 35.0318 4.90836C35.0552 4.94049 36.1702 4.97423 37.5096 4.98323C38.8489 4.9923 39.9824 5.01384 40.0282 5.03117C40.0938 5.05591 40.1116 6.03557 40.1116 9.62096C40.1116 12.1281 40.1315 16.7046 40.156 19.7911L40.2003 25.4028H42.5579H44.9154V13.0012V0.599609H41.3205H37.7255L37.5342 0.795768ZM60.1407 1.0836C60.0789 1.15801 60.063 1.68528 60.0763 3.22508L60.094 5.26774L70.619 5.26754C76.4077 5.2674 81.234 5.2672 81.3441 5.26707L81.5442 5.26687V3.20707C81.5442 1.44105 81.53 1.14181 81.4446 1.10907C81.3897 1.088 77.9895 1.06934 73.8886 1.06754C69.7876 1.0658 65.0352 1.0464 63.3276 1.0246C60.6332 0.990058 60.2119 0.99786 60.1407 1.0836ZM11.5724 1.21635C11.5358 1.26223 11.2255 1.85477 10.8828 2.53319C10.5402 3.21161 10.2361 3.77668 10.2072 3.78888C10.1783 3.80115 10.1547 3.85229 10.1547 3.90263C10.1547 3.95297 10.0646 4.14686 9.95451 4.33342C9.84442 4.51997 9.75435 4.71387 9.75435 4.7642C9.75435 4.81454 9.73187 4.86568 9.70431 4.87795C9.63426 4.90902 9.52577 5.12198 6.51833 11.1343C3.88766 16.3934 3.09757 17.9908 2.1653 19.9354C1.91037 20.4671 1.56523 21.1872 1.3983 21.5356C1.00719 22.3517 0.568246 23.2882 0.398379 23.6692C-0.00807473 24.5806 -0.0128119 24.5939 0.00546919 24.786C0.0168115 24.9061 11.0054 24.904 11.1597 24.7839C11.217 24.7392 11.3221 24.5977 11.3932 24.4693C11.4642 24.341 11.5396 24.2209 11.5606 24.2026C11.6041 24.1647 12.7206 21.9007 12.9819 21.3204C13.0766 21.1103 13.1393 20.9003 13.1214 20.8537C13.0956 20.7865 12.3468 20.7688 9.52564 20.7688C7.56589 20.7688 5.94281 20.7492 5.91886 20.7253C5.89491 20.7013 5.93741 20.5531 6.0134 20.3961C6.08933 20.2389 6.15151 20.0842 6.15151 20.0523C6.15151 20.0203 6.59926 19.0884 7.14649 17.9812C7.69379 16.8741 8.22341 15.7882 8.32355 15.5682C8.42363 15.3482 8.66643 14.8367 8.86305 14.4316C9.05974 14.0264 9.2206 13.6589 9.2206 13.6148C9.2206 13.5707 9.25062 13.5346 9.28732 13.5346C9.32401 13.5346 9.35403 13.4952 9.35403 13.4471C9.35403 13.3653 9.54518 12.9131 9.6901 12.6521C9.72546 12.5884 9.75435 12.4909 9.75435 12.4354C9.75435 12.3798 9.77704 12.3344 9.80479 12.3344C9.83255 12.3344 9.8958 12.237 9.94537 12.1177C10.0642 11.832 10.3747 11.1621 10.696 10.4985C10.8386 10.2039 10.9553 9.92633 10.9553 9.88179C10.9553 9.83725 10.9853 9.80078 11.022 9.80078C11.0587 9.80078 11.0887 9.74077 11.0887 9.66743C11.0887 9.59409 11.1188 9.53408 11.1555 9.53408C11.1922 9.53408 11.2222 9.49167 11.2222 9.4398C11.2222 9.38799 11.309 9.17043 11.4151 8.95641C12.5502 6.66738 13.1094 5.56197 13.1463 5.5339C13.1706 5.51537 13.2332 5.41769 13.2852 5.31688C13.396 5.10198 13.5551 5.07704 13.6047 5.26687C13.6239 5.34021 13.6594 5.40022 13.6836 5.40022C13.7078 5.40022 13.8619 5.66279 14.0261 5.98363C14.1902 6.30454 14.3471 6.57704 14.3747 6.58924C14.4022 6.60151 14.4247 6.66898 14.4247 6.73926C14.4247 6.80953 14.4547 6.86707 14.4914 6.86707C14.5281 6.86707 14.5581 6.92708 14.5581 7.00042C14.5581 7.07377 14.5882 7.13377 14.6249 7.13377C14.6616 7.13377 14.6916 7.17158 14.6916 7.21785C14.6916 7.26406 14.8222 7.57156 14.9819 7.90127C15.1416 8.23091 15.3181 8.60563 15.3743 8.73398C15.6324 9.32392 15.7273 9.53161 15.9359 9.9618C16.0589 10.2154 16.1594 10.4629 16.1594 10.5119C16.1594 10.5608 16.1894 10.6009 16.2261 10.6009C16.2628 10.6009 16.2928 10.6609 16.2928 10.7342C16.2928 10.8076 16.3229 10.8676 16.3596 10.8676C16.3962 10.8676 16.4263 10.9041 16.4263 10.9486C16.4263 11.0257 16.5617 11.3163 17.303 12.8294C17.4814 13.1933 17.6272 13.5309 17.6272 13.5795C17.6272 13.6281 17.6572 13.6679 17.6939 13.6679C17.7306 13.6679 17.7607 13.7061 17.7607 13.7528C17.7607 13.7995 17.9433 14.2121 18.1666 14.6696C18.7674 15.9006 19.0723 16.542 19.172 16.785C19.221 16.9042 19.2837 17.0017 19.3115 17.0017C19.3392 17.0017 19.3619 17.0382 19.3619 17.0827C19.3619 17.1272 19.4793 17.4048 19.6228 17.6995C19.7663 17.9941 20.0365 18.5496 20.2233 18.934C20.4101 19.3183 20.5629 19.6709 20.5629 19.7174C20.5629 19.764 20.5929 19.8021 20.6296 19.8021C20.6663 19.8021 20.6963 19.841 20.6963 19.8886C20.6963 19.9361 20.8863 20.3637 21.1185 20.8387C21.5367 21.694 21.7486 22.1416 22.0561 22.8191C22.7286 24.3007 23.0084 24.736 23.2878 24.736C23.3627 24.736 23.4425 24.766 23.4652 24.8027C23.5202 24.8917 25.1167 24.8885 26.355 24.7968C26.8939 24.7569 27.3441 24.7152 27.3554 24.7041C27.3666 24.6931 27.3106 24.5382 27.2308 24.36C27.1511 24.1817 27.0403 23.9309 26.9847 23.8026C26.929 23.6742 26.7523 23.2978 26.5921 22.9661C26.4318 22.6343 26.3007 22.3268 26.3007 22.2826C26.3007 22.2385 26.2707 22.2024 26.234 22.2024C26.1973 22.2024 26.1673 22.1602 26.1673 22.1087C26.1673 21.9976 25.8891 21.4454 25.817 21.4134C25.7895 21.4011 25.767 21.3474 25.767 21.294C25.767 21.2406 25.0717 19.8104 24.2219 18.1158C23.3721 16.4212 22.644 14.9675 22.6039 14.8853C22.5639 14.8031 22.5086 14.7355 22.481 14.7353C22.4535 14.735 22.431 14.6863 22.431 14.6271C22.431 14.5082 22.1599 13.9809 22.0807 13.9458C22.0532 13.9335 22.0307 13.866 22.0307 13.7958C22.0307 13.7255 22.0007 13.6679 21.964 13.6679C21.9273 13.6679 21.8973 13.6225 21.8973 13.567C21.8973 13.4744 21.7768 13.2141 21.6971 13.1345C21.6226 13.0601 21.3635 12.5158 21.3635 12.4337C21.3635 12.3852 21.339 12.3356 21.3091 12.3233C21.2792 12.3111 20.9512 11.701 20.5802 10.9676C19.5362 8.90353 19.4654 8.76885 19.412 8.74511C19.3844 8.73284 19.3619 8.66784 19.3619 8.60063C19.3619 8.53342 19.3384 8.46841 19.3096 8.45614C19.2408 8.42694 16.9596 3.85816 16.9598 3.75001C16.96 3.7042 16.93 3.66667 16.8933 3.66667C16.8566 3.66667 16.8266 3.60666 16.8266 3.53332C16.8266 3.45997 16.7966 3.39997 16.7599 3.39997C16.7232 3.39997 16.6932 3.33996 16.6932 3.26661C16.6932 3.19327 16.6631 3.13327 16.6264 3.13327C16.5897 3.13327 16.5597 3.07326 16.5597 2.99991C16.5597 2.92657 16.5297 2.86656 16.493 2.86656C16.4563 2.86656 16.4263 2.80656 16.4263 2.73321C16.4263 2.65987 16.3962 2.59986 16.3596 2.59986C16.3229 2.59986 16.2928 2.53986 16.2928 2.46651C16.2928 2.39317 16.2628 2.33316 16.2261 2.33316C16.1894 2.33316 16.1594 2.27316 16.1594 2.19981C16.1594 2.12647 16.1294 2.06646 16.0927 2.06646C16.056 2.06646 16.026 2.00645 16.026 1.93311C16.026 1.85977 15.9959 1.79976 15.9592 1.79976C15.9225 1.79976 15.8925 1.73975 15.8925 1.66641C15.8925 1.59307 15.8625 1.53306 15.8258 1.53306C15.7891 1.53306 15.7591 1.49272 15.7591 1.44338C15.7591 1.39404 15.7042 1.30403 15.6371 1.24336C15.5294 1.14601 15.2868 1.13301 13.577 1.13301C12.1064 1.13301 11.6228 1.15315 11.5724 1.21635ZM94.253 1.28303C94.229 1.36557 94.1033 1.65808 93.9736 1.93311C93.8439 2.20815 93.634 2.65821 93.5071 2.93324C93.3802 3.20828 93.2487 3.48584 93.2149 3.54999C93.1437 3.68494 93.0442 3.88303 92.9636 4.05005C92.9327 4.11419 92.8746 4.22674 92.8346 4.30008C92.7946 4.37342 92.7225 4.53091 92.6744 4.65012C92.6264 4.76934 92.5644 4.86682 92.5366 4.86682C92.5089 4.86682 92.4862 4.90622 92.4862 4.95443C92.4862 5.02477 91.8309 6.36934 91.5054 6.96709C91.4654 7.04043 91.3326 7.31046 91.2102 7.56716C91.0878 7.82386 90.9717 8.04889 90.9521 8.06722C90.9325 8.08556 90.846 8.25058 90.76 8.43394C90.6739 8.6173 90.5711 8.82732 90.5315 8.90067C90.4167 9.11343 89.4552 11.0045 88.3789 13.1345C87.8323 14.2163 87.3618 15.1115 87.3335 15.1237C87.3052 15.1359 87.2821 15.1888 87.2821 15.2413C87.2821 15.3331 87.1549 15.5993 87.0781 15.6682C87.0577 15.6865 86.9994 15.8065 86.9485 15.9349C86.8976 16.0632 86.8382 16.1833 86.8163 16.2016C86.7467 16.2601 85.2791 19.232 85.2798 19.3131C85.2802 19.3559 85.258 19.4009 85.2303 19.4131C85.2028 19.4253 85.0175 19.7504 84.8187 20.1354C84.6199 20.5205 84.397 20.9405 84.3232 21.0689C84.0195 21.5978 83.4124 22.8254 83.4124 22.9106C83.4124 22.9612 83.3824 23.0025 83.3457 23.0025C83.309 23.0025 83.2789 23.0407 83.2789 23.0875C83.2789 23.1343 83.1898 23.3518 83.0808 23.5709C82.972 23.79 82.8819 24.0011 82.8807 24.0401C82.8796 24.079 82.8165 24.2394 82.7405 24.3966C82.6645 24.5537 82.612 24.6909 82.6238 24.7015C82.6355 24.7121 83.6274 24.7427 84.828 24.7694L87.011 24.818L87.3551 24.0936C87.5445 23.6951 87.8127 23.1291 87.9512 22.8358C88.0898 22.5424 88.3262 22.0475 88.4765 21.7359C88.6269 21.4244 88.7499 21.1318 88.7499 21.0858C88.7499 21.0398 88.7799 21.0022 88.8166 21.0022C88.8533 21.0022 88.8834 20.9422 88.8834 20.8689C88.8834 20.7955 88.9134 20.7355 88.9501 20.7355C88.9868 20.7355 89.0168 20.6755 89.0168 20.6022C89.0168 20.5288 89.0468 20.4688 89.0835 20.4688C89.1202 20.4688 89.1502 20.4297 89.1502 20.3819C89.1502 20.3341 89.2224 20.1466 89.3106 19.9651C89.477 19.6228 89.9772 18.5746 90.5098 17.4518C90.6794 17.0942 90.9533 16.5228 91.1185 16.1819C91.2836 15.841 91.4187 15.5259 91.4187 15.4818C91.4187 15.4376 91.4487 15.4015 91.4854 15.4015C91.5221 15.4015 91.5521 15.3415 91.5521 15.2681C91.5521 15.1948 91.5821 15.1348 91.6188 15.1348C91.6555 15.1348 91.6856 15.0944 91.6856 15.045C91.6856 14.9594 91.9131 14.4683 92.4907 13.307C92.635 13.0169 92.7531 12.7394 92.7531 12.6903C92.7531 12.6413 92.7831 12.6011 92.8198 12.6011C92.8565 12.6011 92.8865 12.559 92.8865 12.5075C92.8865 12.4559 92.9453 12.2984 93.0172 12.1574C93.4511 11.3057 93.8206 10.5109 93.8206 10.429C93.8206 10.3769 93.8433 10.3342 93.871 10.3342C93.8988 10.3342 93.9618 10.2367 94.0112 10.1175C94.0961 9.91259 94.1569 9.77731 94.5797 8.85066C95.0285 7.86733 95.1384 7.63704 95.6063 6.70039C96.1851 5.54177 96.4445 5.13319 96.6014 5.13372C96.6952 5.13399 97.8237 7.26252 97.8237 7.43935C97.8237 7.49129 97.8538 7.53382 97.8905 7.53382C97.9272 7.53382 97.9572 7.59383 97.9572 7.66718C97.9572 7.74052 97.9799 7.80052 98.0076 7.80052C98.0354 7.80052 98.0977 7.89801 98.1462 8.01722C98.2299 8.22285 98.3473 8.47488 98.8197 9.46254C98.9325 9.69823 99.0247 9.9308 99.0247 9.97927C99.0247 10.0278 99.0547 10.0675 99.0914 10.0675C99.1281 10.0675 99.1581 10.0997 99.1581 10.1391C99.1581 10.1784 99.3082 10.5271 99.4917 10.9139C99.6752 11.3006 99.8253 11.6585 99.8253 11.7091C99.8253 11.7596 99.8553 11.801 99.892 11.801C99.9287 11.801 99.9587 11.8411 99.9587 11.89C99.9587 11.939 100.059 12.1865 100.182 12.4401C100.305 12.6937 100.459 13.0212 100.524 13.1679C100.736 13.6471 100.943 14.0889 101.321 14.8662C101.526 15.2868 101.693 15.6694 101.693 15.7163C101.693 15.7632 101.723 15.8015 101.76 15.8015C101.797 15.8015 101.827 15.8456 101.827 15.8996C101.827 15.9534 101.884 16.0993 101.954 16.2238C102.024 16.3482 102.114 16.5142 102.154 16.5925C102.194 16.6709 102.263 16.8025 102.308 16.885C102.729 17.6694 103.562 19.3655 103.562 19.4404C103.562 19.4926 103.592 19.5354 103.628 19.5354C103.665 19.5354 103.695 19.5747 103.695 19.6228C103.695 19.671 103.755 19.8345 103.828 19.9863C103.902 20.1382 103.962 20.307 103.962 20.3617C103.962 20.4163 103.992 20.4795 104.029 20.5021C104.065 20.5248 104.095 20.6171 104.095 20.7072V20.8711L100.526 20.8533C98.1786 20.8416 96.9565 20.8583 96.9566 20.9022C96.9568 20.9389 97.0318 21.1165 97.1235 21.2968C97.2151 21.4773 97.29 21.6648 97.29 21.7136C97.29 21.7624 97.32 21.8023 97.3567 21.8023C97.3934 21.8023 97.4234 21.8444 97.4234 21.896C97.4234 21.9476 97.4826 22.1051 97.555 22.246C97.9362 22.9889 98.3575 23.898 98.3575 23.9781C98.3575 24.0283 98.3827 24.0693 98.4135 24.0693C98.4444 24.0693 98.5093 24.1897 98.558 24.3369C98.6066 24.4841 98.6789 24.6304 98.7188 24.6619C98.7586 24.6935 101.313 24.7305 104.396 24.7443L110 24.7694L109.979 24.5693C109.967 24.4593 109.929 24.3593 109.895 24.3471C109.861 24.3348 109.833 24.2824 109.833 24.2304C109.833 24.1785 109.713 23.8886 109.566 23.5862C109.42 23.2838 109.299 22.9987 109.299 22.9527C109.299 22.9067 109.269 22.8691 109.233 22.8691C109.196 22.8691 109.166 22.8091 109.166 22.7358C109.166 22.6624 109.136 22.6024 109.099 22.6024C109.063 22.6024 109.033 22.5648 109.033 22.5188C109.033 22.4381 108.857 22.0589 108.159 20.6333C107.979 20.2653 107.832 19.9278 107.832 19.8832C107.832 19.8385 107.802 19.8021 107.765 19.8021C107.728 19.8021 107.698 19.742 107.698 19.6687C107.698 19.5954 107.668 19.5354 107.631 19.5354C107.595 19.5354 107.565 19.4753 107.565 19.402C107.565 19.3287 107.535 19.2687 107.498 19.2687C107.461 19.2687 107.431 19.2278 107.431 19.178C107.431 19.0684 107.018 18.2443 106.948 18.213C106.92 18.2007 106.898 18.1478 106.898 18.0954C106.898 18.0429 106.868 17.9479 106.832 17.8842C106.577 17.4315 104.229 12.6262 104.229 12.5561C104.229 12.5075 104.199 12.4678 104.162 12.4678C104.125 12.4678 104.095 12.4078 104.095 12.3344C104.095 12.2611 104.065 12.2011 104.029 12.2011C103.992 12.2011 103.962 12.1411 103.962 12.0677C103.962 11.9944 103.932 11.9344 103.895 11.9344C103.858 11.9344 103.828 11.8744 103.828 11.801C103.828 11.7277 103.798 11.6677 103.762 11.6677C103.725 11.6677 103.695 11.6077 103.695 11.5343C103.695 11.461 103.665 11.401 103.628 11.401C103.592 11.401 103.562 11.341 103.562 11.2676C103.562 11.1943 103.532 11.1343 103.495 11.1343C103.458 11.1343 103.428 11.0978 103.428 11.0533C103.428 10.9589 103.205 10.4941 101.965 8.00055C100.606 5.26674 99.8022 3.70274 99.7439 3.6778C99.7153 3.66553 99.6919 3.60052 99.6919 3.53332C99.6919 3.46611 99.667 3.4011 99.6365 3.38883C99.6061 3.37663 99.4792 3.1716 99.3545 2.93324C99.2299 2.69488 99.1115 2.48485 99.0913 2.46651C99.0713 2.44818 98.9805 2.29069 98.8897 2.11647C98.799 1.94225 98.7021 1.79976 98.6745 1.79976C98.6469 1.79976 98.6244 1.76196 98.6244 1.71568C98.6244 1.66948 98.5268 1.51926 98.4075 1.38191L98.1907 1.13214L96.2436 1.13261L94.2966 1.13301L94.253 1.28303ZM60.239 11.8451C60.1731 11.9109 60.1874 25.1241 60.2533 25.1648C60.2846 25.1841 61.1547 25.2203 62.187 25.2453L64.0638 25.2907V20.7183C64.0638 18.2035 64.082 16.0984 64.1043 16.0404C64.1409 15.945 64.9789 15.9349 72.9112 15.9349H81.6777V13.868V11.801H70.9804C65.0968 11.801 60.2632 11.8208 60.239 11.8451Z" fill="white"/>
</svg>
