<svg width="16" height="16" viewBox="0 0 16 16" fill="none" xmlns="http://www.w3.org/2000/svg">
<g clip-path="url(#clip0)">
<path d="M14.8457 1.79263L14.8457 1.79266L14.8508 1.7906C15.3561 1.58669 15.4996 1.69043 15.5204 1.71161C15.5404 1.7319 15.579 1.7883 15.5941 1.9274C15.6091 2.06664 15.5969 2.26073 15.5415 2.51422L15.5409 2.51733L13.1939 13.6883L13.1938 13.6883L13.1929 13.6931C13.1084 14.1215 12.9813 14.2697 12.9065 14.3107C12.8575 14.3376 12.7081 14.3798 12.3457 14.1684L8.78546 11.4886L8.51476 11.2849L8.26925 11.5184L6.18781 13.498C6.13734 13.5397 6.09405 13.5436 6.07314 13.5398C6.06525 13.5384 6.03012 13.5313 5.98591 13.4738L6.20002 10.8485L13.6338 4.08291C13.7017 4.02216 13.7638 3.95626 13.813 3.88479C13.8604 3.81586 13.9116 3.71901 13.924 3.6005C13.9379 3.46751 13.8996 3.32653 13.797 3.21674C13.7053 3.11859 13.5931 3.07828 13.512 3.06134C13.353 3.02814 13.1846 3.0564 13.0447 3.10055C12.8988 3.14657 12.7446 3.22215 12.5959 3.32667L3.97034 8.68503L0.532482 7.58685C0.452903 7.54923 0.417476 7.51662 0.403936 7.50108C0.410167 7.48774 0.424914 7.46297 0.458272 7.42967C0.505369 7.38266 0.57892 7.32993 0.680836 7.28315L14.8457 1.79263Z" stroke="white" stroke-width="0.8"/>
</g>
<defs>
<clipPath id="clip0">
<rect width="16" height="16" fill="white"/>
</clipPath>
</defs>
</svg>
