<svg width="20" height="11" viewBox="0 0 20 11" fill="none" xmlns="http://www.w3.org/2000/svg">
<path d="M18.6073 0.629948L18.6127 0.612856C18.6347 0.543575 18.6402 0.497649 18.6402 0.471757C18.6372 0.47052 18.6338 0.469186 18.6298 0.467778C18.5903 0.453615 18.5147 0.4375 18.3864 0.4375H16.2549C16.0611 0.4375 15.9564 0.484666 15.8949 0.52889C15.8299 0.575667 15.7759 0.646322 15.7283 0.750053L15.7264 0.754386L15.7162 0.777601C15.7074 0.797663 15.6944 0.826764 15.6775 0.864071C15.6436 0.938672 15.5939 1.04616 15.5296 1.17987C15.401 1.44711 15.2136 1.82003 14.9771 2.24495C14.5071 3.08975 13.8316 4.1614 13.0276 5.01449L13.0198 5.02274L13.0116 5.03058C12.5367 5.48484 12.1883 5.77576 11.7169 5.77576C11.22 5.77576 10.9479 5.28923 10.9479 4.75878V0.744917C10.9479 0.635652 10.9394 0.560259 10.9277 0.509496C10.9203 0.47755 10.9129 0.46075 10.9091 0.453495C10.9088 0.453386 10.9085 0.453272 10.9082 0.453151C10.894 0.447804 10.8555 0.4375 10.777 0.4375H7.42765C7.36529 0.4375 7.33851 0.457719 7.32987 0.465869C7.32752 0.468082 7.3258 0.470028 7.32454 0.47163C7.32793 0.479776 7.33685 0.497414 7.36034 0.529719C7.38571 0.564603 7.41794 0.603203 7.46588 0.659654L7.47423 0.669482C7.51773 0.720685 7.571 0.783372 7.62522 0.853523C7.8747 1.1763 8.12369 1.63124 8.16866 2.41677L8.16937 2.42926V2.44177V5.42514C8.16937 5.7483 8.14479 6.05226 8.01427 6.27655C7.93721 6.40896 7.82622 6.51058 7.68543 6.57099C7.55718 6.62602 7.43049 6.63528 7.33629 6.63528C7.1272 6.63528 6.93743 6.54798 6.78827 6.45462C6.6318 6.3567 6.47405 6.22286 6.31912 6.0685C6.00854 5.75904 5.67038 5.32777 5.3312 4.81821C4.65133 3.79685 3.93565 2.41302 3.40257 0.93731L18.6073 0.629948ZM18.6073 0.629948L18.6033 0.647426M18.6073 0.629948L18.6033 0.647426M18.6033 0.647426C18.5519 0.872353 18.3707 1.26027 18.0882 1.7544C17.8142 2.23365 17.4707 2.76932 17.132 3.27364C16.794 3.77703 16.4638 4.24446 16.2179 4.58623C16.1775 4.64233 16.1394 4.69501 16.104 4.74387L18.6033 0.647426ZM7.3228 0.465804C7.3228 0.466124 7.3228 0.466436 7.3228 0.46674C7.32272 0.466354 7.32275 0.466189 7.32278 0.466038C7.32279 0.465965 7.3228 0.465895 7.3228 0.465804ZM18.6573 0.480512C18.6573 0.480524 18.657 0.480331 18.6565 0.47991L18.6573 0.480512ZM19.0108 10.2726C19.0401 10.3704 19.0411 10.43 19.0373 10.4598C19.0343 10.4837 19.0289 10.4886 19.0282 10.4892L19.0281 10.4893C19.0201 10.4981 18.9446 10.5616 18.6897 10.5616H16.5591C16.4177 10.5616 16.3182 10.5361 16.2251 10.4897C16.1233 10.439 16.0092 10.3535 15.8508 10.2025C15.7214 10.0792 15.5801 9.92977 15.4019 9.74135C15.359 9.696 15.314 9.64839 15.2665 9.59834C15.0259 9.34493 14.7344 9.04287 14.3656 8.69219L14.3657 8.69214L14.3596 8.6866C13.0849 7.51917 12.4346 7.26213 11.9424 7.26213C11.7239 7.26213 11.3939 7.28161 11.1688 7.54744C10.9683 7.78426 10.947 8.11385 10.947 8.39464V10.2116C10.947 10.3187 10.9368 10.3674 10.928 10.3905L10.9276 10.3916C10.9244 10.4001 10.9214 10.4081 10.8962 10.4242C10.8031 10.4837 10.5414 10.5625 9.86336 10.5625C7.76893 10.5625 5.41156 9.34758 3.71684 7.03441L3.71687 7.0344L3.71385 7.03038C2.41312 5.29706 1.58941 3.781 1.09241 2.63988C0.843792 2.06906 0.67778 1.59401 0.574678 1.23433C0.467791 0.861449 0.4375 0.643231 0.4375 0.573013C0.4375 0.518944 0.443801 0.493637 0.447348 0.484017C0.463528 0.473815 0.534128 0.438425 0.730907 0.438425H2.86142C3.07173 0.438425 3.14038 0.480987 3.17736 0.513381C3.23368 0.562707 3.30526 0.668587 3.40255 0.937233L19.0108 10.2726ZM0.449698 0.479121C0.449753 0.479201 0.449382 0.480026 0.448421 0.48136C0.449162 0.479709 0.449643 0.479042 0.449698 0.479121Z" stroke="white" stroke-width="0.875"/>
</svg>
