<svg width="780" height="102" viewBox="0 0 780 102" fill="none" xmlns="http://www.w3.org/2000/svg">
<path d="M64.2053 97.0171L53.1831 66.9333H23.9724L18.625 80.1746C18.3825 80.7808 18.0066 81.6903 17.4973 82.9028C17.0123 84.0911 16.6 85.2795 16.2605 86.4678C15.9452 87.6318 15.7876 88.8201 15.7876 90.0327C15.7876 92.3608 16.4424 94.0584 17.752 95.1255C19.0858 96.1683 21.6079 96.7988 25.3184 97.0171V100H0V97.0171C3.05566 96.8231 5.63843 95.6711 7.74829 93.5613C9.88241 91.4272 11.3739 89.2082 12.2227 86.9043L45.1438 2.40063H47.8357L81.8118 97.0171H91.9246V100H50.9641V97.0171H64.2053ZM52.1646 63.9504L39.3235 26.9915L24.7363 63.9504H52.1646ZM104.178 2.40063H149.322C162.684 2.40063 171.863 4.65601 176.859 9.16675C181.855 13.6775 184.353 18.8188 184.353 24.5906C184.353 28.7618 183.007 32.4359 180.315 35.6128C177.623 38.7897 174.009 41.324 169.474 43.2156C164.939 45.0829 160.113 46.2349 154.996 46.6714V47.3989C164.357 48.8298 171.572 51.0487 176.641 54.0559C181.709 57.0631 185.056 60.2279 186.681 63.5503C188.306 66.8485 189.118 70.2073 189.118 73.6267C189.118 78.186 187.966 82.4542 185.662 86.4314C183.358 90.3844 179.369 93.634 173.694 96.1804C168.044 98.7268 160.562 100 151.25 100H104.178V97.0171H115.637V5.38354H104.178V2.40063ZM132.334 45.6165H143.21C151.795 45.6165 157.64 43.7127 160.744 39.9053C163.848 36.0978 165.4 31.0535 165.4 24.7725C165.4 19.0977 164.442 14.8537 162.526 12.0405C160.611 9.20312 158.21 7.38428 155.324 6.58398C152.462 5.78369 149.018 5.38354 144.993 5.38354H132.334V45.6165ZM132.334 97.0171H149.176C163.29 97.0171 170.347 89.5234 170.347 74.5361C170.347 64.6659 167.765 57.8755 162.599 54.165C157.434 50.4546 151.322 48.5994 144.265 48.5994H132.334V97.0171ZM210.429 51.1458C210.429 41.324 212.709 32.5693 217.268 24.8816C221.851 17.1939 227.769 11.2524 235.02 7.05688C242.295 2.86141 249.74 0.763672 257.355 0.763672C265.043 0.763672 272.524 2.86141 279.8 7.05688C287.075 11.2524 292.993 17.1939 297.552 24.8816C302.135 32.5693 304.427 41.324 304.427 51.1458C304.427 61.0645 302.147 69.8678 297.588 77.5554C293.029 85.2431 287.1 91.1847 279.8 95.3801C272.5 99.5514 265.019 101.637 257.355 101.637C251.705 101.637 246.091 100.461 240.513 98.1084C234.935 95.7318 229.866 92.3245 225.307 87.8865C220.772 83.4242 217.159 78.0647 214.467 71.8079C211.775 65.551 210.429 58.6637 210.429 51.1458ZM257.355 3.60107C252.917 3.60107 248.588 4.86214 244.369 7.38428C240.173 9.90641 236.596 14.7082 233.638 21.7896C230.679 28.8709 229.2 38.6563 229.2 51.1458C229.2 63.0774 230.558 72.6082 233.274 79.738C235.99 86.8437 239.446 91.8031 243.641 94.6162C247.861 97.4051 252.432 98.7996 257.355 98.7996C261.842 98.7996 266.195 97.5506 270.415 95.0527C274.634 92.5306 278.224 87.7167 281.182 80.6111C284.165 73.5055 285.657 63.6837 285.657 51.1458C285.657 38.7048 284.165 28.9316 281.182 21.8259C278.199 14.7203 274.586 9.90641 270.342 7.38428C266.098 4.86214 261.769 3.60107 257.355 3.60107ZM407.623 18.8066V72.7173C407.623 78.4163 406.192 83.4727 403.33 87.8865C400.493 92.276 396.54 95.6711 391.471 98.072C386.427 100.449 380.728 101.637 374.374 101.637C368.869 101.637 363.17 100.825 357.277 99.1997C351.408 97.5506 346.328 94.5677 342.035 90.251C337.767 85.91 335.633 80.0654 335.633 72.7173V5.23804H324.174V2.40063H363.825V5.23804H352.33V75.1182C352.33 82.2238 354.767 87.7046 359.641 91.5605C364.516 95.3923 370.821 97.3081 378.557 97.3081C395.946 97.3081 404.64 88.0684 404.64 69.5889V15.8237C404.64 11.9193 403.609 9.288 401.548 7.92993C399.486 6.54761 396.2 5.65031 391.69 5.23804V2.40063H420.573V5.23804C416.959 5.43205 414.243 5.89282 412.424 6.62036C410.63 7.3479 409.381 8.63322 408.678 10.4763C407.974 12.3194 407.623 15.0962 407.623 18.8066ZM471.749 97.0171V5.23804C464.62 5.23804 458.908 6.13534 454.616 7.92993C450.323 9.72453 447.049 12.6468 444.794 16.6968C442.539 20.7225 441.047 26.1912 440.32 33.1028H436.136L436.9 2.40063H523.296L524.059 33.1028H519.876C519.052 25.9244 517.524 20.3466 515.293 16.3694C513.086 12.3679 509.86 9.51839 505.616 7.8208C501.372 6.09896 495.649 5.23804 488.446 5.23804V97.0171H499.905V100H460.291V97.0171H471.749ZM681.305 18.8066V72.7173C681.305 78.4163 679.875 83.4727 677.013 87.8865C674.176 92.276 670.223 95.6711 665.154 98.072C660.11 100.449 654.411 101.637 648.057 101.637C642.552 101.637 636.853 100.825 630.96 99.1997C625.091 97.5506 620.01 94.5677 615.718 90.251C611.45 85.91 609.315 80.0654 609.315 72.7173V5.23804H597.857V2.40063H637.508V5.23804H626.012V75.1182C626.012 82.2238 628.45 87.7046 633.324 91.5605C638.199 95.3923 644.504 97.3081 652.24 97.3081C669.628 97.3081 678.323 88.0684 678.323 69.5889V15.8237C678.323 11.9193 677.292 9.288 675.23 7.92993C673.169 6.54761 669.883 5.65031 665.372 5.23804V2.40063H694.256V5.23804C690.642 5.43205 687.926 5.89282 686.107 6.62036C684.313 7.3479 683.064 8.63322 682.36 10.4763C681.657 12.3194 681.305 15.0962 681.305 18.8066ZM713.093 100L712.802 68.8613H714.73C719.338 80.3322 724.806 88.1654 731.136 92.3608C737.49 96.5563 743.844 98.6541 750.198 98.6541C755.945 98.6541 760.88 97.005 765.003 93.7068C769.15 90.4086 771.223 86.104 771.223 80.793C771.223 70.4134 765.9 63.7564 755.254 60.822L737.684 56.0566C723.57 52.1764 716.512 42.1849 716.512 26.082C716.512 21.4985 717.604 17.2667 719.786 13.3865C721.969 9.50627 725.013 6.43848 728.917 4.18311C732.846 1.90348 737.211 0.763672 742.013 0.763672C745.917 0.763672 748.888 1.00618 750.925 1.49121C752.986 1.95199 754.878 2.65527 756.6 3.60107C758.346 4.54688 759.777 5.21379 760.892 5.60181C762.032 5.96558 763.936 6.14746 766.604 6.14746C767.695 6.14746 768.835 4.89852 770.023 2.40063H772.387L773.006 25.9365H770.896C764.324 10.9492 754.842 3.45557 742.449 3.45557C736.605 3.45557 731.985 5.17741 728.59 8.62109C725.219 12.0648 723.533 16.1996 723.533 21.0256C723.533 25.2696 724.552 28.6527 726.589 31.1748C728.626 33.6969 730.845 35.4915 733.246 36.5586C735.647 37.6014 738.521 38.5836 741.867 39.5051L757.073 43.543C763.305 45.1921 768.071 47.7384 771.369 51.1821C774.667 54.6258 776.801 58.1423 777.771 61.7314C778.766 65.3206 779.263 68.8371 779.263 72.2808C779.263 77.131 778.232 81.8236 776.171 86.3586C774.134 90.8694 771.029 94.5435 766.858 97.3809C762.687 100.218 757.679 101.637 751.834 101.637C743.832 101.637 736.435 100 729.645 96.7261C726.128 95.1255 723.897 94.3252 722.951 94.3252C721.229 94.3252 719.811 94.8345 718.695 95.853C717.58 96.8716 716.913 98.2539 716.694 100H713.093Z" fill="#F3F3F3"/>
</svg>
