<svg width="695" height="102" viewBox="0 0 695 102" fill="none" xmlns="http://www.w3.org/2000/svg">
<path d="M11.7156 97.0171V5.23804H0.256836V2.40063H74.7568L76.3938 33.6848H72.8289C71.495 14.7203 62.9465 5.23804 47.1831 5.23804H28.4126V48.4539H37.9434C41.9691 48.4539 45.4734 47.3868 48.4563 45.2527C51.4392 43.1186 53.3066 38.2198 54.0583 30.5564H57.0413V69.5889H54.0583C53.6703 62.362 52.0697 57.536 49.2566 55.1108C46.4677 52.6615 42.9998 51.4368 38.8528 51.4368H28.4126V97.0171H39.9077V100H0.256836V97.0171H11.7156ZM148.705 97.0171L137.683 66.9333H108.472L103.125 80.1746C102.883 80.7808 102.507 81.6903 101.997 82.9028C101.512 84.0911 101.1 85.2795 100.761 86.4678C100.445 87.6318 100.288 88.8201 100.288 90.0327C100.288 92.3608 100.942 94.0584 102.252 95.1255C103.586 96.1683 106.108 96.7988 109.818 97.0171V100H84.5V97.0171C87.5557 96.8231 90.1385 95.6711 92.2483 93.5613C94.3824 91.4272 95.8739 89.2082 96.7227 86.9043L129.644 2.40063H132.336L166.312 97.0171H176.425V100H135.464V97.0171H148.705ZM136.665 63.9504L123.824 26.9915L109.236 63.9504H136.665ZM262.596 67.5154H266.161L264.96 100H261.104C260.813 96.0228 259.225 94.0342 256.339 94.0342C254.738 94.0342 252.653 94.8345 250.082 96.4351C243.898 99.903 237.581 101.637 231.13 101.637C224.218 101.637 217.755 99.8424 211.741 96.2532C205.751 92.664 200.84 87.5348 197.008 80.8657C193.176 74.1966 190.945 66.4241 190.315 57.5481V47.981C190.848 40.6571 192.376 34.0728 194.898 28.2283C197.42 22.3595 200.719 17.3758 204.793 13.2773C208.867 9.15462 213.426 6.03833 218.471 3.92847C223.515 1.8186 228.729 0.763672 234.113 0.763672C236.853 0.763672 238.89 0.957682 240.224 1.3457C241.558 1.73372 242.904 2.31576 244.262 3.0918C245.62 3.86784 246.917 4.44987 248.154 4.83789C249.415 5.20166 251.343 5.38354 253.938 5.38354C256.969 5.38354 258.958 3.84359 259.904 0.763672H263.469L263.76 32.5208H260.486C259.443 22.7475 256.921 15.4842 252.92 10.731C248.942 5.9777 242.976 3.60107 235.022 3.60107C230.584 3.60107 226.401 4.78939 222.472 7.16602C218.568 9.54264 215.354 13.5562 212.832 19.2068C210.334 24.8331 209.085 32.2904 209.085 41.5786V65.7329C209.085 74.1481 210.492 80.8415 213.305 85.813C216.118 90.7845 219.453 94.1918 223.309 96.0349C227.189 97.878 230.996 98.7996 234.731 98.7996C238.466 98.7996 242.164 97.878 245.826 96.0349C249.512 94.1676 252.871 90.8936 255.902 86.2131C258.934 81.5326 261.165 75.3 262.596 67.5154ZM315.155 97.0171V5.23804C308.025 5.23804 302.314 6.13534 298.021 7.92993C293.729 9.72453 290.455 12.6468 288.199 16.6968C285.944 20.7225 284.453 26.1912 283.725 33.1028H279.542L280.306 2.40063H366.701L367.465 33.1028H363.281C362.457 25.9244 360.929 20.3466 358.698 16.3694C356.491 12.3679 353.266 9.51839 349.022 7.8208C344.778 6.09896 339.054 5.23804 331.852 5.23804V97.0171H343.31V100H303.696V97.0171H315.155ZM384.12 51.1458C384.12 41.324 386.399 32.5693 390.958 24.8816C395.542 17.1939 401.459 11.2524 408.71 7.05688C415.986 2.86141 423.431 0.763672 431.046 0.763672C438.733 0.763672 446.215 2.86141 453.49 7.05688C460.766 11.2524 466.683 17.1939 471.242 24.8816C475.826 32.5693 478.118 41.324 478.118 51.1458C478.118 61.0645 475.838 69.8678 471.279 77.5554C466.719 85.2431 460.79 91.1847 453.49 95.3801C446.191 99.5514 438.709 101.637 431.046 101.637C425.395 101.637 419.781 100.461 414.203 98.1084C408.625 95.7318 403.557 92.3245 398.998 87.8865C394.463 83.4242 390.849 78.0647 388.157 71.8079C385.465 65.551 384.12 58.6637 384.12 51.1458ZM431.046 3.60107C426.608 3.60107 422.279 4.86214 418.059 7.38428C413.864 9.90641 410.287 14.7082 407.328 21.7896C404.369 28.8709 402.89 38.6563 402.89 51.1458C402.89 63.0774 404.248 72.6082 406.964 79.738C409.68 86.8437 413.136 91.8031 417.332 94.6162C421.551 97.4051 426.123 98.7996 431.046 98.7996C435.532 98.7996 439.885 97.5506 444.105 95.0527C448.325 92.5306 451.914 87.7167 454.873 80.6111C457.856 73.5055 459.347 63.6837 459.347 51.1458C459.347 38.7048 457.856 28.9316 454.873 21.8259C451.89 14.7203 448.276 9.90641 444.032 7.38428C439.788 4.86214 435.46 3.60107 431.046 3.60107ZM526.02 97.0171H537.515V100H497.864V97.0171H509.323V5.23804H497.864V2.40063H538.243C545.979 2.40063 552.757 2.86141 558.578 3.78296C564.398 4.70451 569.26 6.76587 573.165 9.96704C577.093 13.1682 579.058 17.8972 579.058 24.1541C579.058 30.2411 576.693 35.5158 571.964 39.978C567.26 44.416 559.451 47.0837 548.538 47.981V48.5994C554.867 49.5694 559.802 50.9275 563.343 52.6736C566.884 54.3954 569.491 56.6144 571.164 59.3306C572.837 62.0225 573.989 65.1388 574.62 68.6794C575.25 72.1959 575.99 77.8222 576.839 85.5583C577.178 88.8323 577.651 91.4393 578.258 93.3794C578.888 95.3195 580.052 96.2896 581.75 96.2896C582.89 96.2896 584.272 95.7318 585.897 94.6162C587.546 93.4764 588.843 92.3366 589.789 91.1968L592.044 93.5977C589.595 96.9201 587.146 99.0906 584.696 100.109C582.247 101.128 579.434 101.637 576.257 101.637C572.183 101.637 568.981 101.031 566.653 99.8181C564.349 98.5813 562.579 96.3866 561.342 93.2339C560.13 90.0812 559.184 85.3886 558.505 79.156C557.777 72.0504 556.916 66.509 555.922 62.5317C554.928 58.5303 553.691 55.6444 552.212 53.874C550.757 52.1037 549.023 51.0124 547.01 50.6001C545.021 50.1636 542.05 49.9453 538.097 49.9453H526.02V97.0171ZM526.02 46.9624H536.46C540.947 46.9624 544.9 46.441 548.319 45.3982C551.739 44.3311 554.588 42.1 556.868 38.7048C559.147 35.3097 560.287 30.4109 560.287 24.0085C560.287 19.0855 559.378 15.2538 557.559 12.5134C555.74 9.77303 553.182 7.88143 549.883 6.83862C546.585 5.77157 542.402 5.23804 537.333 5.23804H526.02V46.9624ZM640.42 61.113L610.154 5.23804H601.206V2.40063H640.42V5.23804H629.689L654.862 54.4197L672.286 22.0806C673.547 19.7767 674.396 17.7396 674.833 15.9692V11.4949C674.396 9.91854 673.438 8.51196 671.959 7.27515C670.479 6.01408 668.454 5.38354 665.884 5.38354C665.181 5.38354 664.186 5.33504 662.901 5.23804V2.40063H694.803V5.23804C690.268 5.23804 686.74 6.68099 684.218 9.56689C681.72 12.4528 679.04 16.624 676.178 22.0806L657.081 57.4026V97.0171H668.576V100H628.925V97.0171H640.42V61.113Z" fill="#F3F3F3"/>
</svg>
