<svg width="68" height="60" viewBox="0 0 68 60" fill="none" xmlns="http://www.w3.org/2000/svg">
<path d="M32.1906 14.2224C32.678 14.2224 33.1544 14.0949 33.5596 13.856C33.9648 13.6171 34.2807 13.2775 34.4672 12.8802C34.6536 12.4829 34.7024 12.0458 34.6073 11.624C34.5123 11.2022 34.2776 10.8148 33.9329 10.5108C33.5883 10.2067 33.1493 9.99966 32.6713 9.91579C32.1933 9.83191 31.6978 9.87498 31.2476 10.0396C30.7973 10.2041 30.4125 10.4828 30.1418 10.8404C29.871 11.1979 29.7265 11.6183 29.7266 12.0483C29.7273 12.6247 29.9871 13.1774 30.4491 13.5849C30.911 13.9925 31.5374 14.2218 32.1906 14.2224ZM32.1906 11.281C32.3628 11.281 32.531 11.326 32.6742 11.4104C32.8173 11.4948 32.9288 11.6147 32.9947 11.755C33.0606 11.8954 33.0778 12.0498 33.0442 12.1987C33.0106 12.3477 32.9278 12.4845 32.806 12.5919C32.6843 12.6993 32.5293 12.7725 32.3604 12.8021C32.1916 12.8317 32.0166 12.8165 31.8576 12.7584C31.6985 12.7003 31.5626 12.6018 31.467 12.4755C31.3714 12.3493 31.3203 12.2008 31.3203 12.0489C31.3203 11.8452 31.412 11.6498 31.5752 11.5057C31.7384 11.3616 31.9598 11.2806 32.1906 11.2804V11.281Z" fill="#8D6C52"/>
<path d="M35.3452 17.0056C35.3452 17.4356 35.4897 17.856 35.7604 18.2136C36.0312 18.5711 36.416 18.8498 36.8663 19.0144C37.3165 19.179 37.812 19.222 38.29 19.1381C38.768 19.0542 39.207 18.8472 39.5517 18.5431C39.8963 18.239 40.131 17.8516 40.226 17.4299C40.3211 17.0081 40.2723 16.5709 40.0858 16.1736C39.8993 15.7764 39.5834 15.4368 39.1782 15.1979C38.7729 14.959 38.2965 14.8315 37.8092 14.8315C37.1559 14.8322 36.5296 15.0615 36.0677 15.469C35.6058 15.8766 35.346 16.4292 35.3452 17.0056ZM38.6795 17.0056C38.6795 17.1575 38.6285 17.306 38.5329 17.4323C38.4373 17.5586 38.3013 17.657 38.1423 17.7152C37.9833 17.7733 37.8083 17.7885 37.6394 17.7589C37.4706 17.7293 37.3155 17.6562 37.1938 17.5488C37.0721 17.4414 36.9892 17.3045 36.9556 17.1556C36.922 17.0066 36.9392 16.8522 37.0051 16.7119C37.0709 16.5715 37.1825 16.4516 37.3256 16.3672C37.4687 16.2828 37.637 16.2378 37.8092 16.2378C38.0399 16.238 38.2611 16.3189 38.4243 16.4629C38.5875 16.6068 38.6793 16.802 38.6796 17.0056H38.6795Z" fill="#8D6C52"/>
<path d="M30.7978 18.2342C30.8718 18.2995 30.9596 18.3513 31.0563 18.3866C31.153 18.422 31.2566 18.4402 31.3613 18.4402C31.4659 18.4402 31.5696 18.422 31.6663 18.3866C31.763 18.3513 31.8508 18.2995 31.9248 18.2342L39.2015 11.8137C39.2765 11.7486 39.3361 11.6711 39.3769 11.5855C39.4178 11.5 39.439 11.4082 39.4395 11.3154C39.4399 11.2225 39.4195 11.1306 39.3794 11.0447C39.3394 10.9589 39.2805 10.8809 39.2061 10.8153C39.1317 10.7497 39.0433 10.6977 38.9461 10.6624C38.8488 10.627 38.7445 10.609 38.6394 10.6094C38.5342 10.6098 38.4301 10.6285 38.3332 10.6646C38.2362 10.7006 38.1483 10.7532 38.0746 10.8194L30.7979 17.2398C30.6485 17.3717 30.5645 17.5505 30.5645 17.737C30.5644 17.9235 30.6484 18.1023 30.7978 18.2342Z" fill="#8D6C52"/>
<path d="M34.9999 23.619C37.038 23.619 39.0304 23.0857 40.7251 22.0866C42.4197 21.0875 43.7406 19.6674 44.5205 18.0059C45.3005 16.3444 45.5046 14.5162 45.1069 12.7524C44.7093 10.9886 43.7279 9.36842 42.2867 8.09679C40.8455 6.82515 39.0093 5.95916 37.0103 5.60831C35.0113 5.25747 32.9393 5.43753 31.0563 6.12574C29.1733 6.81394 27.5639 7.97938 26.4315 9.47466C25.2992 10.9699 24.6948 12.7279 24.6948 14.5263C24.6979 16.937 25.7846 19.2482 27.7165 20.9528C29.6484 22.6574 32.2678 23.6163 34.9999 23.619ZM34.9999 6.83997C36.7228 6.83997 38.4071 7.29077 39.8397 8.13537C41.2722 8.97998 42.3888 10.1804 43.0481 11.585C43.7074 12.9895 43.8799 14.535 43.5438 16.026C43.2077 17.517 42.378 18.8866 41.1597 19.9616C39.9414 21.0366 38.3891 21.7686 36.6993 22.0652C35.0095 22.3617 33.2579 22.2095 31.6661 21.6277C30.0743 21.0459 28.7138 20.0607 27.7566 18.7967C26.7994 17.5326 26.2885 16.0465 26.2886 14.5263C26.2912 12.4884 27.2098 10.5347 28.8429 9.09373C30.4761 7.65276 32.6903 6.84223 34.9999 6.83997Z" fill="#8D6C52"/>
<path d="M53.4507 14.5312C53.4507 14.7177 53.5346 14.8966 53.6841 15.0284C53.8335 15.1603 54.0362 15.2344 54.2476 15.2344H58.0422C58.2535 15.2344 58.4562 15.1603 58.6056 15.0284C58.7551 14.8966 58.839 14.7177 58.839 14.5312C58.839 14.3448 58.7551 14.1659 58.6056 14.0341C58.4562 13.9022 58.2535 13.8281 58.0422 13.8281H54.2476C54.0362 13.8281 53.8335 13.9022 53.6841 14.0341C53.5346 14.1659 53.4507 14.3448 53.4507 14.5312Z" fill="#8D6C52"/>
<path d="M52.8266 11.2168C52.9987 11.2168 53.1661 11.1675 53.3037 11.0762L57.0984 8.56836C57.2675 8.45647 57.3792 8.28991 57.4091 8.1053C57.439 7.92069 57.3846 7.73317 57.2578 7.58399C57.1309 7.4348 56.9422 7.33618 56.733 7.3098C56.5237 7.28343 56.3112 7.33147 56.1421 7.44336L52.3476 9.95118C52.2138 10.0397 52.1149 10.1632 52.0651 10.304C52.0152 10.4449 52.0168 10.596 52.0697 10.736C52.1226 10.876 52.2241 10.9978 52.3597 11.0841C52.4954 11.1704 52.6584 11.2168 52.8257 11.2168H52.8266Z" fill="#8D6C52"/>
<path d="M52.3478 19.1029L56.1423 21.6107C56.226 21.6661 56.3213 21.7064 56.4227 21.7293C56.5241 21.7522 56.6295 21.7573 56.7331 21.7443C56.8367 21.7312 56.9364 21.7003 57.0265 21.6532C57.1165 21.6062 57.1952 21.5439 57.2579 21.4701C57.3207 21.3962 57.3664 21.3121 57.3924 21.2227C57.4184 21.1332 57.4241 21.0402 57.4093 20.9488C57.3945 20.8573 57.3595 20.7694 57.3061 20.69C57.2528 20.6105 57.1823 20.5411 57.0986 20.4857L53.3039 17.9779C53.1345 17.871 52.9244 17.8269 52.7186 17.8549C52.5127 17.883 52.3276 17.9811 52.2027 18.1281C52.0778 18.2752 52.0231 18.4595 52.0503 18.6417C52.0775 18.8239 52.1845 18.9894 52.3483 19.1029H52.3478Z" fill="#8D6C52"/>
<path d="M11.9585 15.2344H15.7531C15.9644 15.2344 16.1671 15.1603 16.3166 15.0284C16.466 14.8966 16.55 14.7177 16.55 14.5312C16.55 14.3448 16.466 14.1659 16.3166 14.0341C16.1671 13.9022 15.9644 13.8281 15.7531 13.8281H11.9585C11.7472 13.8281 11.5445 13.9022 11.395 14.0341C11.2456 14.1659 11.1616 14.3448 11.1616 14.5312C11.1616 14.7177 11.2456 14.8966 11.395 15.0284C11.5445 15.1603 11.7472 15.2344 11.9585 15.2344Z" fill="#8D6C52"/>
<path d="M16.6965 17.9769L12.9018 20.4847C12.7327 20.5966 12.6209 20.7632 12.591 20.9478C12.5611 21.1324 12.6156 21.3199 12.7424 21.4691C12.8692 21.6183 13.058 21.7169 13.2672 21.7433C13.4764 21.7696 13.6889 21.7216 13.858 21.6097L17.6526 19.1019C17.8164 18.9884 17.9234 18.8229 17.9506 18.6407C17.9778 18.4585 17.9231 18.2742 17.7982 18.1271C17.6733 17.9801 17.4881 17.882 17.2823 17.854C17.0765 17.8259 16.8664 17.87 16.697 17.9769H16.6965Z" fill="#8D6C52"/>
<path d="M12.9023 8.56785L16.697 11.0757C16.8664 11.1826 17.0765 11.2267 17.2823 11.1986C17.4881 11.1705 17.6733 11.0725 17.7982 10.9254C17.9231 10.7784 17.9778 10.594 17.9506 10.4119C17.9234 10.2297 17.8164 10.0641 17.6526 9.95067L13.858 7.44239C13.6889 7.3305 13.4764 7.28246 13.2672 7.30883C13.058 7.3352 12.8692 7.43383 12.7424 7.58301C12.6156 7.73219 12.5611 7.91972 12.591 8.10432C12.6209 8.28893 12.7327 8.4555 12.9018 8.56739L12.9023 8.56785Z" fill="#8D6C52"/>
<path d="M56.3202 26.0643C56.2797 25.9783 56.2157 25.9025 56.1339 25.8435C56.0521 25.7846 55.9551 25.7444 55.8515 25.7265L46.0783 22.7711L46.7767 22.4596C47.3758 22.1926 47.8737 21.7774 48.2095 21.2647C48.5453 20.752 48.7046 20.164 48.6677 19.5727L48.5866 18.2709C48.5654 17.9197 48.672 17.5717 48.8907 17.2776L49.6926 16.2045C50.065 15.7069 50.2635 15.1237 50.2635 14.5273C50.2635 13.931 50.065 13.3478 49.6926 12.8502L48.8908 11.7772C48.6721 11.4831 48.5656 11.1351 48.5867 10.7839L48.6678 9.48207C48.7047 8.89077 48.5455 8.3028 48.2097 7.79007C47.8739 7.27733 47.376 6.86206 46.777 6.59504L45.471 6.01297C45.1161 5.85563 44.8281 5.60154 44.6497 5.28839L43.9899 4.13609C43.6873 3.60754 43.2167 3.16825 42.6356 2.87194C42.0545 2.57564 41.3882 2.43516 40.7181 2.46769L39.2425 2.53929C38.8445 2.55785 38.4502 2.46379 38.1169 2.27082L36.9009 1.56336C36.3369 1.23475 35.6759 1.05957 35.0001 1.05957C34.3242 1.05957 33.6633 1.23475 33.0993 1.56336L31.8832 2.27082C31.5499 2.4635 31.1556 2.55753 30.7577 2.53929L29.2821 2.46769C28.612 2.4349 27.9455 2.57522 27.3644 2.87149C26.7833 3.16775 26.3126 3.6071 26.0101 4.13574L25.3503 5.28804C25.1719 5.60123 24.8839 5.85532 24.5289 6.01261L23.2232 6.59468C22.6241 6.86169 22.1262 7.27696 21.7904 7.78969C21.4546 8.30243 21.2953 8.8904 21.3322 9.48171L21.4134 10.7836C21.4345 11.1348 21.3279 11.4828 21.1092 11.7768L20.3073 12.8499C19.9349 13.3475 19.7364 13.9307 19.7364 14.527C19.7364 15.1234 19.9349 15.7065 20.3073 16.2042L21.1091 17.2773C21.3278 17.5713 21.4343 17.9193 21.4132 18.2705L21.3321 19.5724C21.2952 20.1637 21.4544 20.7516 21.7902 21.2643C22.1261 21.777 22.6239 22.1923 23.2229 22.4593L23.9777 22.7957L14.1484 25.7252C14.0444 25.7431 13.9471 25.7834 13.865 25.8425C13.7829 25.9016 13.7187 25.9777 13.678 26.064L9.47339 33.1068C9.37786 33.2731 9.36055 33.466 9.4252 33.6435C9.48985 33.821 9.63126 33.9688 9.8187 34.0549L14.0156 36.0169V49.608C14.0117 49.7387 14.0501 49.8676 14.1264 49.9797C14.2026 50.0917 14.3134 50.1823 14.4459 50.2408L34.663 58.8701C34.7694 58.9163 34.8863 58.9404 35.0049 58.9405C35.1242 58.9404 35.242 58.9164 35.3493 58.8701L55.5554 50.2408C55.6877 50.1823 55.7983 50.0916 55.8743 49.9795C55.9503 49.8674 55.9885 49.7386 55.9843 49.608V36.0169L60.1861 34.0549C60.372 33.9675 60.5111 33.8187 60.5729 33.641C60.6348 33.4634 60.6145 33.2714 60.5164 33.1069L56.3202 26.0643ZM23.9417 21.2041C23.6192 21.0603 23.3511 20.8367 23.1703 20.5606C22.9895 20.2846 22.9037 19.968 22.9236 19.6496L23.0049 18.3477C23.0439 17.6954 22.8459 17.0492 22.4397 16.5031L21.6381 15.4302C21.4375 15.1622 21.3306 14.8482 21.3306 14.527C21.3306 14.2059 21.4375 13.8919 21.6381 13.6239L22.4399 12.551C22.846 12.0049 23.044 11.3586 23.005 10.7063L22.9237 9.40449C22.9038 9.08608 22.9896 8.76946 23.1704 8.49336C23.3513 8.21726 23.6194 7.99365 23.942 7.84988L25.2477 7.26781C25.9069 6.97563 26.4418 6.50374 26.773 5.92214L27.4327 4.76972C27.5957 4.48519 27.8492 4.24871 28.162 4.08917C28.4749 3.92964 28.8336 3.85395 29.1945 3.87136L30.6699 3.94308C31.4092 3.97786 32.1418 3.80319 32.7606 3.44457L33.9766 2.73699C34.2803 2.56008 34.6362 2.46577 35.0001 2.46577C35.364 2.46577 35.7199 2.56008 36.0235 2.73699L37.2396 3.44457C37.8583 3.80298 38.5906 3.97764 39.3296 3.94308L40.8051 3.87136C41.166 3.85387 41.5248 3.92952 41.8378 4.08906C42.1507 4.2486 42.4043 4.48512 42.5673 4.76972L43.227 5.92191C43.5582 6.50353 44.0931 6.97546 44.7523 7.26769L46.0582 7.84976C46.3808 7.99355 46.6489 8.21717 46.8297 8.49327C47.0105 8.76936 47.0962 9.08597 47.0763 9.40437L46.9951 10.7062C46.956 11.3585 47.154 12.0047 47.5602 12.5509L48.3618 13.6237C48.5624 13.8917 48.6693 14.2057 48.6693 14.5269C48.6693 14.848 48.5624 15.1621 48.3618 15.43L47.56 16.503C47.1539 17.0491 46.9559 17.6954 46.9949 18.3477L47.0762 19.6495C47.096 19.9679 47.0103 20.2845 46.8295 20.5605C46.6486 20.8366 46.3805 21.0602 46.0579 21.204L44.7523 21.7862C44.093 22.0783 43.5581 22.5502 43.2269 23.1318L42.5672 24.2843C42.4038 24.5685 42.1503 24.8048 41.8375 24.9643C41.5247 25.1237 41.1662 25.1996 40.8055 25.1826L39.33 25.1109C38.5908 25.0764 37.8583 25.2511 37.2393 25.6094L36.0233 26.3169C35.7196 26.4938 35.3637 26.5882 34.9998 26.5882C34.6359 26.5882 34.28 26.4938 33.9764 26.3169L32.7603 25.6094C32.1944 25.2819 31.5325 25.1071 30.8557 25.1064C30.7938 25.1064 30.7316 25.1078 30.6697 25.1109L29.1943 25.1826C28.8335 25.2002 28.4746 25.1246 28.1617 24.965C27.8488 24.8055 27.5954 24.5688 27.4326 24.2841L26.7729 23.1318C26.4417 22.5502 25.9068 22.0784 25.2477 21.7862L23.9417 21.2041ZM34.2031 57.1164L15.6093 49.167V36.7647L30.3478 43.6892C30.4595 43.7431 30.5848 43.7713 30.7121 43.7712C30.7928 43.7712 30.873 43.7599 30.9497 43.7378C31.0506 43.7093 31.1441 43.6631 31.2244 43.6021C31.3047 43.541 31.3703 43.4664 31.4173 43.3825L34.2031 38.4625V57.1164ZM34.9972 34.6985L23.2642 29.5286C22.9057 29.3708 22.471 29.4145 22.2474 29.766C22.1844 29.849 22.142 29.9428 22.1233 30.0413C22.1045 30.1398 22.1098 30.2407 22.1387 30.3373C22.1676 30.4339 22.2195 30.5239 22.2909 30.6014C22.3623 30.6789 22.4516 30.7421 22.5529 30.7868L33.93 35.7994L30.3543 42.1095L11.2426 33.142L14.7062 27.3283L17.7609 28.6744C17.95 28.7578 18.1688 28.7714 18.3693 28.7123C18.5698 28.6533 18.7354 28.5263 18.8298 28.3595C18.9243 28.1927 18.9397 27.9996 18.8728 27.8227C18.8058 27.6458 18.662 27.4996 18.4729 27.4163L16.4336 26.5177L25.3984 23.8505L26.01 24.9185C26.3123 25.4472 26.7829 25.8867 27.364 26.1831C27.9452 26.4794 28.6117 26.6197 29.2818 26.5869L30.7574 26.5153C31.1554 26.497 31.5497 26.591 31.883 26.7837L33.099 27.4912C33.663 27.8198 34.324 27.995 34.9998 27.995C35.6757 27.995 36.3366 27.8198 36.9006 27.4912L38.1167 26.7837C38.4499 26.5908 38.8442 26.4968 39.2423 26.5153L40.7178 26.5869C41.388 26.6197 42.0544 26.4793 42.6356 26.183C43.2167 25.8866 43.6873 25.4472 43.9896 24.9185L44.6224 23.8136L53.5713 26.5132L34.9972 34.6985ZM54.3906 49.167L35.7968 57.1164V38.4625L38.585 43.383C38.6511 43.4998 38.7529 43.598 38.8787 43.6667C39.0046 43.7353 39.1497 43.7717 39.2976 43.7717C39.4218 43.7717 39.5439 43.7435 39.6521 43.6897L54.3906 36.7647V49.167ZM39.6451 42.1092L36.0692 35.7989L55.2937 27.3283L58.7571 33.1419L39.6451 42.1092Z" fill="#8D6C52"/>
<path d="M17.6016 39.377C17.3902 39.377 17.1875 39.451 17.0381 39.5829C16.8886 39.7148 16.8047 39.8936 16.8047 40.0801V40.7096C16.8047 40.8961 16.8886 41.0749 17.0381 41.2068C17.1875 41.3387 17.3902 41.4127 17.6016 41.4127C17.8129 41.4127 18.0156 41.3387 18.165 41.2068C18.3145 41.0749 18.3984 40.8961 18.3984 40.7096V40.0801C18.3984 39.8936 18.3145 39.7148 18.165 39.5829C18.0156 39.451 17.8129 39.377 17.6016 39.377Z" fill="#8D6C52"/>
<path d="M17.6016 42.262C17.3902 42.262 17.1875 42.3361 17.0381 42.468C16.8886 42.5998 16.8047 42.7787 16.8047 42.9651V47.7169C16.8047 47.9033 16.8886 48.0822 17.0381 48.2141C17.1875 48.3459 17.3902 48.42 17.6016 48.42C17.8129 48.42 18.0156 48.3459 18.165 48.2141C18.3145 48.0822 18.3984 47.9033 18.3984 47.7169V42.9651C18.3984 42.7787 18.3145 42.5998 18.165 42.468C18.0156 42.3361 17.8129 42.262 17.6016 42.262Z" fill="#8D6C52"/>
</svg>
