<svg width="68" height="60" viewBox="0 0 68 60" fill="none" xmlns="http://www.w3.org/2000/svg">
<path d="M24.8135 33.1641H33.545C33.7563 33.1641 33.959 33.09 34.1084 32.9581C34.2579 32.8263 34.3418 32.6474 34.3418 32.4609C34.3418 32.2745 34.2579 32.0956 34.1084 31.9638C33.959 31.8319 33.7563 31.7578 33.545 31.7578H24.8135C24.6021 31.7578 24.3994 31.8319 24.25 31.9638C24.1006 32.0956 24.0166 32.2745 24.0166 32.4609C24.0166 32.6474 24.1006 32.8263 24.25 32.9581C24.3994 33.09 24.6021 33.1641 24.8135 33.1641Z" fill="#8D6C52"/>
<path d="M24.8135 37.1484H45.5293C45.7406 37.1484 45.9433 37.0744 46.0928 36.9425C46.2422 36.8106 46.3262 36.6318 46.3262 36.4453C46.3262 36.2588 46.2422 36.08 46.0928 35.9481C45.9433 35.8163 45.7406 35.7422 45.5293 35.7422H24.8135C24.6021 35.7422 24.3994 35.8163 24.25 35.9481C24.1006 36.08 24.0166 36.2588 24.0166 36.4453C24.0166 36.6318 24.1006 36.8106 24.25 36.9425C24.3994 37.0744 24.6021 37.1484 24.8135 37.1484Z" fill="#8D6C52"/>
<path d="M45.5293 41.0156C45.7406 41.0156 45.9433 40.9415 46.0928 40.8097C46.2422 40.6778 46.3262 40.499 46.3262 40.3125C46.3262 40.126 46.2422 39.9472 46.0928 39.8153C45.9433 39.6835 45.7406 39.6094 45.5293 39.6094H24.8135C24.6021 39.6094 24.3994 39.6835 24.25 39.8153C24.1006 39.9472 24.0166 40.126 24.0166 40.3125C24.0166 40.499 24.1006 40.6778 24.25 40.8097C24.3994 40.9415 24.6021 41.0156 24.8135 41.0156H45.5293Z" fill="#8D6C52"/>
<path d="M55.2263 13.0919C55.2127 12.9128 55.1236 12.7447 54.9765 12.6207C54.8294 12.4967 54.6349 12.4258 54.4315 12.4221H44.4294V9.61426C44.4294 7.43865 43.4499 5.35216 41.7064 3.81377C39.9629 2.27539 37.5982 1.41113 35.1326 1.41113C32.6669 1.41113 30.3022 2.27539 28.5587 3.81377C26.8152 5.35216 25.8357 7.43865 25.8357 9.61426V12.4221H15.9105C15.7081 12.4259 15.5147 12.496 15.3678 12.6188C15.2209 12.7416 15.1311 12.9083 15.116 13.0864L11.6919 51.1106C11.682 51.2231 11.702 51.3361 11.7505 51.4406L14.9091 58.1503C14.9689 58.2797 15.0705 58.3908 15.2014 58.4697C15.3322 58.5486 15.4864 58.5918 15.6448 58.5939H54.6972C54.8607 58.5921 55.0198 58.5465 55.1533 58.463C55.2867 58.3796 55.3882 58.2623 55.4444 58.1267L58.26 51.4236C58.2995 51.3258 58.3157 51.2219 58.3075 51.1183L55.2263 13.0919ZM27.4294 9.61426C27.4294 7.81161 28.241 6.0828 29.6856 4.80814C31.1302 3.53348 33.0896 2.81738 35.1326 2.81738C37.1756 2.81738 39.1349 3.53348 40.5795 4.80814C42.0241 6.0828 42.8357 7.81161 42.8357 9.61426V12.4221H27.4294V9.61426ZM24.906 51.9143H56.3523L54.1428 57.1877H16.1764L13.6981 51.9143H19.5935C19.8048 51.9143 20.0075 51.8402 20.157 51.7083C20.3064 51.5765 20.3904 51.3976 20.3904 51.2111C20.3904 51.0247 20.3064 50.8458 20.157 50.7139C20.0075 50.5821 19.8048 50.508 19.5935 50.508H13.3457L16.6465 13.8283H25.8357V24.1952C25.8357 24.3817 25.9196 24.5605 26.0691 24.6924C26.2185 24.8242 26.4212 24.8983 26.6326 24.8983C26.8439 24.8983 27.0466 24.8242 27.196 24.6924C27.3455 24.5605 27.4294 24.3817 27.4294 24.1952V13.8283H42.8357V24.1952C42.8357 24.3817 42.9196 24.5605 43.0691 24.6924C43.2185 24.8242 43.4212 24.8983 43.6326 24.8983C43.8439 24.8983 44.0466 24.8242 44.196 24.6924C44.3455 24.5605 44.4294 24.3817 44.4294 24.1952V13.8283H53.6896L56.6603 50.508H24.906C24.6946 50.508 24.492 50.5821 24.3425 50.7139C24.1931 50.8458 24.1091 51.0247 24.1091 51.2111C24.1091 51.3976 24.1931 51.5765 24.3425 51.7083C24.492 51.8402 24.6946 51.9143 24.906 51.9143Z" fill="#8D6C52"/>
<path d="M19.0195 22.8822C18.9152 22.8747 18.8103 22.8855 18.7107 22.9139C18.6111 22.9423 18.5189 22.9877 18.4393 23.0476C18.3596 23.1074 18.2941 23.1806 18.2465 23.2628C18.1989 23.345 18.1702 23.4347 18.1619 23.5267L18.0748 24.4925C18.058 24.6784 18.1257 24.8626 18.2628 25.0045C18.4 25.1463 18.5954 25.2343 18.806 25.2491C18.8275 25.2506 18.8489 25.2515 18.8702 25.2515C19.0704 25.2512 19.2633 25.1845 19.4103 25.0645C19.5573 24.9446 19.6477 24.7801 19.6636 24.604L19.7507 23.6381C19.7673 23.4523 19.6995 23.2684 19.5624 23.1266C19.4253 22.9848 19.23 22.8969 19.0195 22.8822Z" fill="#8D6C52"/>
<path d="M18.7053 26.3675C18.601 26.3601 18.496 26.3709 18.3964 26.3993C18.2968 26.4278 18.2045 26.4732 18.1249 26.5332C18.0452 26.5931 17.9798 26.6663 17.9322 26.7486C17.8847 26.8309 17.856 26.9207 17.8478 27.0127L17.088 35.4495C17.0797 35.5416 17.092 35.6342 17.1242 35.722C17.1565 35.8099 17.2081 35.8913 17.276 35.9615C17.3439 36.0318 17.4268 36.0896 17.52 36.1316C17.6132 36.1735 17.7149 36.1989 17.8192 36.2062C17.8407 36.2078 17.862 36.2085 17.8832 36.2085C18.0835 36.2083 18.2764 36.1416 18.4234 36.0216C18.5705 35.9016 18.6609 35.7372 18.6768 35.561L19.4365 27.1242C19.4532 26.9383 19.3856 26.7541 19.2485 26.6122C19.1114 26.4703 18.916 26.3823 18.7053 26.3675Z" fill="#8D6C52"/>
</svg>
