<svg width="68" height="60" viewBox="0 0 68 60" fill="none" xmlns="http://www.w3.org/2000/svg">
<path d="M57.8945 12.3047H61.2504C61.4618 12.3047 61.6645 12.2306 61.8139 12.0987C61.9634 11.9669 62.0473 11.788 62.0473 11.6016C62.0473 11.4151 61.9634 11.2362 61.8139 11.1044C61.6645 10.9725 61.4618 10.8984 61.2504 10.8984H57.8945C57.6832 10.8984 57.4805 10.9725 57.3311 11.1044C57.1816 11.2362 57.0977 11.4151 57.0977 11.6016C57.0977 11.788 57.1816 11.9669 57.3311 12.0987C57.4805 12.2306 57.6832 12.3047 57.8945 12.3047Z" fill="#8D6C52"/>
<path d="M49.4897 12.3047H54.6143C54.8257 12.3047 55.0283 12.2306 55.1778 12.0987C55.3272 11.9669 55.4112 11.788 55.4112 11.6016C55.4112 11.4151 55.3272 11.2362 55.1778 11.1044C55.0283 10.9725 54.8257 10.8984 54.6143 10.8984H49.4897C49.2784 10.8984 49.0757 10.9725 48.9263 11.1044C48.7768 11.2362 48.6929 11.4151 48.6929 11.6016C48.6929 11.788 48.7768 11.9669 48.9263 12.0987C49.0757 12.2306 49.2784 12.3047 49.4897 12.3047Z" fill="#8D6C52"/>
<path d="M61.2504 13.8281H54.5386C54.3272 13.8281 54.1245 13.9022 53.9751 14.0341C53.8257 14.1659 53.7417 14.3448 53.7417 14.5312C53.7417 14.7177 53.8257 14.8966 53.9751 15.0284C54.1245 15.1603 54.3272 15.2344 54.5386 15.2344H61.2504C61.4617 15.2344 61.6644 15.1603 61.8139 15.0284C61.9633 14.8966 62.0473 14.7177 62.0473 14.5312C62.0473 14.3448 61.9633 14.1659 61.8139 14.0341C61.6644 13.9022 61.4617 13.8281 61.2504 13.8281Z" fill="#8D6C52"/>
<path d="M49.4897 15.2344H51.2584C51.4698 15.2344 51.6724 15.1603 51.8219 15.0284C51.9713 14.8966 52.0553 14.7177 52.0553 14.5312C52.0553 14.3448 51.9713 14.1659 51.8219 14.0341C51.6724 13.9022 51.4698 13.8281 51.2584 13.8281H49.4897C49.2784 13.8281 49.0757 13.9022 48.9263 14.0341C48.7768 14.1659 48.6929 14.3448 48.6929 14.5312C48.6929 14.7177 48.7768 14.8966 48.9263 15.0284C49.0757 15.1603 49.2784 15.2344 49.4897 15.2344Z" fill="#8D6C52"/>
<path d="M61.2501 16.875H57.3477C57.1363 16.875 56.9336 16.9491 56.7842 17.0809C56.6347 17.2128 56.5508 17.3916 56.5508 17.5781C56.5508 17.7646 56.6347 17.9434 56.7842 18.0753C56.9336 18.2072 57.1363 18.2812 57.3477 18.2812H61.2501C61.4614 18.2812 61.6641 18.2072 61.8136 18.0753C61.963 17.9434 62.047 17.7646 62.047 17.5781C62.047 17.3916 61.963 17.2128 61.8136 17.0809C61.6641 16.9491 61.4614 16.875 61.2501 16.875Z" fill="#8D6C52"/>
<path d="M49.4897 18.2812H54.0678C54.2791 18.2812 54.4818 18.2072 54.6313 18.0753C54.7807 17.9434 54.8647 17.7646 54.8647 17.5781C54.8647 17.3916 54.7807 17.2128 54.6313 17.0809C54.4818 16.9491 54.2791 16.875 54.0678 16.875H49.4897C49.2784 16.875 49.0757 16.9491 48.9263 17.0809C48.7768 17.2128 48.6929 17.3916 48.6929 17.5781C48.6929 17.7646 48.7768 17.9434 48.9263 18.0753C49.0757 18.2072 49.2784 18.2812 49.4897 18.2812Z" fill="#8D6C52"/>
<path d="M35.2606 21.0202C35.3194 21.1509 35.4229 21.2621 35.5568 21.3383C35.6906 21.4145 35.8481 21.452 36.0073 21.4455H46.0513C46.2157 21.4514 46.3778 21.4107 46.5139 21.3293C46.65 21.2479 46.7529 21.13 46.8074 20.9931L47.5973 18.9117C47.6319 18.8265 47.6447 18.7357 47.6346 18.6456L46.7704 10.3403C46.751 10.1683 46.6582 10.0092 46.5109 9.89532C46.3635 9.78139 46.1726 9.72113 45.9768 9.72674H44.1645V8.9751C44.1645 8.22918 43.8287 7.51381 43.2309 6.98636C42.6331 6.45891 41.8224 6.1626 40.977 6.1626C40.1316 6.1626 39.3208 6.45891 38.7231 6.98636C38.1253 7.51381 37.7895 8.22918 37.7895 8.9751V9.72674H36.0818C35.8873 9.72116 35.6977 9.78053 35.5507 9.89299C35.4038 10.0054 35.3103 10.1627 35.289 10.3333L34.3288 18.6459C34.3164 18.7511 34.3322 18.8574 34.3749 18.9563L35.2606 21.0202ZM45.4765 20.0392H36.5606L36.2692 19.4533H45.7364L45.4765 20.0392ZM39.3832 8.9751C39.3832 8.60214 39.5511 8.24445 39.85 7.98073C40.1489 7.71701 40.5543 7.56885 40.977 7.56885C41.3997 7.56885 41.805 7.71701 42.1039 7.98073C42.4028 8.24445 42.5707 8.60214 42.5707 8.9751V9.72674H39.3832V8.9751ZM36.8016 11.133H37.7895V12.1195C37.7895 12.306 37.8734 12.4848 38.0229 12.6167C38.1723 12.7485 38.375 12.8226 38.5864 12.8226C38.7977 12.8226 39.0004 12.7485 39.1498 12.6167C39.2993 12.4848 39.3832 12.306 39.3832 12.1195V11.133H42.5707V12.1195C42.5707 12.306 42.6547 12.4848 42.8041 12.6167C42.9536 12.7485 43.1563 12.8226 43.3676 12.8226C43.5789 12.8226 43.7816 12.7485 43.9311 12.6167C44.0805 12.4848 44.1645 12.306 44.1645 12.1195V11.133H45.2497L45.9678 18.0471H36.0037L36.8016 11.133Z" fill="#8D6C52"/>
<path d="M16.1406 22.5117C15.9293 22.5117 15.7266 22.5858 15.5771 22.7177C15.4277 22.8495 15.3438 23.0284 15.3438 23.2148V23.9531C15.3438 24.1396 15.4277 24.3184 15.5771 24.4503C15.7266 24.5822 15.9293 24.6562 16.1406 24.6562C16.352 24.6562 16.5547 24.5822 16.7041 24.4503C16.8535 24.3184 16.9375 24.1396 16.9375 23.9531V23.2148C16.9375 23.0284 16.8535 22.8495 16.7041 22.7177C16.5547 22.5858 16.352 22.5117 16.1406 22.5117Z" fill="#8D6C52"/>
<path d="M16.1406 25.4756C15.9293 25.4756 15.7266 25.5497 15.5771 25.6815C15.4277 25.8134 15.3438 25.9922 15.3438 26.1787V31.9209C15.3438 32.1074 15.4277 32.2862 15.5771 32.4181C15.7266 32.5499 15.9293 32.624 16.1406 32.624C16.352 32.624 16.5547 32.5499 16.7041 32.4181C16.8535 32.2862 16.9375 32.1074 16.9375 31.9209V26.1787C16.9375 25.9922 16.8535 25.8134 16.7041 25.6815C16.5547 25.5497 16.352 25.4756 16.1406 25.4756Z" fill="#8D6C52"/>
<path d="M64.086 48.943V24.8906C64.6808 24.635 65.1827 24.2375 65.5347 23.7432C65.8868 23.249 66.0751 22.6776 66.0782 22.0938V6.67102C66.0782 4.95375 64.4948 3.51562 62.5486 3.51562H34.5127C32.5664 3.51562 31.0157 4.95375 31.0157 6.67102V14.8828H10.3963C9.87942 14.8805 9.3671 14.9682 8.88867 15.1408C8.41023 15.3135 7.97508 15.5676 7.6081 15.8888C7.24113 16.21 6.94954 16.5919 6.75003 17.0126C6.55052 17.4334 6.447 17.8847 6.4454 18.3408V48.8762C4.18759 49.0051 2.31493 50.6732 2.32622 52.6951C2.3324 53.6968 2.78539 54.656 3.58713 55.3652C4.38888 56.0744 5.47488 56.4764 6.61009 56.4844H63.3901C63.9556 56.4815 64.5149 56.3799 65.0357 56.1854C65.5565 55.9909 66.0285 55.7073 66.4245 55.3511C66.8205 54.9949 67.1327 54.573 67.3431 54.1098C67.5534 53.6466 67.6578 53.1513 67.6502 52.6523C67.6426 50.8271 66.0782 49.2945 64.086 48.943ZM32.6095 6.67102C32.6095 5.72918 33.4453 4.92188 34.5127 4.92188H62.5486C63.0665 4.93181 63.5594 5.12057 63.9214 5.44761C64.2833 5.77466 64.4855 6.2139 64.4845 6.67102V22.0941C64.4867 22.3183 64.4381 22.5407 64.3414 22.7481C64.2447 22.9555 64.102 23.1437 63.9216 23.3017C63.7411 23.4597 63.5267 23.5842 63.2909 23.6679C63.0551 23.7516 62.8027 23.7928 62.5486 23.7891H53.3314C53.165 23.7897 53.0005 23.8203 52.8479 23.8789C52.6953 23.9375 52.5578 24.0229 52.4438 24.1298C52.3272 24.2385 52.2365 24.3668 52.177 24.5069C52.1175 24.6471 52.0905 24.7964 52.0976 24.9459C52.224 27.5786 50.7263 28.9351 49.5833 29.5814C49.6129 29.3438 49.6376 29.0857 49.6512 28.8142C49.734 27.1703 49.3873 25.8919 48.6208 25.0267C47.8962 24.2095 46.8476 23.7891 45.5025 23.7891H34.5127C34.261 23.7897 34.0117 23.7462 33.7793 23.6611C33.5469 23.5759 33.336 23.4508 33.1589 23.2931C32.9818 23.1354 32.842 22.9481 32.7477 22.7423C32.6534 22.5364 32.6064 22.3161 32.6095 22.0941V6.67102ZM66.0094 53.1976C65.8739 53.7243 65.5422 54.1957 65.0674 54.5366C64.5926 54.8775 64.0021 55.0681 63.3901 55.0781H6.71103C5.31504 55.0781 4.09741 54.1741 3.94003 52.9502C3.89648 52.6164 3.93281 52.2781 4.04667 51.9574C4.16053 51.6367 4.34939 51.3407 4.60103 51.0884C4.85268 50.8361 5.16151 50.6332 5.50758 50.4929C5.85364 50.3525 6.22924 50.2777 6.61009 50.2734H13.4845C13.6958 50.2734 13.8985 50.1994 14.0479 50.0675C14.1974 49.9356 14.2813 49.7568 14.2813 49.5703C14.2813 49.3838 14.1974 49.205 14.0479 49.0731C13.8985 48.9413 13.6958 48.8672 13.4845 48.8672H8.03915V18.3408C8.04047 18.0693 8.10257 17.8007 8.22189 17.5505C8.34121 17.3003 8.51539 17.0733 8.73443 16.8826C8.95346 16.692 9.21304 16.5414 9.49824 16.4395C9.78344 16.3377 10.0886 16.2865 10.3963 16.2891H31.0157V19.6875H12.4711C12.2469 19.6881 12.0321 19.7669 11.8736 19.9068C11.7151 20.0467 11.6258 20.2362 11.6251 20.434V46.2257C11.6285 46.3175 11.6524 46.4079 11.6954 46.4917C11.7385 46.5754 11.7998 46.6508 11.8758 46.7136C11.9519 46.7764 12.0413 46.8254 12.1388 46.8577C12.2364 46.89 12.3401 46.9051 12.4443 46.902L58.1052 46.9922H58.1635C58.3448 46.995 58.5205 46.9363 58.6541 46.8281C58.7328 46.7676 58.796 46.6929 58.8395 46.6092C58.883 46.5254 58.9058 46.4345 58.9065 46.3424V33.8672C58.9065 33.6807 58.8225 33.5019 58.6731 33.37C58.5236 33.2381 58.3209 33.1641 58.1096 33.1641C57.8983 33.1641 57.6956 33.2381 57.5461 33.37C57.3967 33.5019 57.3127 33.6807 57.3127 33.8672V45.6377L37.9221 45.5879V43.3887C37.9221 43.3692 37.9143 43.3498 37.9125 43.3301C37.8417 42.6165 37.5654 41.9307 37.1098 41.3378C36.6542 40.7449 36.0345 40.2646 35.3094 39.9424C35.2822 39.928 35.2538 39.9156 35.2244 39.9052L30.3517 38.4485V37.9782C31.1678 37.5235 31.855 36.9097 32.3602 36.184C32.8655 35.4583 33.1754 34.64 33.2662 33.7921C33.618 33.6285 33.912 33.3829 34.1164 33.082C34.3208 32.781 34.4276 32.4364 34.4253 32.0856C34.424 31.9308 34.4017 31.7768 34.3589 31.6267C34.3006 31.4131 34.1934 31.2123 34.0439 31.0367C33.8944 30.861 33.7058 30.7142 33.4896 30.6053L33.5757 29.4898C33.6375 28.6984 33.5143 27.9042 33.2136 27.1567C32.9129 26.4091 32.4411 25.7241 31.8277 25.1442C31.2142 24.5643 30.4722 24.1019 29.6476 23.7858C28.8231 23.4696 27.9337 23.3065 27.0347 23.3065C26.1356 23.3065 25.2462 23.4696 24.4217 23.7858C23.5971 24.1019 22.8551 24.5643 22.2416 25.1442C21.6282 25.7241 21.1564 26.4091 20.8557 27.1567C20.555 27.9042 20.4318 28.6984 20.4936 29.4898L20.5805 30.603C20.3637 30.7119 20.1745 30.8589 20.0247 31.035C19.8749 31.211 19.7677 31.4123 19.7098 31.6264C19.6682 31.7767 19.6472 31.9307 19.6472 32.0854C19.6425 32.4357 19.7472 32.7804 19.95 33.0817C20.1527 33.3829 20.4457 33.6291 20.7966 33.793C20.8871 34.6412 21.1969 35.4597 21.7022 36.1856C22.2074 36.9116 22.8947 37.5256 23.711 37.9805V38.4485L18.8368 39.9055C18.8054 39.916 18.775 39.9284 18.7457 39.9429C18.0209 40.2652 17.4015 40.7456 16.9463 41.3385C16.4911 41.9314 16.2152 42.6171 16.1448 43.3305C16.1431 43.35 16.1406 43.3695 16.1406 43.3891V45.5326L13.2187 45.5251V21.0938H31.0157V22.0941C31.0128 22.5007 31.1012 22.9038 31.2757 23.2802C31.4502 23.6566 31.7074 23.9988 32.0325 24.2871C32.3575 24.5753 32.744 24.804 33.1697 24.9599C33.5954 25.1158 34.0518 25.1958 34.5127 25.1953H45.5025C46.3429 25.1953 46.9518 25.4276 47.364 25.8918C48.4428 27.1071 48.0266 29.7103 47.7757 30.6089C47.7464 30.7127 47.7442 30.821 47.7693 30.9256C47.7944 31.0302 47.8462 31.1284 47.9207 31.2128C47.9953 31.2971 48.0906 31.3654 48.1994 31.4124C48.3083 31.4594 48.4279 31.484 48.5491 31.4842C48.6192 31.4845 48.689 31.4766 48.7567 31.4607C49.7095 31.1912 50.5878 30.7485 51.335 30.1611C52.4373 29.3023 53.7168 27.7739 53.699 25.1958H57.3126V29.1802C57.3126 29.3666 57.3965 29.5455 57.546 29.6773C57.6954 29.8092 57.8981 29.8833 58.1095 29.8833C58.3208 29.8833 58.5235 29.8092 58.6729 29.6773C58.8224 29.5455 58.9063 29.3666 58.9063 29.1802V25.1953H62.4923V48.8672H44.0782C43.4476 48.8715 42.8444 49.0956 42.4001 49.4905C41.9558 49.8855 41.7064 50.4194 41.7062 50.9759C41.7078 51.0672 41.689 51.158 41.6507 51.2429C41.6124 51.3279 41.5555 51.4053 41.4832 51.4707C41.4108 51.5361 41.3245 51.5883 41.2293 51.6241C41.134 51.66 41.0316 51.6789 40.928 51.6797H28.3271C28.2235 51.6789 28.1211 51.66 28.0258 51.6241C27.9305 51.5882 27.8442 51.5361 27.7719 51.4707C27.6995 51.4052 27.6426 51.3278 27.6043 51.2429C27.566 51.1579 27.5471 51.0671 27.5488 50.9757C27.5485 50.4193 27.2991 49.8854 26.8548 49.4905C26.4105 49.0956 25.8074 48.8715 25.1767 48.8672H18.797C18.5856 48.8672 18.3829 48.9413 18.2335 49.0731C18.084 49.205 18.0001 49.3838 18.0001 49.5703C18.0001 49.7568 18.084 49.9356 18.2335 50.0675C18.3829 50.1994 18.5856 50.2734 18.797 50.2734H25.1767C25.2803 50.2742 25.3827 50.2931 25.478 50.329C25.5733 50.3649 25.6596 50.417 25.7319 50.4824C25.8042 50.5479 25.8612 50.6253 25.8995 50.7102C25.9378 50.7951 25.9567 50.8859 25.955 50.9773C25.9552 51.5338 26.2046 52.0676 26.6489 52.4626C27.0932 52.8576 27.6964 53.0816 28.3271 53.0859H40.928C41.5587 53.0816 42.1618 52.8575 42.6061 52.4626C43.0504 52.0676 43.2998 51.5337 43.2999 50.9773C43.2983 50.8859 43.3172 50.7951 43.3555 50.7102C43.3938 50.6253 43.4507 50.5479 43.5231 50.4824C43.5954 50.417 43.6817 50.3649 43.777 50.329C43.8723 50.2931 43.9746 50.2742 44.0782 50.2734H63.3901C63.7958 50.2754 64.1958 50.3579 64.5604 50.5148C64.9251 50.6717 65.245 50.899 65.4966 51.1798C65.7481 51.4607 65.9249 51.7879 66.0136 52.1371C66.1024 52.4864 66.101 52.8489 66.0094 53.1976ZM17.7345 45.5362V43.4196C17.7542 43.0157 17.8945 42.6235 18.1414 42.2829C18.4879 42.8494 18.6676 43.4835 18.6642 44.1272V45.5391L17.7345 45.5362ZM19.3149 41.2666C19.3453 41.2515 19.3619 41.2356 19.3929 41.2213L23.7108 39.9322V45.5515L20.2576 45.5426V44.127C20.2633 43.1132 19.9359 42.1196 19.3149 41.2666ZM23.5054 32.1415C23.5988 32.081 23.6764 32.0035 23.733 31.9143C23.7897 31.8252 23.824 31.7263 23.8337 31.6245L23.9786 30.026C24.8647 30.0893 25.7556 29.9765 26.5858 29.6959C27.4159 29.4153 28.1642 28.974 28.7756 28.4046C29.6414 29.08 30.2513 29.9737 30.5228 30.9648L30.7871 31.9257C30.815 32.027 30.8679 32.1215 30.9422 32.2024C31.0165 32.2834 31.1102 32.3488 31.2166 32.3939C31.323 32.439 31.4395 32.4626 31.5575 32.4632C31.6755 32.4637 31.7923 32.4411 31.8992 32.397L32.814 32.0195L32.8171 32.018C32.8204 32.0402 32.8222 32.0626 32.8222 32.085C32.8226 32.207 32.7742 32.3252 32.6856 32.4188C32.5969 32.5124 32.4737 32.5754 32.3376 32.5968C32.1525 32.6273 31.9853 32.7141 31.8651 32.8421C31.7449 32.97 31.6794 33.1311 31.6798 33.2973C31.6825 33.8376 31.5641 34.373 31.3315 34.8728C31.0989 35.3726 30.7567 35.8269 30.3245 36.2096C29.8922 36.5923 29.3786 36.8959 28.8129 37.1029C28.2473 37.3099 27.6409 37.4162 27.0286 37.4157C26.4163 37.4152 25.8101 37.3079 25.2449 37.1001C24.6797 36.8922 24.1666 36.5879 23.7352 36.2045C23.3037 35.8211 22.9624 35.3662 22.7308 34.8661C22.4992 34.3659 22.3819 33.8303 22.3857 33.29C22.3857 33.1246 22.3196 32.9645 22.199 32.8378C22.0784 32.7111 21.9111 32.626 21.7264 32.5975C21.5902 32.5763 21.4667 32.5134 21.3779 32.4198C21.289 32.3262 21.2405 32.208 21.2407 32.0859C21.2407 32.044 21.2463 32.0022 21.2576 31.9615V31.9608C21.269 31.9664 21.2795 31.9733 21.2912 31.9786C21.3488 32.0046 21.4098 32.0243 21.4729 32.0372C22.9897 32.3516 23.1988 32.3391 23.5057 32.1415H23.5054ZM23.4053 26.104C24.1048 25.4428 25.0193 24.9889 26.023 24.8049C27.0267 24.6208 28.0704 24.7155 29.0106 25.076C29.9509 25.4365 30.7415 26.0451 31.2738 26.8181C31.8062 27.5912 32.0542 28.4907 31.9837 29.3931L31.923 30.169C31.4272 28.8163 30.4339 27.6484 29.1006 26.8504C28.9282 26.747 28.7168 26.7074 28.5116 26.7399C28.3065 26.7725 28.124 26.8746 28.0033 27.0245C27.5554 27.5795 26.9482 28.0193 26.244 28.2988C25.5399 28.5783 24.7641 28.6875 23.9963 28.6151L23.5628 28.5739C23.4273 28.5611 23.2902 28.5723 23.1597 28.607C23.0292 28.6417 22.9078 28.6991 22.8029 28.7758C22.6979 28.8526 22.6114 28.9471 22.5486 29.0538C22.4857 29.1605 22.4477 29.2773 22.4368 29.3972L22.3132 30.7625C22.2716 30.7547 22.2296 30.7467 22.1875 30.7391L22.0822 29.3937C22.0324 28.7944 22.1243 28.1924 22.3521 27.6261C22.5799 27.0598 22.9387 26.5415 23.4056 26.104H23.4053ZM30.3517 39.9328L34.6577 41.2219C34.6986 41.2407 34.7262 41.2612 34.7659 41.2816C34.1429 42.1292 33.8093 43.117 33.8048 44.1272V45.5775L30.3517 45.5685V39.9328ZM25.3048 40.1196V38.599C26.4349 38.8728 27.6279 38.8726 28.7579 38.5983V40.1196C28.2271 40.3712 27.6339 40.5029 27.0313 40.5029C26.4288 40.5029 25.8356 40.3712 25.3048 40.1196ZM28.7579 41.6534V45.5644L25.3048 45.5557V41.6542C26.4232 41.9963 27.6397 41.996 28.7579 41.6534ZM35.3985 45.5816V44.1272C35.402 43.4944 35.5817 42.8721 35.9217 42.315C36.1378 42.651 36.3282 43.0267 36.3282 43.4196V45.5838L35.3985 45.5816Z" fill="#8D6C52"/>
</svg>
