<svg width="58" height="60" viewBox="0 0 58 60" fill="none" xmlns="http://www.w3.org/2000/svg">
<path d="M19.0049 30.3518H20.711V32.0042C20.711 32.1906 20.7826 32.3695 20.9101 32.5013C21.0376 32.6332 21.2104 32.7073 21.3907 32.7073C21.571 32.7073 21.7438 32.6332 21.8713 32.5013C21.9988 32.3695 22.0704 32.1906 22.0704 32.0042V30.3518H23.7336C23.9138 30.3518 24.0867 30.2777 24.2142 30.1459C24.3417 30.014 24.4133 29.8352 24.4133 29.6487C24.4133 29.4622 24.3417 29.2834 24.2142 29.1515C24.0867 29.0196 23.9138 28.9456 23.7336 28.9456H22.0704V27.2378C22.0704 27.0513 21.9988 26.8725 21.8713 26.7406C21.7438 26.6087 21.571 26.5347 21.3907 26.5347C21.2104 26.5347 21.0376 26.6087 20.9101 26.7406C20.7826 26.8725 20.711 27.0513 20.711 27.2378V28.9456H19.0049C18.8246 28.9456 18.6517 29.0196 18.5243 29.1515C18.3968 29.2834 18.3252 29.4622 18.3252 29.6487C18.3252 29.8352 18.3968 30.014 18.5243 30.1459C18.6517 30.2777 18.8246 30.3518 19.0049 30.3518Z" fill="#8D6C52"/>
<path d="M15.0786 29.6208C15.0786 30.9079 15.4476 32.166 16.1388 33.2361C16.83 34.3062 17.8125 35.1403 18.9619 35.6328C20.1113 36.1253 21.3761 36.2542 22.5964 36.0031C23.8166 35.752 24.9374 35.1322 25.8172 34.2222C26.6969 33.3121 27.296 32.1526 27.5388 30.8903C27.7815 29.628 27.6569 28.3196 27.1808 27.1305C26.7047 25.9414 25.8985 24.9251 24.864 24.21C23.8296 23.495 22.6134 23.1133 21.3692 23.1133C19.7014 23.1152 18.1025 23.8015 16.9232 25.0215C15.7439 26.2414 15.0805 27.8955 15.0786 29.6208ZM21.3692 24.5195C22.3445 24.5195 23.2979 24.8187 24.1089 25.3793C24.9198 25.9398 25.5519 26.7365 25.9251 27.6686C26.2983 28.6008 26.396 29.6265 26.2057 30.616C26.0155 31.6056 25.5458 32.5146 24.8562 33.228C24.1665 33.9414 23.2878 34.4273 22.3313 34.6241C21.3747 34.8209 20.3832 34.7199 19.4821 34.3338C18.5811 33.9477 17.8109 33.2939 17.2691 32.455C16.7272 31.6161 16.438 30.6298 16.438 29.6208C16.4395 28.2683 16.9595 26.9717 17.8839 26.0153C18.8084 25.059 20.0618 24.5211 21.3692 24.5195Z" fill="#8D6C52"/>
<path d="M36.5233 31.6897C36.6474 31.8249 36.8183 31.9037 36.9985 31.9085C37.1787 31.9134 37.3534 31.8441 37.4841 31.7157L38.6309 30.5899L39.7777 31.7157C39.8419 31.7819 39.9183 31.8341 40.0023 31.8692C40.0863 31.9044 40.1763 31.9219 40.2669 31.9206C40.3575 31.9193 40.4469 31.8992 40.53 31.8616C40.613 31.824 40.6879 31.7696 40.7503 31.7016C40.8127 31.6336 40.8613 31.5534 40.8933 31.4657C40.9253 31.378 40.94 31.2846 40.9366 31.1909C40.9331 31.0972 40.9116 31.0052 40.8733 30.9202C40.835 30.8352 40.7806 30.7591 40.7134 30.6962L39.6183 29.621L40.7134 28.5459C40.7806 28.483 40.835 28.4068 40.8733 28.3219C40.9116 28.2369 40.9331 28.1449 40.9366 28.0512C40.94 27.9575 40.9253 27.8641 40.8933 27.7763C40.8613 27.6886 40.8127 27.6084 40.7503 27.5404C40.6879 27.4724 40.613 27.418 40.53 27.3804C40.4469 27.3428 40.3575 27.3228 40.2669 27.3215C40.1763 27.3202 40.0863 27.3376 40.0023 27.3728C39.9183 27.408 39.8419 27.4602 39.7777 27.5264L38.6309 28.6522L37.4841 27.5264C37.42 27.46 37.3436 27.4075 37.2595 27.3721C37.1755 27.3368 37.0854 27.3192 36.9947 27.3204C36.9039 27.3216 36.8143 27.3416 36.7312 27.3792C36.648 27.4168 36.573 27.4713 36.5105 27.5393C36.448 27.6074 36.3993 27.6878 36.3673 27.7756C36.3354 27.8635 36.3207 27.9571 36.3243 28.0509C36.3278 28.1447 36.3495 28.2369 36.388 28.3219C36.4265 28.4069 36.4811 28.4831 36.5485 28.5459L37.6436 29.621L36.5485 30.6962C36.4179 30.8245 36.3419 31.0012 36.3372 31.1875C36.3324 31.3738 36.3994 31.5544 36.5233 31.6897Z" fill="#8D6C52"/>
<path d="M38.6307 36.1279C39.8749 36.1279 41.0912 35.7463 42.1257 35.0313C43.1602 34.3162 43.9665 33.2999 44.4427 32.1108C44.9188 30.9217 45.0434 29.6132 44.8007 28.3509C44.558 27.0885 43.9589 25.929 43.0791 25.0189C42.1994 24.1087 41.0785 23.4889 39.8582 23.2378C38.6379 22.9867 37.3731 23.1156 36.2236 23.6082C35.0741 24.1007 34.0917 24.9348 33.4005 26.005C32.7092 27.0752 32.3403 28.3334 32.3403 29.6205C32.3423 31.3457 33.0056 32.9997 34.1849 34.2197C35.3641 35.4396 36.963 36.1259 38.6307 36.1279ZM38.6307 24.5192C39.606 24.5191 40.5595 24.8183 41.3704 25.3788C42.1814 25.9393 42.8135 26.736 43.1868 27.6681C43.56 28.6002 43.6577 29.626 43.4675 30.6155C43.2772 31.6051 42.8076 32.5141 42.118 33.2275C41.4283 33.941 40.5496 34.4269 39.5931 34.6237C38.6365 34.8206 37.645 34.7195 36.7439 34.3335C35.8428 33.9474 35.0726 33.2935 34.5308 32.4546C33.9889 31.6157 33.6997 30.6294 33.6997 29.6205C33.7012 28.268 34.2212 26.9714 35.1456 26.0151C36.07 25.0587 37.3234 24.5207 38.6307 24.5192Z" fill="#8D6C52"/>
<path d="M23.456 42.6038C23.3286 42.472 23.1557 42.3979 22.9755 42.3979C22.7952 42.3979 22.6224 42.472 22.4949 42.6038L19.2372 45.9738C19.1097 46.1056 19.0381 46.2845 19.0381 46.471C19.0381 46.6574 19.1097 46.8363 19.2371 46.9682C19.3646 47.1 19.5375 47.1741 19.7177 47.1741C19.898 47.1742 20.0709 47.1001 20.1984 46.9682L23.456 43.5983C23.5191 43.533 23.5692 43.4555 23.6034 43.3701C23.6375 43.2848 23.6551 43.1934 23.6551 43.101C23.6551 43.0087 23.6375 42.9173 23.6034 42.8319C23.5692 42.7466 23.5191 42.6691 23.456 42.6038Z" fill="#8D6C52"/>
<path d="M21.3692 38.2227C20.1251 38.2226 18.9089 38.6043 17.8744 39.3193C16.8399 40.0343 16.0336 41.0506 15.5575 42.2397C15.0814 43.4287 14.9568 44.7371 15.1995 45.9995C15.4421 47.2618 16.0412 48.4213 16.9209 49.3314C17.8007 50.2415 18.9215 50.8613 20.1417 51.1124C21.362 51.3636 22.6268 51.2347 23.7762 50.7422C24.9257 50.2497 25.9081 49.4157 26.5994 48.3456C27.2906 47.2755 27.6596 46.0174 27.6596 44.7303C27.6578 43.005 26.9944 41.3509 25.8152 40.131C24.6359 38.911 23.037 38.2247 21.3692 38.2227ZM21.3692 49.8313C20.3939 49.8313 19.4405 49.5321 18.6296 48.9716C17.8187 48.4111 17.1866 47.6144 16.8134 46.6822C16.4401 45.7501 16.3425 44.7244 16.5327 43.7349C16.723 42.7453 17.1927 41.8364 17.8823 41.123C18.572 40.4096 19.4506 39.9237 20.4072 39.7269C21.3638 39.5301 22.3553 39.6311 23.2563 40.0173C24.1574 40.4034 24.9275 41.0573 25.4693 41.8962C26.0111 42.7351 26.3003 43.7214 26.3003 44.7303C26.2987 46.0827 25.7787 47.3792 24.8543 48.3355C23.9299 49.2917 22.6765 49.8297 21.3692 49.8313Z" fill="#8D6C52"/>
<path d="M36.2666 45.4688H40.9953C41.1756 45.4688 41.3485 45.3947 41.4759 45.2628C41.6034 45.1309 41.675 44.9521 41.675 44.7656C41.675 44.5791 41.6034 44.4003 41.4759 44.2684C41.3485 44.1366 41.1756 44.0625 40.9953 44.0625H36.2666C36.0863 44.0625 35.9135 44.1366 35.786 44.2684C35.6585 44.4003 35.5869 44.5791 35.5869 44.7656C35.5869 44.9521 35.6585 45.1309 35.786 45.2628C35.9135 45.3947 36.0863 45.4688 36.2666 45.4688Z" fill="#8D6C52"/>
<path d="M38.6307 51.2375C39.8749 51.2375 41.0911 50.8559 42.1256 50.1408C43.1601 49.4258 43.9664 48.4095 44.4425 47.2204C44.9186 46.0313 45.0432 44.7229 44.8005 43.4605C44.5577 42.1982 43.9586 41.0387 43.0789 40.1286C42.1991 39.2185 41.0782 38.5988 39.858 38.3477C38.6377 38.0966 37.3729 38.2255 36.2234 38.7181C35.074 39.2106 34.0916 40.0447 33.4004 41.1149C32.7092 42.1851 32.3403 43.4433 32.3403 44.7303C32.3423 46.4555 33.0057 48.1095 34.1849 49.3294C35.3642 50.5493 36.963 51.2355 38.6307 51.2375ZM38.6307 39.6289C39.606 39.6289 40.5594 39.928 41.3703 40.4885C42.1813 41.049 42.8133 41.8457 43.1866 42.7778C43.5598 43.7099 43.6575 44.7356 43.4672 45.7251C43.277 46.7146 42.8074 47.6236 42.1178 48.337C41.4282 49.0505 40.5496 49.5363 39.593 49.7332C38.6365 49.9301 37.645 49.8291 36.744 49.443C35.8429 49.057 35.0727 48.4032 34.5309 47.5643C33.989 46.7255 33.6998 45.7392 33.6997 44.7303C33.7011 43.3779 34.2211 42.0812 35.1455 41.1248C36.07 40.1685 37.3233 39.6305 38.6307 39.6289Z" fill="#8D6C52"/>
<path d="M20.7232 44.0914C20.9822 43.8235 21.1434 43.4709 21.1793 43.0938C21.2152 42.7167 21.1236 42.3384 20.9202 42.0233C20.7167 41.7083 20.4139 41.476 20.0634 41.3659C19.7128 41.2559 19.3363 41.2751 18.9979 41.4201C18.6595 41.5651 18.3801 41.827 18.2075 42.1611C18.0348 42.4953 17.9795 42.8811 18.0509 43.2527C18.1224 43.6244 18.3162 43.9589 18.5993 44.1993C18.8825 44.4396 19.2374 44.571 19.6037 44.571C19.8117 44.5716 20.0178 44.5295 20.21 44.4472C20.4021 44.3648 20.5766 44.2439 20.7233 44.0913L20.7232 44.0914ZM19.4457 42.7695C19.4664 42.7478 19.4911 42.7305 19.5183 42.7186C19.5455 42.7068 19.5747 42.7007 19.6042 42.7005C19.6338 42.7004 19.663 42.7064 19.6903 42.718C19.7176 42.7296 19.7424 42.7467 19.7632 42.7683C19.7841 42.7899 19.8006 42.8156 19.8119 42.8438C19.8231 42.872 19.8289 42.9023 19.8288 42.9328C19.8287 42.9634 19.8227 42.9936 19.8113 43.0217C19.7998 43.0499 19.7831 43.0754 19.7621 43.0968C19.7414 43.1186 19.7167 43.1358 19.6895 43.1477C19.6623 43.1595 19.6331 43.1656 19.6035 43.1657C19.574 43.1658 19.5448 43.1599 19.5175 43.1482C19.4902 43.1366 19.4654 43.1195 19.4446 43.0979C19.4237 43.0763 19.4072 43.0506 19.3959 43.0224C19.3847 42.9942 19.379 42.9639 19.3791 42.9334C19.3792 42.9028 19.3852 42.8726 19.3966 42.8445C19.4081 42.8163 19.4248 42.7908 19.4458 42.7694L19.4457 42.7695Z" fill="#8D6C52"/>
<path d="M21.9099 45.3188C21.6886 45.5478 21.5378 45.8397 21.4767 46.1573C21.4156 46.475 21.447 46.8043 21.5668 47.1035C21.6866 47.4028 21.8895 47.6586 22.1499 47.8385C22.4102 48.0185 22.7163 48.1145 23.0294 48.1145C23.3425 48.1145 23.6486 48.0185 23.9089 47.8385C24.1693 47.6586 24.3722 47.4028 24.492 47.1035C24.6118 46.8043 24.6432 46.475 24.5821 46.1573C24.521 45.8397 24.3702 45.5478 24.1488 45.3188C23.8517 45.0121 23.4491 44.8398 23.0294 44.8398C22.6097 44.8398 22.2071 45.0121 21.9099 45.3188ZM23.1876 46.6406C23.1564 46.6729 23.1165 46.6949 23.0731 46.7038C23.0298 46.7127 22.9848 46.7081 22.944 46.6905C22.9032 46.673 22.8683 46.6434 22.8437 46.6053C22.8191 46.5673 22.806 46.5226 22.806 46.4769C22.806 46.4311 22.8191 46.3864 22.8437 46.3484C22.8683 46.3103 22.9032 46.2807 22.944 46.2632C22.9848 46.2457 23.0298 46.241 23.0731 46.2499C23.1165 46.2588 23.1564 46.2808 23.1876 46.3131C23.2086 46.3346 23.2252 46.3601 23.2365 46.3882C23.2478 46.4163 23.2537 46.4464 23.2536 46.4769C23.2536 46.5073 23.2478 46.5375 23.2364 46.5656C23.2251 46.5937 23.2085 46.6192 23.1875 46.6406H23.1876Z" fill="#8D6C52"/>
<path d="M45.1797 3.63281H14.9336C13.5516 3.63281 12.2261 4.20075 11.2489 5.21169C10.2717 6.22263 9.72266 7.59375 9.72266 9.02344V50.9766C9.72266 52.4062 10.2717 53.7774 11.2489 54.7883C12.2261 55.7992 13.5516 56.3672 14.9336 56.3672H45.1797C46.5617 56.3672 47.8871 55.7992 48.8644 54.7883C49.8416 53.7774 50.3906 52.4062 50.3906 50.9766V9.02344C50.3906 7.59375 49.8416 6.22263 48.8644 5.21169C47.8871 4.20075 46.5617 3.63281 45.1797 3.63281ZM48.918 19.2188H21.8438C21.6635 19.2188 21.4906 19.2928 21.3631 19.4247C21.2357 19.5566 21.1641 19.7354 21.1641 19.9219C21.1641 20.1084 21.2357 20.2872 21.3631 20.4191C21.4906 20.5509 21.6635 20.625 21.8438 20.625H48.918V50.9665C48.9219 51.488 48.8263 52.0052 48.6366 52.4884C48.447 52.9716 48.167 53.4113 47.8128 53.7824C47.4585 54.1535 47.037 54.4486 46.5723 54.6508C46.1076 54.8531 45.6089 54.9584 45.1048 54.9609H14.8952C14.3911 54.9584 13.8924 54.8531 13.4277 54.6508C12.963 54.4486 12.5415 54.1535 12.1872 53.7824C11.833 53.4113 11.553 52.9716 11.3634 52.4884C11.1737 52.0052 11.0781 51.488 11.082 50.9665V20.625H17.3125C17.4928 20.625 17.6656 20.5509 17.7931 20.4191C17.9206 20.2872 17.9922 20.1084 17.9922 19.9219C17.9922 19.7354 17.9206 19.5566 17.7931 19.4247C17.6656 19.2928 17.4928 19.2188 17.3125 19.2188H11.082V9.03352C11.0781 8.51201 11.1737 7.99484 11.3634 7.51163C11.553 7.02843 11.833 6.58868 12.1872 6.21761C12.5415 5.84654 12.963 5.55142 13.4277 5.34919C13.8924 5.14695 14.3911 5.04156 14.8952 5.03906H45.1048C45.6089 5.04156 46.1076 5.14695 46.5723 5.34919C47.037 5.55142 47.4585 5.84654 47.8128 6.21761C48.167 6.58868 48.447 7.02843 48.6366 7.51163C48.8263 7.99484 48.9219 8.51201 48.918 9.03352V19.2188Z" fill="#8D6C52"/>
<path d="M44.2734 8.55469H15.6133C15.433 8.55469 15.2601 8.62877 15.1327 8.76063C15.0052 8.89249 14.9336 9.07133 14.9336 9.25781V15.9375C14.9336 16.124 15.0052 16.3028 15.1327 16.4347C15.2601 16.5665 15.433 16.6406 15.6133 16.6406H44.2734C44.4537 16.6406 44.6266 16.5665 44.754 16.4347C44.8815 16.3028 44.9531 16.124 44.9531 15.9375V9.25781C44.9531 9.07133 44.8815 8.89249 44.754 8.76063C44.6266 8.62877 44.4537 8.55469 44.2734 8.55469ZM43.707 15.2344H16.293V9.96094H43.707V15.2344Z" fill="#8D6C52"/>
<path d="M13.6875 22.3945C13.5072 22.3945 13.3344 22.4686 13.2069 22.6005C13.0794 22.7323 13.0078 22.9112 13.0078 23.0977V23.8359C13.0078 24.0224 13.0794 24.2013 13.2069 24.3331C13.3344 24.465 13.5072 24.5391 13.6875 24.5391C13.8678 24.5391 14.0406 24.465 14.1681 24.3331C14.2956 24.2013 14.3672 24.0224 14.3672 23.8359V23.0977C14.3672 22.9112 14.2956 22.7323 14.1681 22.6005C14.0406 22.4686 13.8678 22.3945 13.6875 22.3945Z" fill="#8D6C52"/>
<path d="M13.6875 25.3583C13.5072 25.3583 13.3344 25.4324 13.2069 25.5642C13.0794 25.6961 13.0078 25.8749 13.0078 26.0614V35.5536C13.0078 35.7401 13.0794 35.9189 13.2069 36.0508C13.3344 36.1826 13.5072 36.2567 13.6875 36.2567C13.8678 36.2567 14.0406 36.1826 14.1681 36.0508C14.2956 35.9189 14.3672 35.7401 14.3672 35.5536V26.0614C14.3672 25.8749 14.2956 25.6961 14.1681 25.5642C14.0406 25.4324 13.8678 25.3583 13.6875 25.3583Z" fill="#8D6C52"/>
</svg>
