<svg width="65" height="60" viewBox="0 0 65 60" fill="none" xmlns="http://www.w3.org/2000/svg">
<path d="M10.3184 53.2147C10.3184 53.5956 10.4407 53.968 10.67 54.2847C10.8993 54.6015 11.2252 54.8484 11.6065 54.9941C11.9877 55.1399 12.4073 55.1781 12.812 55.1038C13.2168 55.0294 13.5886 54.846 13.8804 54.5766C14.1722 54.3073 14.371 53.9641 14.4515 53.5904C14.532 53.2168 14.4907 52.8295 14.3327 52.4776C14.1748 52.1256 13.9074 51.8248 13.5642 51.6132C13.2211 51.4015 12.8177 51.2886 12.405 51.2886C11.8517 51.2891 11.3214 51.4922 10.9302 51.8533C10.539 52.2144 10.319 52.704 10.3184 53.2147ZM12.9681 53.2147C12.9681 53.3175 12.9351 53.418 12.8732 53.5035C12.8113 53.589 12.7234 53.6556 12.6205 53.6949C12.5176 53.7343 12.4043 53.7446 12.2951 53.7245C12.1859 53.7045 12.0855 53.655 12.0067 53.5823C11.928 53.5096 11.8743 53.4169 11.8526 53.3161C11.8309 53.2152 11.842 53.1107 11.8847 53.0157C11.9273 52.9207 11.9995 52.8396 12.0921 52.7824C12.1847 52.7253 12.2936 52.6948 12.405 52.6948C12.5542 52.6951 12.6971 52.75 12.8026 52.8475C12.908 52.9449 12.9673 53.0769 12.9675 53.2147H12.9681Z" fill="#8D6C52"/>
<path d="M58.3605 3.55219C58.2974 3.43512 58.1999 3.33671 58.0793 3.26812C57.9587 3.19952 57.8196 3.16348 57.6779 3.16407H23.4652C23.3235 3.16348 23.1845 3.19952 23.0638 3.26812C22.9432 3.33671 22.8457 3.43512 22.7826 3.55219L18.3318 11.85C18.2076 11.9796 18.139 12.1466 18.1388 12.3197V37.2321C17.4621 37.609 16.8931 38.13 16.4793 38.7516C16.0656 39.3732 15.8191 40.0772 15.7607 40.8047C15.3347 41.1046 14.8549 41.3329 14.3432 41.4793L14.3408 41.462C14.2653 41.2322 14.1121 41.0307 13.9035 40.8872C13.695 40.7436 13.4421 40.6654 13.182 40.6641H5.22584C5.03837 40.6648 4.85361 40.7054 4.68593 40.7828C4.51826 40.8602 4.37218 40.9723 4.25906 41.1103C4.14595 41.2483 4.06884 41.4085 4.03375 41.5785C3.99866 41.7485 4.00652 41.9236 4.05673 42.0904L8.2604 56.0186C8.33224 56.2538 8.48533 56.4609 8.69641 56.6085C8.90749 56.756 9.165 56.8359 9.42977 56.8359H17.848C18.0374 56.8366 18.2244 56.7962 18.3937 56.718C18.5631 56.6398 18.7102 56.5259 18.8232 56.3855C18.9361 56.2452 19.0118 56.0823 19.044 55.9101C19.0763 55.7378 19.0643 55.5609 19.0089 55.3937L17.913 52.0773L21.8816 49.7619C22.3928 49.5022 22.9917 49.4313 23.5574 49.5634C23.5802 49.5687 23.6033 49.5731 23.6266 49.5764L30.6336 50.5766C32.6468 50.8644 34.7046 50.4648 36.4216 49.4528L50.1455 41.3672H62.2264C62.3218 41.3672 62.4163 41.3498 62.5045 41.3161C62.5927 41.2824 62.6728 41.233 62.7403 41.1707C62.8078 41.1084 62.8613 41.0344 62.8979 40.953C62.9344 40.8716 62.9532 40.7844 62.9532 40.6963V12.5514C63.0117 12.3791 62.996 12.1926 62.9091 12.0308L58.3605 3.55219ZM41.3712 4.57032H57.205L60.979 11.6016H41.3712V4.57032ZM40.5714 13.0459C40.655 13.0458 40.738 13.0329 40.817 13.0078H45.9415V18.0469H35.6583V13.0078H40.3258C40.4049 13.0329 40.4878 13.0457 40.5714 13.0459ZM9.66488 55.4297L5.63387 42.0703H12.9337L17.377 55.4297H9.66488ZM35.602 48.2911C34.1958 49.1153 32.5122 49.4379 30.8667 49.1985L23.8926 48.197C22.9543 47.9859 21.9642 48.1107 21.1215 48.5461C21.1097 48.5523 21.0979 48.5578 21.0863 48.5639L17.448 50.6863L14.7952 42.8086C15.6157 42.5684 16.3722 42.1714 17.0155 41.6435C17.0951 41.5828 17.1593 41.5066 17.2034 41.4203C17.2475 41.3341 17.2705 41.2399 17.2706 41.1445C17.2717 40.7256 17.3624 40.3109 17.5375 39.9243C17.7125 39.5378 17.9685 39.1869 18.2908 38.8919C18.6131 38.5968 18.9953 38.3634 19.4155 38.205C19.8357 38.0466 20.2856 37.9663 20.7395 37.9688H20.9774C21.7201 37.9651 22.4525 37.8086 23.1214 37.5109C23.7904 37.2132 24.3791 36.7816 24.8447 36.2475L27.8625 32.8191C28.1534 32.4852 28.5696 32.2643 29.0286 32.2002C29.4876 32.1361 29.9559 32.2334 30.3408 32.4729L30.3916 32.5009C30.7846 32.7437 31.0684 33.1103 31.1899 33.5321C31.3114 33.954 31.2623 34.4022 31.0518 34.7931C29.8457 37.0062 28.0523 40.3009 28.0523 40.3009C27.9939 40.4123 27.9664 40.5353 27.972 40.6589C27.9777 40.7825 28.0164 40.9029 28.0846 41.0093C28.1515 41.1143 28.2459 41.2021 28.3591 41.2647C28.4724 41.3272 28.6009 41.3625 28.7327 41.3672H47.3961L35.602 48.2911ZM36.0391 39.9609V33.2461L36.543 33.7327C36.6138 33.8011 36.6988 33.8558 36.7929 33.8934C36.887 33.9311 36.9884 33.9509 37.0909 33.9517C37.1933 33.9519 37.2947 33.9334 37.3893 33.8972C37.4839 33.8609 37.5697 33.8078 37.6419 33.7407L38.9705 32.4909L40.2818 33.7383C40.3528 33.8058 40.4378 33.8596 40.5317 33.8962C40.6256 33.9329 40.7265 33.9518 40.8285 33.9518C40.9305 33.9518 41.0314 33.9329 41.1253 33.8962C41.2192 33.8596 41.3042 33.8058 41.3752 33.7383L42.6864 32.4912L44.0146 33.741C44.0864 33.8082 44.1721 33.8615 44.2666 33.8977C44.361 33.9339 44.4624 33.9524 44.5647 33.9519C44.6632 33.9509 44.7604 33.9309 44.85 33.8932C44.9396 33.8555 45.0197 33.8009 45.0852 33.7329L45.5606 33.2461V39.9609H36.0391ZM61.4298 39.9609H47.0841V31.4838C47.0898 31.345 47.0492 31.208 46.9678 31.0911C46.8864 30.9743 46.7682 30.8833 46.629 30.8306C46.4898 30.7778 46.3364 30.7657 46.1896 30.7959C46.0427 30.8262 45.9095 30.8973 45.8078 30.9997L44.5431 32.2356L43.2247 31.0113C43.1533 30.9474 43.0686 30.8975 42.9756 30.8646C42.8827 30.8318 42.7835 30.8167 42.6841 30.8203H42.6821C42.5818 30.8168 42.4819 30.8322 42.3882 30.8655C42.2946 30.8988 42.2093 30.9493 42.1375 31.0139L40.8298 32.2485L39.5222 31.019C39.4507 30.9536 39.3656 30.9023 39.272 30.8681C39.1783 30.834 39.0782 30.8177 38.9776 30.8203H38.9756C38.8757 30.8167 38.776 30.8318 38.6826 30.8646C38.5891 30.8974 38.5038 30.9473 38.4318 31.0113L37.1096 32.2456L35.8387 31.0047C35.7339 30.9017 35.5982 30.8302 35.4489 30.7992C35.2997 30.7682 35.1438 30.7792 35.0014 30.8308C34.859 30.8823 34.7366 30.9721 34.6501 31.0885C34.5635 31.2049 34.5167 31.3426 34.5157 31.4838V39.9609H29.9679C30.5941 38.7891 31.6279 36.8877 32.4125 35.4474C32.789 34.7483 32.8778 33.9468 32.6624 33.1919C32.447 32.4369 31.942 31.7798 31.2413 31.3426L31.1905 31.3054C30.4923 30.8674 29.6413 30.6875 28.8062 30.8014C27.971 30.9152 27.2127 31.3145 26.6814 31.9201L23.6637 35.3602C23.3407 35.732 22.932 36.0328 22.4674 36.2408C22.0027 36.4488 21.4938 36.5587 20.9774 36.5625H20.7395C20.3772 36.5627 20.0161 36.5989 19.6622 36.6704V13.0078H24.3595C24.5615 13.0078 24.7552 12.9337 24.8981 12.8019C25.0409 12.67 25.1212 12.4912 25.1212 12.3047C25.1212 12.1182 25.0409 11.9394 24.8981 11.8075C24.7552 11.6756 24.5615 11.6016 24.3595 11.6016H20.1642L23.9381 4.57032H39.8477V11.6016H29.4376C29.2356 11.6016 29.0418 11.6756 28.899 11.8075C28.7561 11.9394 28.6759 12.1182 28.6759 12.3047C28.6759 12.4912 28.7561 12.67 28.899 12.8019C29.0418 12.9337 29.2356 13.0078 29.4376 13.0078H34.1348V18.7247C34.1333 18.9136 34.2119 19.0956 34.3537 19.2317C34.4956 19.3678 34.6896 19.4473 34.8941 19.4531H46.7632C47.1838 19.4531 47.4649 19.1133 47.4649 18.7247V13.0078H61.4298V39.9609Z" fill="#8D6C52"/>
<path d="M23.3438 15.6753C23.1417 15.6753 22.948 15.7494 22.8051 15.8812C22.6623 16.0131 22.582 16.1919 22.582 16.3784V17.1167C22.582 17.3032 22.6623 17.482 22.8051 17.6139C22.948 17.7457 23.1417 17.8198 23.3438 17.8198C23.5458 17.8198 23.7395 17.7457 23.8824 17.6139C24.0252 17.482 24.1055 17.3032 24.1055 17.1167V16.3784C24.1055 16.1919 24.0252 16.0131 23.8824 15.8812C23.7395 15.7494 23.5458 15.6753 23.3438 15.6753Z" fill="#8D6C52"/>
<path d="M23.3438 18.6396C23.1417 18.6396 22.948 18.7137 22.8051 18.8456C22.6623 18.9774 22.582 19.1563 22.582 19.3428V27.0771C22.582 27.2636 22.6623 27.4425 22.8051 27.5743C22.948 27.7062 23.1417 27.7803 23.3438 27.7803C23.5458 27.7803 23.7395 27.7062 23.8824 27.5743C24.0252 27.4425 24.1055 27.2636 24.1055 27.0771V19.3428C24.1055 19.1563 24.0252 18.9774 23.8824 18.8456C23.7395 18.7137 23.5458 18.6396 23.3438 18.6396Z" fill="#8D6C52"/>
</svg>
