<svg width="63" height="60" viewBox="0 0 63 60" fill="none" xmlns="http://www.w3.org/2000/svg">
<path d="M22.9268 22.5H41.3838C41.5796 22.5 41.7674 22.4259 41.9058 22.2941C42.0443 22.1622 42.1221 21.9834 42.1221 21.7969C42.1221 21.6104 42.0443 21.4316 41.9058 21.2997C41.7674 21.1678 41.5796 21.0938 41.3838 21.0938H22.9268C22.731 21.0938 22.5432 21.1678 22.4047 21.2997C22.2663 21.4316 22.1885 21.6104 22.1885 21.7969C22.1885 21.9834 22.2663 22.1622 22.4047 22.2941C22.5432 22.4259 22.731 22.5 22.9268 22.5Z" fill="#8D6C52"/>
<path d="M15.4719 21.6666L13.8316 23.1602L13.1663 22.5265C13.098 22.4598 13.0166 22.4066 12.9266 22.3701C12.8367 22.3336 12.74 22.3145 12.6422 22.3139C12.5444 22.3132 12.4474 22.3311 12.357 22.3665C12.2665 22.4018 12.1843 22.4539 12.1151 22.5198C12.046 22.5857 11.9913 22.664 11.9542 22.7501C11.917 22.8363 11.8983 22.9286 11.8989 23.0218C11.8996 23.1149 11.9197 23.207 11.9581 23.2927C11.9964 23.3783 12.0522 23.4559 12.1223 23.5209L13.298 24.6407C13.4345 24.7706 13.6189 24.8445 13.8118 24.8466C14.0047 24.8487 14.1908 24.7787 14.3303 24.6517L16.4923 22.683C16.5631 22.6193 16.6199 22.543 16.6596 22.4583C16.6992 22.3737 16.7209 22.2824 16.7234 22.1897C16.7259 22.0971 16.7091 22.0049 16.674 21.9184C16.6389 21.8319 16.5862 21.7529 16.5189 21.6859C16.4517 21.619 16.3712 21.5653 16.2821 21.528C16.1929 21.4908 16.097 21.4707 15.9996 21.4689C15.9023 21.4671 15.8056 21.4836 15.715 21.5176C15.6245 21.5515 15.5418 21.6022 15.4719 21.6666Z" fill="#8D6C52"/>
<path d="M14.3135 18.3867C13.3224 18.3867 12.3536 18.6666 11.5296 19.191C10.7056 19.7153 10.0634 20.4607 9.68414 21.3326C9.3049 22.2046 9.20568 23.1642 9.39903 24.0899C9.59237 25.0156 10.0696 25.8659 10.7704 26.5333C11.4712 27.2006 12.364 27.6551 13.336 27.8393C14.308 28.0234 15.3155 27.9289 16.2311 27.5677C17.1466 27.2064 17.9292 26.5948 18.4798 25.81C19.0303 25.0252 19.3242 24.1026 19.3242 23.1587C19.3227 21.8935 18.7943 20.6806 17.8549 19.7859C16.9155 18.8913 15.6419 18.3881 14.3135 18.3867ZM14.3135 26.5246C13.6145 26.5246 12.9312 26.3272 12.35 25.9573C11.7688 25.5875 11.3158 25.0618 11.0483 24.4468C10.7808 23.8317 10.7108 23.155 10.8472 22.5021C10.9836 21.8492 11.3202 21.2494 11.8144 20.7787C12.3087 20.308 12.9384 19.9874 13.624 19.8575C14.3095 19.7277 15.0201 19.7943 15.6659 20.0491C16.3117 20.3038 16.8637 20.7352 17.252 21.2887C17.6403 21.8423 17.8476 22.493 17.8476 23.1587C17.8467 24.0512 17.4741 24.9068 16.8115 25.5379C16.1489 26.169 15.2505 26.524 14.3135 26.525V26.5246Z" fill="#8D6C52"/>
<path d="M22.9268 34.2188H41.3838C41.5796 34.2188 41.7674 34.1447 41.9058 34.0128C42.0443 33.8809 42.1221 33.7021 42.1221 33.5156C42.1221 33.3291 42.0443 33.1503 41.9058 33.0184C41.7674 32.8866 41.5796 32.8125 41.3838 32.8125H22.9268C22.731 32.8125 22.5432 32.8866 22.4047 33.0184C22.2663 33.1503 22.1885 33.3291 22.1885 33.5156C22.1885 33.7021 22.2663 33.8809 22.4047 34.0128C22.5432 34.1447 22.731 34.2188 22.9268 34.2188Z" fill="#8D6C52"/>
<path d="M15.4714 33.3856L13.8311 34.8792L13.1658 34.2455C13.0976 34.1788 13.0161 34.1256 12.9261 34.0891C12.8362 34.0526 12.7395 34.0335 12.6417 34.0328C12.5439 34.0322 12.4469 34.0501 12.3565 34.0855C12.266 34.1208 12.1838 34.1729 12.1146 34.2388C12.0455 34.3047 11.9908 34.383 11.9537 34.4691C11.9166 34.5553 11.8978 34.6476 11.8985 34.7408C11.8991 34.8339 11.9192 34.926 11.9576 35.0117C11.9959 35.0973 12.0518 35.1749 12.1218 35.2399L13.2976 36.3597C13.434 36.4896 13.6184 36.5635 13.8113 36.5656C14.0042 36.5677 14.1903 36.4977 14.3298 36.3707L16.4918 34.402C16.5626 34.3383 16.6194 34.262 16.6591 34.1773C16.6987 34.0927 16.7204 34.0014 16.7229 33.9087C16.7254 33.8161 16.7086 33.7239 16.6735 33.6374C16.6384 33.5509 16.5857 33.4719 16.5185 33.4049C16.4512 33.3379 16.3707 33.2843 16.2816 33.247C16.1924 33.2098 16.0965 33.1897 15.9992 33.1879C15.9018 33.1861 15.8051 33.2026 15.7146 33.2366C15.624 33.2705 15.5414 33.3212 15.4714 33.3856Z" fill="#8D6C52"/>
<path d="M14.3135 30.1055C13.3224 30.1055 12.3536 30.3854 11.5296 30.9097C10.7056 31.4341 10.0634 32.1794 9.68414 33.0514C9.3049 33.9234 9.20568 34.8829 9.39903 35.8086C9.59237 36.7343 10.0696 37.5846 10.7704 38.252C11.4712 38.9194 12.364 39.3739 13.336 39.558C14.308 39.7421 15.3155 39.6476 16.2311 39.2864C17.1466 38.9252 17.9292 38.3135 18.4798 37.5287C19.0303 36.7439 19.3242 35.8213 19.3242 34.8775C19.3227 33.6123 18.7943 32.3993 17.8549 31.5047C16.9155 30.6101 15.6419 30.1069 14.3135 30.1055ZM14.3135 38.2433C13.6145 38.2433 12.9312 38.0459 12.35 37.6761C11.7688 37.3062 11.3158 36.7805 11.0483 36.1655C10.7808 35.5505 10.7108 34.8737 10.8472 34.2208C10.9836 33.5679 11.3202 32.9682 11.8144 32.4974C12.3087 32.0267 12.9384 31.7061 13.624 31.5763C14.3095 31.4464 15.0201 31.5131 15.6659 31.7678C16.3117 32.0226 16.8637 32.454 17.252 33.0075C17.6403 33.561 17.8476 34.2118 17.8476 34.8775C17.8467 35.7699 17.4741 36.6256 16.8115 37.2567C16.1489 37.8878 15.2505 38.2428 14.3135 38.2438V38.2433Z" fill="#8D6C52"/>
<path d="M15.4714 45.1044L13.8311 46.5979L13.1658 45.9643C13.0976 45.8975 13.0161 45.8444 12.9261 45.8079C12.8362 45.7713 12.7395 45.7522 12.6417 45.7516C12.5439 45.751 12.4469 45.7689 12.3565 45.8042C12.266 45.8396 12.1838 45.8917 12.1146 45.9575C12.0455 46.0234 11.9908 46.1017 11.9537 46.1879C11.9166 46.274 11.8978 46.3664 11.8985 46.4595C11.8991 46.5527 11.9192 46.6447 11.9576 46.7304C11.9959 46.8161 12.0518 46.8937 12.1218 46.9586L13.2976 48.0785C13.434 48.2084 13.6184 48.2823 13.8113 48.2844C14.0042 48.2864 14.1903 48.2165 14.3298 48.0895L16.4918 46.1207C16.5626 46.0571 16.6194 45.9807 16.6591 45.8961C16.6987 45.8114 16.7204 45.7201 16.7229 45.6275C16.7254 45.5348 16.7086 45.4426 16.6735 45.3561C16.6384 45.2697 16.5857 45.1907 16.5185 45.1237C16.4512 45.0567 16.3707 45.003 16.2816 44.9658C16.1924 44.9285 16.0965 44.9084 15.9992 44.9066C15.9018 44.9048 15.8051 44.9214 15.7146 44.9553C15.624 44.9892 15.5414 45.0399 15.4714 45.1044Z" fill="#8D6C52"/>
<path d="M14.3135 41.8242C13.3224 41.8242 12.3536 42.1041 11.5296 42.6285C10.7056 43.1528 10.0634 43.8982 9.68414 44.7701C9.3049 45.6421 9.20568 46.6017 9.39903 47.5274C9.59237 48.4531 10.0696 49.3034 10.7704 49.9708C11.4712 50.6381 12.364 51.0926 13.336 51.2768C14.308 51.4609 15.3155 51.3664 16.2311 51.0051C17.1466 50.6439 17.9292 50.0323 18.4798 49.2475C19.0303 48.4627 19.3242 47.54 19.3242 46.5962C19.3227 45.331 18.7943 44.1181 17.8549 43.2234C16.9155 42.3288 15.6419 41.8256 14.3135 41.8242ZM14.3135 49.9621C13.6145 49.9621 12.9312 49.7647 12.35 49.3948C11.7688 49.025 11.3158 48.4993 11.0483 47.8843C10.7808 47.2692 10.7108 46.5925 10.8472 45.9396C10.9836 45.2867 11.3202 44.6869 11.8144 44.2162C12.3087 43.7455 12.9384 43.4249 13.624 43.295C14.3095 43.1652 15.0201 43.2318 15.6659 43.4866C16.3117 43.7413 16.8637 44.1727 17.252 44.7262C17.6403 45.2798 17.8476 45.9305 17.8476 46.5962C17.8467 47.4887 17.4741 48.3443 16.8115 48.9754C16.1489 49.6065 15.2505 49.9615 14.3135 49.9625V49.9621Z" fill="#8D6C52"/>
<path d="M22.9268 24.8438H32.7705C32.9663 24.8438 33.1541 24.7697 33.2926 24.6378C33.431 24.5059 33.5088 24.3271 33.5088 24.1406C33.5088 23.9541 33.431 23.7753 33.2926 23.6434C33.1541 23.5116 32.9663 23.4375 32.7705 23.4375H22.9268C22.731 23.4375 22.5432 23.5116 22.4047 23.6434C22.2663 23.7753 22.1885 23.9541 22.1885 24.1406C22.1885 24.3271 22.2663 24.5059 22.4047 24.6378C22.5432 24.7697 22.731 24.8438 22.9268 24.8438Z" fill="#8D6C52"/>
<path d="M22.9268 36.5625H32.7705C32.9663 36.5625 33.1541 36.4884 33.2926 36.3566C33.431 36.2247 33.5088 36.0459 33.5088 35.8594C33.5088 35.6729 33.431 35.4941 33.2926 35.3622C33.1541 35.2303 32.9663 35.1562 32.7705 35.1562H22.9268C22.731 35.1562 22.5432 35.2303 22.4047 35.3622C22.2663 35.4941 22.1885 35.6729 22.1885 35.8594C22.1885 36.0459 22.2663 36.2247 22.4047 36.3566C22.5432 36.4884 22.731 36.5625 22.9268 36.5625Z" fill="#8D6C52"/>
<path d="M8.25977 11.0273C8.06396 11.0273 7.87618 11.1014 7.73772 11.2333C7.59927 11.3651 7.52148 11.544 7.52148 11.7305V12.4688C7.52148 12.6552 7.59927 12.8341 7.73772 12.9659C7.87618 13.0978 8.06396 13.1719 8.25977 13.1719C8.45557 13.1719 8.64335 13.0978 8.78181 12.9659C8.92026 12.8341 8.99805 12.6552 8.99805 12.4688V11.7305C8.99805 11.544 8.92026 11.3651 8.78181 11.2333C8.64335 11.1014 8.45557 11.0273 8.25977 11.0273Z" fill="#8D6C52"/>
<path d="M8.25977 13.9912C8.06396 13.9912 7.87618 14.0653 7.73772 14.1972C7.59927 14.329 7.52148 14.5079 7.52148 14.6943V21.4912C7.52148 21.6777 7.59927 21.8565 7.73772 21.9884C7.87618 22.1203 8.06396 22.1943 8.25977 22.1943C8.45557 22.1943 8.64335 22.1203 8.78181 21.9884C8.92026 21.8565 8.99805 21.6777 8.99805 21.4912V14.6943C8.99805 14.5079 8.92026 14.329 8.78181 14.1972C8.64335 14.0653 8.45557 13.9912 8.25977 13.9912Z" fill="#8D6C52"/>
<path d="M57.2658 31.3711C56.7718 31.2724 56.2623 31.268 55.7665 31.3581C55.2708 31.4482 54.7988 31.6311 54.3777 31.8961L46.7734 36.6523V10.2686C46.7734 7.94238 44.7662 6.09375 42.3236 6.09375H37.668V3.91113C37.668 3.72465 37.5902 3.54581 37.4517 3.41395C37.3133 3.28209 37.1255 3.20801 36.9297 3.20801C36.7339 3.20801 36.5461 3.28209 36.4076 3.41395C36.2692 3.54581 36.1914 3.72465 36.1914 3.91113V6.09375H29.916V3.91113C29.916 3.72465 29.8382 3.54581 29.6998 3.41395C29.5613 3.28209 29.3735 3.20801 29.1777 3.20801C28.9819 3.20801 28.7941 3.28209 28.6557 3.41395C28.5172 3.54581 28.4395 3.72465 28.4395 3.91113V6.09375H22.2871V3.91113C22.2871 3.72465 22.2093 3.54581 22.0709 3.41395C21.9324 3.28209 21.7446 3.20801 21.5488 3.20801C21.353 3.20801 21.1652 3.28209 21.0268 3.41395C20.8883 3.54581 20.8105 3.72465 20.8105 3.91113V6.09375H14.5352V3.91113C14.5352 3.72465 14.4574 3.54581 14.3189 3.41395C14.1805 3.28209 13.9927 3.20801 13.7969 3.20801C13.6011 3.20801 13.4133 3.28209 13.2748 3.41395C13.1364 3.54581 13.0586 3.72465 13.0586 3.91113V6.09375H9.10092C8.52289 6.08982 7.94976 6.19494 7.41461 6.40305C6.87945 6.61115 6.39287 6.91812 5.98292 7.30625C5.57298 7.69437 5.24779 8.15597 5.02612 8.6644C4.80445 9.17283 4.6907 9.71804 4.69141 10.2686V52.5732C4.69141 54.8995 6.65831 56.8359 9.10092 56.8359H42.3236C44.7662 56.8359 46.7734 54.8995 46.7734 52.5732V45.4055L58.5965 38.0109C59.2315 37.6137 59.7285 37.046 60.0247 36.3796C60.3209 35.7133 60.403 34.9783 60.2605 34.2676C60.1181 33.5568 59.7575 32.9023 59.2244 32.3867C58.6914 31.8711 58.0098 31.5177 57.2658 31.3711ZM36.888 10.497C37.1462 10.497 37.3986 10.5699 37.6133 10.7065C37.828 10.8431 37.9953 11.0373 38.0941 11.2645C38.1929 11.4917 38.2188 11.7417 38.1684 11.9829C38.118 12.2241 37.9937 12.4456 37.8111 12.6195C37.6285 12.7934 37.3959 12.9118 37.1427 12.9598C36.8894 13.0078 36.6269 12.9831 36.3884 12.889C36.1498 12.7949 35.9459 12.6356 35.8025 12.4311C35.659 12.2266 35.5824 11.9862 35.5824 11.7403C35.5828 11.4107 35.7205 11.0946 35.9652 10.8615C36.21 10.6284 36.5418 10.4973 36.888 10.497ZM29.1947 10.497C29.4529 10.497 29.7053 10.5699 29.92 10.7066C30.1347 10.8432 30.302 11.0374 30.4008 11.2646C30.4996 11.4918 30.5254 11.7418 30.475 11.983C30.4246 12.2241 30.3003 12.4457 30.1177 12.6195C29.9351 12.7934 29.7025 12.9118 29.4492 12.9598C29.196 13.0078 28.9335 12.9831 28.695 12.889C28.4564 12.7949 28.2525 12.6355 28.1091 12.4311C27.9656 12.2266 27.8891 11.9862 27.8891 11.7403C27.8895 11.4106 28.0271 11.0946 28.2719 10.8615C28.5167 10.6284 28.8486 10.4973 29.1947 10.497ZM21.5012 10.497C21.7594 10.497 22.0118 10.57 22.2264 10.7067C22.4411 10.8433 22.6083 11.0375 22.7071 11.2647C22.8059 11.4919 22.8317 11.7419 22.7812 11.9831C22.7308 12.2243 22.6065 12.4458 22.4239 12.6196C22.2413 12.7935 22.0086 12.9119 21.7554 12.9598C21.5022 13.0078 21.2397 12.9831 21.0012 12.889C20.7626 12.7949 20.5587 12.6355 20.4153 12.431C20.2719 12.2266 20.1953 11.9862 20.1953 11.7403C20.1957 11.4106 20.3334 11.0945 20.5783 10.8614C20.8231 10.6283 21.155 10.4972 21.5012 10.497ZM13.808 10.497C14.0662 10.497 14.3186 10.5699 14.5332 10.7066C14.7479 10.8432 14.9152 11.0374 15.014 11.2646C15.1128 11.4918 15.1386 11.7418 15.0883 11.983C15.0379 12.2241 14.9135 12.4457 14.7309 12.6195C14.5483 12.7934 14.3157 12.9118 14.0625 12.9598C13.8092 13.0078 13.5467 12.9831 13.3082 12.889C13.0696 12.7949 12.8658 12.6355 12.7223 12.4311C12.5789 12.2266 12.5023 11.9862 12.5023 11.7403C12.5027 11.4106 12.6404 11.0946 12.8852 10.8615C13.1299 10.6284 13.4618 10.4973 13.808 10.497ZM45.2969 52.5732C45.2932 53.3255 44.9796 54.0463 44.4235 54.5805C43.8674 55.1147 43.1133 55.4197 42.3236 55.4297H9.10092C7.47227 55.4297 6.16797 54.1241 6.16797 52.5732V10.2686C6.16705 9.90265 6.24248 9.54022 6.38987 9.20231C6.53726 8.8644 6.75368 8.55775 7.02655 8.30016C7.29943 8.04258 7.62333 7.8392 7.97943 7.70184C8.33553 7.56448 8.71674 7.49587 9.10092 7.5H13.0586V9.18609C11.9512 9.495 11.0203 10.5227 11.0203 11.7408C11.0203 12.0887 11.0923 12.4331 11.2321 12.7545C11.3718 13.0759 11.5767 13.3679 11.835 13.6139C12.0933 13.8599 12.3999 14.055 12.7374 14.1882C13.0748 14.3213 13.4365 14.3898 13.8018 14.3898C14.1671 14.3898 14.5288 14.3213 14.8662 14.1882C15.2037 14.055 15.5103 13.8599 15.7686 13.6139C16.0269 13.3679 16.2318 13.0759 16.3715 12.7545C16.5113 12.4331 16.5833 12.0887 16.5833 11.7408C16.592 11.1579 16.3949 10.5892 16.0234 10.1259C15.652 9.66258 15.1278 9.3316 14.5352 9.18609V7.5H20.8105V9.18609C20.2158 9.33073 19.6891 9.66091 19.3144 10.124C18.9397 10.587 18.7387 11.1562 18.7434 11.7408C18.7434 12.4442 19.0368 13.1189 19.5591 13.6163C20.0814 14.1138 20.7898 14.3932 21.5284 14.3932C22.267 14.3932 22.9754 14.1138 23.4977 13.6163C24.02 13.1189 24.3134 12.4442 24.3134 11.7408C24.303 11.1655 24.1011 10.6083 23.737 10.1492C23.3729 9.69017 22.8652 9.35295 22.2871 9.18609V7.5H28.4395V9.18609C27.332 9.495 26.4041 10.5227 26.4041 11.7408C26.4041 12.4432 26.6971 13.1168 27.2186 13.6135C27.7401 14.1102 28.4475 14.3892 29.185 14.3892C29.9225 14.3892 30.6298 14.1102 31.1514 13.6135C31.6729 13.1168 31.9659 12.4432 31.9659 11.7408C31.9742 11.1578 31.7766 10.589 31.4049 10.1258C31.0332 9.66249 30.5089 9.33157 29.916 9.18609V7.5H36.1914V9.18609C35.5969 9.33075 35.0705 9.66102 34.6962 10.1241C34.3219 10.5872 34.1215 11.1564 34.1268 11.7408C34.1268 12.4442 34.4202 13.1187 34.9424 13.6161C35.4646 14.1134 36.1729 14.3929 36.9115 14.3929C37.65 14.3929 38.3583 14.1134 38.8805 13.6161C39.4028 13.1187 39.6961 12.4442 39.6961 11.7408C39.6961 10.5232 38.7754 9.49547 37.668 9.18609V7.5H42.3236C43.9518 7.5 45.2969 8.71781 45.2969 10.2686V37.5757L42.5238 39.3101C42.4386 39.3634 42.3659 39.4329 42.3103 39.5143C42.2548 39.5957 42.2175 39.6872 42.2009 39.7829C42.1842 39.8787 42.1886 39.9767 42.2137 40.0708C42.2388 40.1649 42.2841 40.253 42.3467 40.3296C42.4607 40.4689 42.6256 40.5623 42.8086 40.5911C42.9916 40.6199 43.1792 40.5821 43.3343 40.4851L54.3123 33.6192L55.2052 34.9137L36.6058 46.5469L35.7126 45.2523L39.2072 43.0671C39.3708 42.9648 39.4851 42.8047 39.5248 42.622C39.5646 42.4394 39.5265 42.2493 39.419 42.0934C39.3116 41.9375 39.1435 41.8287 38.9517 41.7908C38.76 41.753 38.5603 41.7892 38.3966 41.8916L34.2882 44.4609C34.2807 44.4657 34.2738 44.4717 34.2662 44.4768C34.2475 44.4894 34.2293 44.5021 34.2113 44.5164C34.2054 44.5211 34.2003 44.5264 34.1947 44.5314H22.927C22.7311 44.5314 22.5434 44.6054 22.4049 44.7373C22.2665 44.8692 22.1887 45.048 22.1887 45.2345C22.1887 45.421 22.2665 45.5998 22.4049 45.7317C22.5434 45.8635 22.7311 45.9376 22.927 45.9376H33.3626L32.8397 46.8784C32.817 46.8764 32.7941 46.8751 32.7707 46.8751H22.927C22.7311 46.8751 22.5434 46.9492 22.4049 47.0811C22.2665 47.2129 22.1887 47.3918 22.1887 47.5782C22.1887 47.7647 22.2665 47.9436 22.4049 48.0754C22.5434 48.2073 22.7311 48.2814 22.927 48.2814H32.0601L31.2065 49.8171C31.147 49.9242 31.1175 50.0442 31.121 50.1654C31.1245 50.2865 31.1608 50.4048 31.2265 50.5086C31.2921 50.6125 31.3848 50.6984 31.4956 50.7581C31.6063 50.8177 31.7314 50.8491 31.8587 50.8492H31.8781L38.1175 50.6934C38.1326 50.6934 38.1475 50.6906 38.1625 50.6895C38.1775 50.6883 38.1946 50.6875 38.2106 50.6851C38.2302 50.6823 38.2491 50.6775 38.2681 50.6734C38.2821 50.6702 38.2962 50.668 38.3103 50.664C38.3425 50.6548 38.374 50.6435 38.4046 50.6302C38.4122 50.627 38.4192 50.6225 38.4266 50.6184C38.4504 50.6074 38.4737 50.5951 38.4962 50.5816C38.4987 50.5801 38.5012 50.5793 38.5035 50.5778L45.2969 46.329V52.5732ZM36.7526 49.3205L33.1022 49.4115L34.7586 46.4305L36.7526 49.3205ZM38.3098 49.0166L38.2531 48.9346L37.4163 47.7224L56.0157 36.0898L56.9088 37.3841L38.3098 49.0166ZM58.1219 36.5807L55.568 32.8788C55.8826 32.7528 56.2221 32.6926 56.5633 32.7024C56.9045 32.7122 57.2395 32.7917 57.5457 32.9355C57.723 33.0168 57.8876 33.1213 58.0346 33.246C58.2834 33.4518 58.4844 33.7047 58.6248 33.9886C58.7653 34.2725 58.8421 34.5812 58.8503 34.895C58.8585 35.2087 58.798 35.5207 58.6726 35.8109C58.5472 36.1011 58.3596 36.3633 58.1219 36.5807Z" fill="#8D6C52"/>
</svg>
