<svg width="875" height="102" viewBox="0 0 875 102" fill="none" xmlns="http://www.w3.org/2000/svg">
<path d="M77.4487 70.9348V15.2053C77.4487 11.3494 76.1149 8.73022 73.4473 7.3479C70.7796 5.94132 67.8452 5.23804 64.644 5.23804V2.40063H93.3818V5.23804C89.4774 5.26229 86.5915 5.94132 84.7241 7.27515C82.8568 8.58472 81.6927 10.1368 81.2319 11.9314C80.7954 13.726 80.5771 16.0177 80.5771 18.8066V101.637H79.5222L16.1899 17.3152V83.594C16.1899 86.3586 17.1479 89.2931 19.0637 92.3972C21.0038 95.4771 24.3748 97.0171 29.1765 97.0171V100H0.256836V97.0171C4.33105 97.0171 7.48372 96.0349 9.71484 94.0706C11.946 92.1062 13.0615 88.614 13.0615 83.594V13.1318C13.0615 10.3672 11.8853 8.39071 9.53296 7.20239C7.18058 5.98983 4.6342 5.33504 1.8938 5.23804V2.40063H25.5752L77.4487 70.9348ZM123.314 97.0171V5.23804H111.856V2.40063H185.301L186.938 30.5564H183.373C182.209 22.0199 179.614 15.6661 175.588 11.4949C171.586 7.32365 165.984 5.23804 158.782 5.23804H140.011V46.344H145.395C149.397 46.344 152.889 45.2769 155.872 43.1428C158.855 40.9845 160.722 36.0978 161.474 28.4829H164.457V67.5154H161.474C160.649 62.5681 159.703 58.8213 158.636 56.2749C157.593 53.7043 156.138 51.9097 154.271 50.8911C152.404 49.8483 149.736 49.3269 146.268 49.3269H140.011V97.0171H161.328C167.706 97.0171 173.09 95.1376 177.48 91.3787C181.893 87.6197 185.046 80.3564 186.938 69.5889H190.539L187.41 100H111.856V97.0171H123.314ZM203.265 2.40063H240.369V5.23804H229.347L254.847 73.6267L273 26.8459L265.106 5.23804H254.847V2.40063H294.316V5.23804H283.003L308.758 74.6816L328.147 26.2275C329.82 21.9836 330.657 18.9643 330.657 17.1697C330.657 13.92 329.76 11.1432 327.965 8.83936C326.171 6.51123 322.06 5.31079 315.633 5.23804V2.40063H349.464V5.23804C346.263 5.5048 343.644 6.48698 341.607 8.18457C339.569 9.85791 337.993 11.798 336.878 14.0049C335.786 16.2118 334.319 19.6433 332.476 24.2996L301.483 101.637L274.782 32.0479L247.245 101.637L211.159 5.23804H203.265V2.40063ZM433.519 97.0171V5.23804H422.061V2.40063H461.712V5.23804H450.216V97.0171H461.712V100H422.061V97.0171H433.519ZM512.888 97.0171V5.23804C505.758 5.23804 500.047 6.13534 495.755 7.92993C491.462 9.72453 488.188 12.6468 485.933 16.6968C483.677 20.7225 482.186 26.1912 481.458 33.1028H477.275L478.039 2.40063H564.434L565.198 33.1028H561.015C560.19 25.9244 558.662 20.3466 556.431 16.3694C554.224 12.3679 550.999 9.51839 546.755 7.8208C542.511 6.09896 536.788 5.23804 529.585 5.23804V97.0171H541.044V100H501.429V97.0171H512.888ZM592.111 97.0171V5.23804H580.653V2.40063H654.098L655.735 30.5564H652.17C651.006 22.0199 648.411 15.6661 644.385 11.4949C640.384 7.32365 634.781 5.23804 627.579 5.23804H608.808V46.344H614.192C618.194 46.344 621.686 45.2769 624.669 43.1428C627.652 40.9845 629.519 36.0978 630.271 28.4829H633.254V67.5154H630.271C629.446 62.5681 628.5 58.8213 627.433 56.2749C626.391 53.7043 624.935 51.9097 623.068 50.8911C621.201 49.8483 618.533 49.3269 615.065 49.3269H608.808V97.0171H630.125C636.503 97.0171 641.887 95.1376 646.277 91.3787C650.69 87.6197 653.843 80.3564 655.735 69.5889H659.336L656.208 100H580.653V97.0171H592.111ZM733.903 77.9556L761.768 2.40063H789.923V5.23804H778.465V97.0171H789.923V100H750.309V97.0171H761.768V11.3494L728.701 101.782H726.009L691.451 12.0769V84.6489C691.451 87.8501 692.106 90.5784 693.415 92.8337C694.725 95.0891 697.841 96.4836 702.764 97.0171V100H676.245V97.0171C681.096 97.0171 684.321 95.6226 685.922 92.8337C687.522 90.0448 688.323 87.2681 688.323 84.5034V13.7139C688.323 8.06331 685.291 5.23804 679.228 5.23804H676.536L676.682 2.40063H704.838L733.903 77.9556ZM808.652 100L808.361 68.8613H810.289C814.896 80.3322 820.365 88.1654 826.695 92.3608C833.048 96.5563 839.402 98.6541 845.756 98.6541C851.504 98.6541 856.439 97.005 860.562 93.7068C864.709 90.4086 866.782 86.104 866.782 80.793C866.782 70.4134 861.459 63.7564 850.813 60.822L833.242 56.0566C819.128 52.1764 812.071 42.1849 812.071 26.082C812.071 21.4985 813.162 17.2667 815.345 13.3865C817.528 9.50627 820.571 6.43848 824.476 4.18311C828.404 1.90348 832.77 0.763672 837.571 0.763672C841.476 0.763672 844.447 1.00618 846.484 1.49121C848.545 1.95199 850.437 2.65527 852.159 3.60107C853.905 4.54688 855.335 5.21379 856.451 5.60181C857.591 5.96558 859.495 6.14746 862.162 6.14746C863.253 6.14746 864.393 4.89852 865.582 2.40063H867.946L868.565 25.9365H866.455C859.883 10.9492 850.4 3.45557 838.008 3.45557C832.163 3.45557 827.543 5.17741 824.148 8.62109C820.777 12.0648 819.092 16.1996 819.092 21.0256C819.092 25.2696 820.11 28.6527 822.148 31.1748C824.185 33.6969 826.404 35.4915 828.805 36.5586C831.205 37.6014 834.079 38.5836 837.426 39.5051L852.631 43.543C858.864 45.1921 863.629 47.7384 866.928 51.1821C870.226 54.6258 872.36 58.1423 873.33 61.7314C874.324 65.3206 874.821 68.8371 874.821 72.2808C874.821 77.131 873.791 81.8236 871.729 86.3586C869.692 90.8694 866.588 94.5435 862.417 97.3809C858.246 100.218 853.238 101.637 847.393 101.637C839.39 101.637 831.994 100 825.203 96.7261C821.687 95.1255 819.456 94.3252 818.51 94.3252C816.788 94.3252 815.369 94.8345 814.254 95.853C813.138 96.8716 812.471 98.2539 812.253 100H808.652Z" fill="#F3F3F3"/>
</svg>
