<svg width="929" height="102" viewBox="0 0 929 102" fill="none" xmlns="http://www.w3.org/2000/svg">
<path d="M73.1748 67.5154H76.7397L75.5393 100H71.6833C71.3923 96.0228 69.8039 94.0342 66.918 94.0342C65.3174 94.0342 63.2318 94.8345 60.6611 96.4351C54.4771 99.903 48.1596 101.637 41.7087 101.637C34.7971 101.637 28.3341 99.8424 22.3198 96.2532C16.3298 92.664 11.4189 87.5348 7.58716 80.8657C3.75545 74.1966 1.52433 66.4241 0.893799 57.5481V47.981C1.42733 40.6571 2.95516 34.0728 5.47729 28.2283C7.99943 22.3595 11.2976 17.3758 15.3718 13.2773C19.446 9.15462 24.0053 6.03833 29.0496 3.92847C34.0938 1.8186 39.3079 0.763672 44.6917 0.763672C47.432 0.763672 49.4692 0.957682 50.803 1.3457C52.1368 1.73372 53.4827 2.31576 54.8408 3.0918C56.1989 3.86784 57.4963 4.44987 58.7332 4.83789C59.9942 5.20166 61.9222 5.38354 64.5171 5.38354C67.5485 5.38354 69.5371 3.84359 70.4829 0.763672H74.0479L74.3389 32.5208H71.0649C70.0221 22.7475 67.5 15.4842 63.4985 10.731C59.5213 5.9777 53.5555 3.60107 45.6011 3.60107C41.1631 3.60107 36.9797 4.78939 33.051 7.16602C29.1466 9.54264 25.9333 13.5562 23.4111 19.2068C20.9132 24.8331 19.6643 32.2904 19.6643 41.5786V65.7329C19.6643 74.1481 21.0709 80.8415 23.884 85.813C26.6972 90.7845 30.0317 94.1918 33.8877 96.0349C37.7679 97.878 41.5754 98.7996 45.3101 98.7996C49.0448 98.7996 52.7431 97.878 56.405 96.0349C60.0912 94.1676 63.45 90.8936 66.4814 86.2131C69.5129 81.5326 71.744 75.3 73.1748 67.5154ZM94.304 51.1458C94.304 41.324 96.5836 32.5693 101.143 24.8816C105.726 17.1939 111.644 11.2524 118.895 7.05688C126.17 2.86141 133.615 0.763672 141.23 0.763672C148.918 0.763672 156.399 2.86141 163.675 7.05688C170.95 11.2524 176.868 17.1939 181.427 24.8816C186.01 32.5693 188.302 41.324 188.302 51.1458C188.302 61.0645 186.022 69.8678 181.463 77.5554C176.904 85.2431 170.974 91.1847 163.675 95.3801C156.375 99.5514 148.894 101.637 141.23 101.637C135.58 101.637 129.966 100.461 124.388 98.1084C118.81 95.7318 113.741 92.3245 109.182 87.8865C104.647 83.4242 101.034 78.0647 98.3418 71.8079C95.6499 65.551 94.304 58.6637 94.304 51.1458ZM141.23 3.60107C136.792 3.60107 132.463 4.86214 128.244 7.38428C124.048 9.90641 120.471 14.7082 117.512 21.7896C114.554 28.8709 113.075 38.6563 113.075 51.1458C113.075 63.0774 114.433 72.6082 117.149 79.738C119.865 86.8437 123.321 91.8031 127.516 94.6162C131.736 97.4051 136.307 98.7996 141.23 98.7996C145.717 98.7996 150.07 97.5506 154.29 95.0527C158.509 92.5306 162.099 87.7167 165.057 80.6111C168.04 73.5055 169.532 63.6837 169.532 51.1458C169.532 38.7048 168.04 28.9316 165.057 21.8259C162.074 14.7203 158.461 9.90641 154.217 7.38428C149.973 4.86214 145.644 3.60107 141.23 3.60107ZM285.241 70.9348V15.2053C285.241 11.3494 283.907 8.73022 281.239 7.3479C278.572 5.94132 275.637 5.23804 272.436 5.23804V2.40063H301.174V5.23804C297.269 5.26229 294.384 5.94132 292.516 7.27515C290.649 8.58472 289.485 10.1368 289.024 11.9314C288.587 13.726 288.369 16.0177 288.369 18.8066V101.637H287.314L223.982 17.3152V83.594C223.982 86.3586 224.94 89.2931 226.856 92.3972C228.796 95.4771 232.167 97.0171 236.969 97.0171V100H208.049V97.0171C212.123 97.0171 215.276 96.0349 217.507 94.0706C219.738 92.1062 220.854 88.614 220.854 83.594V13.1318C220.854 10.3672 219.677 8.39071 217.325 7.20239C214.973 5.98983 212.426 5.33504 209.686 5.23804V2.40063H233.367L285.241 70.9348ZM319.648 2.40063H363.154C375.571 2.40063 385.611 5.04403 393.275 10.3308C400.938 15.5933 406.346 21.9351 409.499 29.356C412.676 36.7769 414.264 43.931 414.264 50.8184C414.264 59.9611 412.215 68.2914 408.116 75.8093C404.042 83.3272 398.392 89.2445 391.165 93.5613C383.962 97.8538 375.971 100 367.192 100H319.648V97.0171H331.106V5.23804H319.648V2.40063ZM347.803 97.0171H367.92C371.242 97.0171 374.892 96.1683 378.869 94.4707C382.871 92.7731 386.642 88.6019 390.182 81.957C393.723 75.2879 395.494 65.357 395.494 52.1643C395.494 42.8761 394.827 35.2126 393.493 29.1741C392.183 23.1112 390.219 18.3337 387.6 14.8416C384.981 11.3494 381.731 8.87573 377.851 7.42065C373.97 5.96558 369.266 5.23804 363.736 5.23804H347.803V97.0171ZM444.16 97.0171V5.23804H432.701V2.40063H472.352V5.23804H460.857V97.0171H472.352V100H432.701V97.0171H444.16ZM523.529 97.0171V5.23804C516.399 5.23804 510.688 6.13534 506.395 7.92993C502.103 9.72453 498.829 12.6468 496.573 16.6968C494.318 20.7225 492.827 26.1912 492.099 33.1028H487.916L488.68 2.40063H575.075L575.839 33.1028H571.655C570.831 25.9244 569.303 20.3466 567.072 16.3694C564.865 12.3679 561.64 9.51839 557.396 7.8208C553.152 6.09896 547.428 5.23804 540.226 5.23804V97.0171H551.685V100H512.07V97.0171H523.529ZM602.752 97.0171V5.23804H591.293V2.40063H630.944V5.23804H619.449V97.0171H630.944V100H591.293V97.0171H602.752ZM650.691 51.1458C650.691 41.324 652.971 32.5693 657.53 24.8816C662.113 17.1939 668.031 11.2524 675.282 7.05688C682.557 2.86141 690.002 0.763672 697.617 0.763672C705.305 0.763672 712.786 2.86141 720.062 7.05688C727.337 11.2524 733.254 17.1939 737.814 24.8816C742.397 32.5693 744.689 41.324 744.689 51.1458C744.689 61.0645 742.409 69.8678 737.85 77.5554C733.291 85.2431 727.361 91.1847 720.062 95.3801C712.762 99.5514 705.281 101.637 697.617 101.637C691.967 101.637 686.352 100.461 680.775 98.1084C675.197 95.7318 670.128 92.3245 665.569 87.8865C661.034 83.4242 657.421 78.0647 654.729 71.8079C652.037 65.551 650.691 58.6637 650.691 51.1458ZM697.617 3.60107C693.179 3.60107 688.85 4.86214 684.631 7.38428C680.435 9.90641 676.858 14.7082 673.899 21.7896C670.941 28.8709 669.461 38.6563 669.461 51.1458C669.461 63.0774 670.819 72.6082 673.536 79.738C676.252 86.8437 679.708 91.8031 683.903 94.6162C688.123 97.4051 692.694 98.7996 697.617 98.7996C702.104 98.7996 706.457 97.5506 710.677 95.0527C714.896 92.5306 718.485 87.7167 721.444 80.6111C724.427 73.5055 725.918 63.6837 725.918 51.1458C725.918 38.7048 724.427 28.9316 721.444 21.8259C718.461 14.7203 714.848 9.90641 710.604 7.38428C706.36 4.86214 702.031 3.60107 697.617 3.60107ZM841.628 70.9348V15.2053C841.628 11.3494 840.294 8.73022 837.626 7.3479C834.959 5.94132 832.024 5.23804 828.823 5.23804V2.40063H857.561V5.23804C853.656 5.26229 850.77 5.94132 848.903 7.27515C847.036 8.58472 845.872 10.1368 845.411 11.9314C844.974 13.726 844.756 16.0177 844.756 18.8066V101.637H843.701L780.369 17.3152V83.594C780.369 86.3586 781.327 89.2931 783.243 92.3972C785.183 95.4771 788.554 97.0171 793.356 97.0171V100H764.436V97.0171C768.51 97.0171 771.663 96.0349 773.894 94.0706C776.125 92.1062 777.241 88.614 777.241 83.594V13.1318C777.241 10.3672 776.064 8.39071 773.712 7.20239C771.36 5.98983 768.813 5.33504 766.073 5.23804V2.40063H789.754L841.628 70.9348ZM876.326 100L876.035 68.8613H877.963C882.57 80.3322 888.039 88.1654 894.369 92.3608C900.722 96.5563 907.076 98.6541 913.43 98.6541C919.178 98.6541 924.113 97.005 928.235 93.7068C932.382 90.4086 934.456 86.104 934.456 80.793C934.456 70.4134 929.133 63.7564 918.486 60.822L900.916 56.0566C886.802 52.1764 879.745 42.1849 879.745 26.082C879.745 21.4985 880.836 17.2667 883.019 13.3865C885.202 9.50627 888.245 6.43848 892.15 4.18311C896.078 1.90348 900.443 0.763672 905.245 0.763672C909.15 0.763672 912.12 1.00618 914.158 1.49121C916.219 1.95199 918.111 2.65527 919.832 3.60107C921.578 4.54688 923.009 5.21379 924.125 5.60181C925.265 5.96558 927.168 6.14746 929.836 6.14746C930.927 6.14746 932.067 4.89852 933.255 2.40063H935.62L936.238 25.9365H934.129C927.556 10.9492 918.074 3.45557 905.682 3.45557C899.837 3.45557 895.217 5.17741 891.822 8.62109C888.451 12.0648 886.766 16.1996 886.766 21.0256C886.766 25.2696 887.784 28.6527 889.821 31.1748C891.859 33.6969 894.078 35.4915 896.478 36.5586C898.879 37.6014 901.753 38.5836 905.1 39.5051L920.305 43.543C926.538 45.1921 931.303 47.7384 934.601 51.1821C937.9 54.6258 940.034 58.1423 941.004 61.7314C941.998 65.3206 942.495 68.8371 942.495 72.2808C942.495 77.131 941.465 81.8236 939.403 86.3586C937.366 90.8694 934.262 94.5435 930.091 97.3809C925.919 100.218 920.912 101.637 915.067 101.637C907.064 101.637 899.667 100 892.877 96.7261C889.361 95.1255 887.13 94.3252 886.184 94.3252C884.462 94.3252 883.043 94.8345 881.928 95.853C880.812 96.8716 880.145 98.2539 879.927 100H876.326Z" fill="#F3F3F3"/>
</svg>
