<svg width="65" height="57" viewBox="0 0 65 57" fill="none" xmlns="http://www.w3.org/2000/svg">
<path d="M57.6598 13.1367H45.0811C44.879 13.1367 44.6853 13.2071 44.5424 13.3324C44.3996 13.4576 44.3193 13.6275 44.3193 13.8047C44.3193 13.9818 44.3996 14.1517 44.5424 14.277C44.6853 14.4023 44.879 14.4727 45.0811 14.4727H57.6596C57.8616 14.4727 58.0553 14.4023 58.1982 14.277C58.341 14.1517 58.4213 13.9818 58.4213 13.8047C58.4213 13.6275 58.341 13.4576 58.1982 13.3324C58.0553 13.2071 57.8616 13.1367 57.6596 13.1367H57.6598Z" fill="#8D6C52"/>
<path d="M57.6598 9.24023H45.0811C44.879 9.24023 44.6853 9.31061 44.5424 9.43588C44.3996 9.56115 44.3193 9.73105 44.3193 9.9082C44.3193 10.0854 44.3996 10.2553 44.5424 10.3805C44.6853 10.5058 44.879 10.5762 45.0811 10.5762H57.6596C57.8616 10.5762 58.0553 10.5058 58.1982 10.3805C58.341 10.2553 58.4213 10.0854 58.4213 9.9082C58.4213 9.73105 58.341 9.56115 58.1982 9.43588C58.0553 9.31061 57.8616 9.24023 57.6596 9.24023H57.6598Z" fill="#8D6C52"/>
<path d="M57.6598 17.1445H45.0811C44.879 17.1445 44.6853 17.2149 44.5424 17.3402C44.3996 17.4654 44.3193 17.6353 44.3193 17.8125C44.3193 17.9897 44.3996 18.1596 44.5424 18.2848C44.6853 18.4101 44.879 18.4805 45.0811 18.4805H57.6596C57.8616 18.4805 58.0553 18.4101 58.1982 18.2848C58.341 18.1596 58.4213 17.9897 58.4213 17.8125C58.4213 17.6353 58.341 17.4654 58.1982 17.3402C58.0553 17.2149 57.8616 17.1445 57.6596 17.1445H57.6598Z" fill="#8D6C52"/>
<path d="M57.6598 21.041H45.0811C44.879 21.041 44.6853 21.1114 44.5424 21.2367C44.3996 21.3619 44.3193 21.5318 44.3193 21.709C44.3193 21.8861 44.3996 22.056 44.5424 22.1813C44.6853 22.3066 44.879 22.377 45.0811 22.377H57.6596C57.8616 22.377 58.0553 22.3066 58.1982 22.1813C58.341 22.056 58.4213 21.8861 58.4213 21.709C58.4213 21.5318 58.341 21.3619 58.1982 21.2367C58.0553 21.1114 57.8616 21.041 57.6596 21.041H57.6598Z" fill="#8D6C52"/>
<path d="M57.6598 24.9375H45.0811C44.879 24.9375 44.6853 25.0079 44.5424 25.1331C44.3996 25.2584 44.3193 25.4283 44.3193 25.6055C44.3193 25.7826 44.3996 25.9525 44.5424 26.0778C44.6853 26.2031 44.879 26.2734 45.0811 26.2734H57.6596C57.8616 26.2734 58.0553 26.2031 58.1982 26.0778C58.341 25.9525 58.4213 25.7826 58.4213 25.6055C58.4213 25.4283 58.341 25.2584 58.1982 25.1331C58.0553 25.0079 57.8616 24.9375 57.6596 24.9375H57.6598Z" fill="#8D6C52"/>
<path d="M57.6598 28.9453H45.0811C44.879 28.9453 44.6853 29.0157 44.5424 29.141C44.3996 29.2662 44.3193 29.4361 44.3193 29.6133C44.3193 29.7904 44.3996 29.9603 44.5424 30.0856C44.6853 30.2109 44.879 30.2812 45.0811 30.2812H57.6596C57.8616 30.2812 58.0553 30.2109 58.1982 30.0856C58.341 29.9603 58.4213 29.7904 58.4213 29.6133C58.4213 29.4361 58.341 29.2662 58.1982 29.141C58.0553 29.0157 57.8616 28.9453 57.6596 28.9453H57.6598Z" fill="#8D6C52"/>
<path d="M36.5584 17.3844C35.9326 17.3842 35.3321 17.6007 34.8875 17.9868C34.4429 18.373 34.1902 18.8975 34.1844 19.4462C34.1923 19.8793 34.3515 20.2999 34.6406 20.6512C34.9296 21.0025 35.3346 21.2676 35.8009 21.4107V26.9502C35.8009 27.7616 35.6186 28.5651 35.2645 29.3147C34.9104 30.0644 34.3914 30.7455 33.7372 31.3193C33.0829 31.893 32.3062 32.3481 31.4513 32.6586C30.5965 32.9691 29.6802 33.129 28.755 33.129C27.8297 33.129 26.9135 32.9691 26.0586 32.6586C25.2038 32.3481 24.427 31.893 23.7728 31.3193C23.1185 30.7455 22.5995 30.0644 22.2454 29.3147C21.8913 28.5651 21.7091 27.7616 21.7091 26.9502V21.3855C22.1128 21.2554 22.4683 21.0308 22.7367 20.736C23.0051 20.4412 23.1762 20.0876 23.2315 19.7135C23.2868 19.3394 23.2241 18.9592 23.0503 18.6141C22.8764 18.2691 22.5981 17.9724 22.2455 17.7563C21.8928 17.5403 21.4794 17.4131 21.0502 17.3886C20.6209 17.3641 20.1922 17.4433 19.8107 17.6175C19.4291 17.7917 19.1093 18.0542 18.8859 18.3766C18.6626 18.699 18.5443 19.0689 18.5439 19.4462C18.5343 19.8853 18.6899 20.315 18.9867 20.6689C19.2834 21.0227 19.7048 21.2811 20.1856 21.404V26.9502C20.1856 31.1237 23.9959 34.519 28.755 34.519C33.5141 34.519 37.3243 31.1235 37.3243 26.9502V21.3788C38.3399 21.0881 38.8945 20.3323 38.8945 19.4462C38.8958 19.1762 38.8364 18.9086 38.7197 18.6588C38.6029 18.409 38.4311 18.1818 38.2141 17.9903C37.9971 17.7988 37.7392 17.6467 37.4551 17.5427C37.171 17.4388 36.8663 17.3849 36.5584 17.3844ZM20.8557 20.172C20.692 20.172 20.5319 20.1295 20.3958 20.0497C20.2597 19.9699 20.1536 19.8566 20.091 19.7239C20.0283 19.5913 20.0119 19.4454 20.0439 19.3046C20.0758 19.1638 20.1546 19.0344 20.2704 18.9329C20.3862 18.8314 20.5336 18.7623 20.6942 18.7343C20.8548 18.7062 21.0212 18.7206 21.1725 18.7756C21.3237 18.8305 21.453 18.9235 21.5439 19.0429C21.6349 19.1623 21.6834 19.3026 21.6834 19.4462C21.6832 19.6386 21.5959 19.8231 21.4407 19.9592C21.2855 20.0952 21.0751 20.1718 20.8557 20.172ZM36.5735 20.172C36.4098 20.172 36.2498 20.1295 36.1136 20.0497C35.9775 19.9699 35.8714 19.8566 35.8088 19.7239C35.7461 19.5913 35.7297 19.4454 35.7617 19.3046C35.7936 19.1638 35.8724 19.0344 35.9882 18.9329C36.104 18.8314 36.2515 18.7623 36.412 18.7343C36.5726 18.7062 36.739 18.7206 36.8903 18.7756C37.0415 18.8305 37.1708 18.9235 37.2617 19.0429C37.3527 19.1623 37.4012 19.3026 37.4012 19.4462C37.401 19.6386 37.3137 19.8231 37.1585 19.9592C37.0033 20.0952 36.7929 20.1718 36.5735 20.172Z" fill="#8D6C52"/>
<path d="M35.293 43.9746H22.2168C22.0148 43.9746 21.821 44.045 21.6782 44.1703C21.5353 44.2955 21.4551 44.4654 21.4551 44.6426V48.4277C21.4551 48.6049 21.5353 48.7748 21.6782 48.9001C21.821 49.0253 22.0148 49.0957 22.2168 49.0957H35.293C35.495 49.0957 35.6887 49.0253 35.8316 48.9001C35.9744 48.7748 36.0547 48.6049 36.0547 48.4277V44.6426C36.0547 44.4654 35.9744 44.2955 35.8316 44.1703C35.6887 44.045 35.495 43.9746 35.293 43.9746ZM34.5313 47.7598H22.9785V45.3105H34.5313V47.7598Z" fill="#8D6C52"/>
<path d="M47.4933 33.7611C47.8875 33.7614 48.2654 33.8989 48.5441 34.1433C48.8228 34.3877 48.9796 34.7191 48.9801 35.0647C48.9801 35.2419 49.0603 35.4118 49.2032 35.537C49.346 35.6623 49.5398 35.7327 49.7418 35.7327C49.9438 35.7327 50.1376 35.6623 50.2804 35.537C50.4233 35.4118 50.5035 35.2419 50.5035 35.0647C50.5026 34.479 50.28 33.9101 49.8706 33.4473C49.4612 32.9845 48.8882 32.654 48.2415 32.5076V32.0098C48.2415 31.8326 48.1612 31.6627 48.0184 31.5374C47.8755 31.4122 47.6818 31.3418 47.4798 31.3418C47.2777 31.3418 47.084 31.4122 46.9411 31.5374C46.7983 31.6627 46.718 31.8326 46.718 32.0098V32.5143C46.012 32.6792 45.3985 33.0637 44.9919 33.5961C44.5854 34.1285 44.4135 34.7724 44.5084 35.4077C44.6033 36.043 44.9585 36.6263 45.5077 37.0489C46.0569 37.4714 46.7627 37.7044 47.4933 37.7043C47.8875 37.7032 48.2661 37.8395 48.5457 38.0832C48.8253 38.3269 48.9831 38.658 48.9843 39.0037C48.9856 39.3494 48.8301 39.6813 48.5523 39.9265C48.2744 40.1717 47.8968 40.3101 47.5026 40.3112C47.4949 40.3112 47.4875 40.3102 47.4798 40.3102C47.4767 40.3102 47.4737 40.3102 47.4707 40.3102C47.0807 40.3047 46.7087 40.1651 46.4349 39.9215C46.1611 39.6779 46.0073 39.3497 46.0067 39.0076C46.0067 38.8305 45.9265 38.6606 45.7836 38.5353C45.6408 38.41 45.447 38.3397 45.245 38.3397C45.043 38.3397 44.8492 38.41 44.7064 38.5353C44.5635 38.6606 44.4833 38.8305 44.4833 39.0076C44.484 39.5892 44.7034 40.1542 45.1074 40.6154C45.5114 41.0766 46.0775 41.4081 46.718 41.5586V42.1529C46.718 42.33 46.7983 42.4999 46.9411 42.6252C47.084 42.7505 47.2777 42.8208 47.4798 42.8208C47.6818 42.8208 47.8755 42.7505 48.0184 42.6252C48.1612 42.4999 48.2415 42.33 48.2415 42.1529V41.5652C48.9515 41.4054 49.5707 41.0239 49.9828 40.4923C50.3949 39.9607 50.5716 39.3154 50.4798 38.6777C50.388 38.0399 50.0339 37.4534 49.4841 37.0283C48.9342 36.6032 48.2264 36.3686 47.4933 36.3686C47.0991 36.3686 46.7209 36.2312 46.4421 35.9868C46.1633 35.7423 46.0067 35.4107 46.0067 35.0649C46.0067 34.7192 46.1633 34.3876 46.4421 34.1431C46.7209 33.8986 47.0991 33.7613 47.4933 33.7613V33.7611Z" fill="#8D6C52"/>
<path d="M16.8848 21.9429C16.6827 21.9429 16.489 22.0132 16.3461 22.1385C16.2033 22.2638 16.123 22.4337 16.123 22.6108V23.3122C16.123 23.4894 16.2033 23.6593 16.3461 23.7845C16.489 23.9098 16.6827 23.9802 16.8848 23.9802C17.0868 23.9802 17.2805 23.9098 17.4234 23.7845C17.5662 23.6593 17.6465 23.4894 17.6465 23.3122V22.6108C17.6465 22.4337 17.5662 22.2638 17.4234 22.1385C17.2805 22.0132 17.0868 21.9429 16.8848 21.9429Z" fill="#8D6C52"/>
<path d="M16.8848 24.7583C16.6827 24.7583 16.489 24.8287 16.3461 24.9539C16.2033 25.0792 16.123 25.2491 16.123 25.4263V35.0005C16.123 35.1776 16.2033 35.3475 16.3461 35.4728C16.489 35.5981 16.6827 35.6685 16.8848 35.6685C17.0868 35.6685 17.2805 35.5981 17.4234 35.4728C17.5662 35.3475 17.6465 35.1776 17.6465 35.0005V25.4263C17.6465 25.2491 17.5662 25.0792 17.4234 24.9539C17.2805 24.8287 17.0868 24.7583 16.8848 24.7583Z" fill="#8D6C52"/>
<path d="M56.515 2.44922H35.8008V2.48562C35.8008 2.48228 35.6708 2.48061 35.5838 2.48061C34.8256 2.4821 34.0753 2.61476 33.3757 2.87101C32.676 3.12725 32.041 3.50204 31.5068 3.97389C30.9727 4.44575 30.55 5.00539 30.2629 5.62075C29.9759 6.23612 29.8301 6.89511 29.834 7.55996V12.2461H2.71362C2.50198 12.2536 2.30129 12.3306 2.15137 12.4618C2.00146 12.5931 1.91326 12.7689 1.9043 12.9545V53.8514C1.91366 54.036 2.00228 54.2107 2.15238 54.3404C2.30249 54.4702 2.50298 54.5453 2.71362 54.5508H45.6445C45.8618 54.5502 46.0701 54.4743 46.2239 54.3395C46.3776 54.2047 46.4642 54.022 46.4648 53.8314V47.6232C46.6199 47.6093 46.7662 47.5537 46.8838 47.464L48.9112 45.9054L50.9393 47.464C51.0782 47.5707 51.2566 47.6296 51.4413 47.6296C51.626 47.6296 51.8045 47.5707 51.9434 47.464L53.9709 45.9054L55.9991 47.464C56.1381 47.5707 56.3165 47.6296 56.5012 47.6296C56.6859 47.6296 56.8643 47.5707 57.0032 47.464L59.0902 45.8608L61.8578 47.5138C61.9842 47.5894 62.1336 47.6298 62.2866 47.6299C62.4184 47.6298 62.5483 47.6031 62.6665 47.5519C62.7917 47.4963 62.8976 47.4122 62.9732 47.3084C63.0487 47.2046 63.0911 47.0849 63.096 46.9619V8.22002C63.0909 6.69085 62.3959 5.22558 61.1628 4.1443C59.9297 3.06303 58.2588 2.45362 56.515 2.44922ZM31.3574 7.6154C31.3574 5.57108 33.2003 3.8544 35.5311 3.81722C36.0973 3.80878 36.6597 3.89941 37.1854 4.08381C37.7112 4.26821 38.1897 4.54268 38.5931 4.89117C38.9965 5.23965 39.3165 5.65516 39.5346 6.1134C39.7527 6.57164 39.8645 7.06341 39.8633 7.55996V12.2461H31.3574V7.6154ZM3.42773 13.582H6.98242V49.4593L3.42773 52.3316V13.582ZM4.6673 53.2149L7.75683 50.694L10.8475 53.2149H4.6673ZM61.5723 45.6982L59.4849 44.4655C59.3432 44.3821 59.1743 44.3418 59.004 44.3507C58.8337 44.3597 58.6714 44.4174 58.5421 44.515L56.5075 46.0736L54.4762 44.515C54.3369 44.4082 54.1581 44.3494 53.9731 44.3494C53.7881 44.3494 53.6093 44.4082 53.47 44.515L51.4419 46.0736L49.4137 44.515C49.2748 44.4082 49.0963 44.3493 48.9115 44.3493C48.7268 44.3493 48.5483 44.4082 48.4094 44.515L46.3816 46.0736L44.3536 44.515C44.2291 44.4176 44.0709 44.3597 43.9043 44.3508C43.7378 44.3418 43.5726 44.3822 43.4355 44.4656L41.3867 45.6979V22.043C41.3867 21.8658 41.3065 21.6959 41.1636 21.5706C41.0208 21.4454 40.827 21.375 40.625 21.375C40.423 21.375 40.2292 21.4454 40.0864 21.5706C39.9435 21.6959 39.8633 21.8658 39.8633 22.043V46.9516C39.8608 47.0725 39.8953 47.1917 39.9633 47.2968C40.0313 47.4019 40.1303 47.4891 40.2499 47.5491C40.3717 47.6075 40.5095 47.635 40.6481 47.6287C40.7867 47.6224 40.9206 47.5826 41.0349 47.5135L43.7963 45.8607L44.9414 46.7413V53.2149H13.584V46.0899C13.584 45.9127 13.5037 45.7428 13.3609 45.6175C13.218 45.4923 13.0243 45.4219 12.8223 45.4219C12.6202 45.4219 12.4265 45.4923 12.2836 45.6175C12.1408 45.7428 12.0605 45.9127 12.0605 46.0899V52.3483L8.50586 49.4593V13.582H12.0605V41.6367C12.0605 41.8139 12.1408 41.9838 12.2836 42.1091C12.4265 42.2343 12.6202 42.3047 12.8223 42.3047C13.0243 42.3047 13.218 42.2343 13.3609 42.1091C13.5037 41.9838 13.584 41.8139 13.584 41.6367V13.582H39.8633V17.5898C39.8633 17.767 39.9435 17.9369 40.0864 18.0622C40.2292 18.1874 40.423 18.2578 40.625 18.2578C40.827 18.2578 41.0208 18.1874 41.1636 18.0622C41.3065 17.9369 41.3867 17.767 41.3867 17.5898V7.55996C41.3867 6.07996 40.6355 4.78711 39.4799 3.78516H56.5032C57.8464 3.78859 59.1334 4.25803 60.0832 5.09093C61.033 5.92382 61.5683 7.05249 61.5723 8.23038V45.6982Z" fill="#8D6C52"/>
</svg>
