<svg width="57" height="57" viewBox="0 0 57 57" fill="none" xmlns="http://www.w3.org/2000/svg">
<path d="M11.4668 28.6226C11.2896 28.6226 11.1197 28.6929 10.9945 28.8182C10.8692 28.9435 10.7988 29.1134 10.7988 29.2905V29.9919C10.7988 30.1691 10.8692 30.339 10.9945 30.4642C11.1197 30.5895 11.2896 30.6599 11.4668 30.6599C11.644 30.6599 11.8139 30.5895 11.9391 30.4642C12.0644 30.339 12.1348 30.1691 12.1348 29.9919V29.2905C12.1348 29.1134 12.0644 28.9435 11.9391 28.8182C11.8139 28.6929 11.644 28.6226 11.4668 28.6226Z" fill="#8D6C52"/>
<path d="M11.4668 31.438C11.2896 31.438 11.1197 31.5084 10.9945 31.6336C10.8692 31.7589 10.7988 31.9288 10.7988 32.106V39.4536C10.7988 39.6308 10.8692 39.8007 10.9945 39.9259C11.1197 40.0512 11.2896 40.1216 11.4668 40.1216C11.644 40.1216 11.8139 40.0512 11.9391 39.9259C12.0644 39.8007 12.1348 39.6308 12.1348 39.4536V32.106C12.1348 31.9288 12.0644 31.7589 11.9391 31.6336C11.8139 31.5084 11.644 31.438 11.4668 31.438Z" fill="#8D6C52"/>
<path d="M48.0981 16.2538H39.8065C40.8156 15.5951 41.6563 14.7092 42.2613 13.6671C42.8663 12.6249 43.2187 11.4555 43.2902 10.2526C43.3618 9.04966 43.1505 7.84672 42.6733 6.7402C42.1961 5.63368 41.4662 4.65437 40.5423 3.88077C39.6183 3.10718 38.526 2.56083 37.3528 2.28553C36.1797 2.01023 34.9583 2.01363 33.7867 2.29547C32.6151 2.57731 31.5258 3.12975 30.6062 3.90848C29.6866 4.68722 28.9622 5.67059 28.4912 6.77975C28.0187 5.67295 27.2938 4.69205 26.3745 3.91548C25.4551 3.13891 24.3668 2.58821 23.1966 2.30741C22.0264 2.02661 20.8067 2.0235 19.6351 2.29832C18.4635 2.57315 17.3724 3.11829 16.4491 3.89016C15.5258 4.66202 14.7959 5.63921 14.3178 6.74358C13.8396 7.84795 13.6265 9.04888 13.6955 10.2503C13.7644 11.4518 14.1135 12.6205 14.7148 13.6629C15.3161 14.7053 16.153 15.5926 17.1586 16.2538H8.91738C7.55742 16.2576 6.25425 16.7996 5.2926 17.7612C4.33096 18.7229 3.789 20.026 3.78516 21.386V26.4659C3.78568 26.6509 3.8594 26.8281 3.99019 26.9589C4.12098 27.0897 4.29822 27.1634 4.48318 27.1639H7.125V49.7969C7.125 52.6208 9.45744 54.8846 12.2812 54.8846H44.7788C45.4481 54.8871 46.1112 54.7573 46.7301 54.5026C47.3489 54.2479 47.9114 53.8734 48.385 53.4006C48.8586 52.9278 49.2341 52.366 49.4898 51.7475C49.7455 51.1291 49.8764 50.4662 49.875 49.7969V27.1639H52.5357C52.7157 27.1635 52.8882 27.0918 53.0155 26.9646C53.1428 26.8373 53.2144 26.6648 53.2148 26.4848V21.3704C53.2148 20.6985 53.0825 20.0331 52.8254 19.4123C52.5682 18.7915 52.1913 18.2275 51.7162 17.7524C51.241 17.2772 50.677 16.9003 50.0562 16.6432C49.4354 16.3861 48.77 16.2538 48.0981 16.2538ZM29.168 9.80932C29.1784 9.19194 29.2751 8.57905 29.4552 7.98844C29.8927 6.51765 30.8446 5.25325 32.137 4.42608C33.4294 3.5989 34.9763 3.26413 36.4951 3.48288C38.0139 3.70163 39.4034 4.4593 40.4099 5.61758C41.4164 6.77586 41.9727 8.25748 41.9774 9.79195C41.9774 13.3036 39.1033 16.1424 35.5662 16.1424H29.168V9.80932ZM15.0189 9.80932C15.0189 6.28501 17.9127 3.41764 21.4371 3.41764C23.1345 3.42467 24.76 4.10342 25.9583 5.30551C27.1566 6.5076 27.8303 8.13523 27.832 9.83259V16.2538H21.4106C20.7928 16.2392 20.18 16.1386 19.5899 15.955C18.2669 15.5608 17.107 14.7494 16.2832 13.6418C15.4594 12.5342 15.0159 11.1898 15.0189 9.80943V9.80932ZM32.7305 53.5487H24.2695V46.8543C25.5201 47.7 26.9969 48.1484 28.5066 48.1407C30.0163 48.1331 31.4885 47.6698 32.7305 46.8116V53.5487ZM28.5 46.8049C27.278 46.8049 26.0834 46.4425 25.0673 45.7636C24.0512 45.0847 23.2593 44.1197 22.7916 42.9907C22.324 41.8616 22.2016 40.6193 22.44 39.4208C22.6784 38.2222 23.2669 37.1213 24.131 36.2572C24.9951 35.3931 26.096 34.8046 27.2946 34.5662C28.4931 34.3278 29.7355 34.4501 30.8645 34.9178C31.9935 35.3854 32.9585 36.1774 33.6374 37.1935C34.3163 38.2095 34.6787 39.4041 34.6787 40.6262C34.677 42.2643 34.0254 43.8349 32.8671 44.9933C31.7087 46.1516 30.1382 46.8031 28.5 46.8049ZM24.2695 34.3988V27.1639H32.7305V34.4416C31.4885 33.5833 30.0163 33.12 28.5066 33.1124C26.9969 33.1048 25.5201 33.5531 24.2695 34.3988ZM48.5391 49.7969C48.5407 50.2908 48.4444 50.7801 48.2559 51.2365C48.0674 51.693 47.7904 52.1076 47.4408 52.4564C47.0912 52.8052 46.6759 53.0813 46.2191 53.2688C45.7622 53.4563 45.2727 53.5514 44.7788 53.5487H34.0664V45.6343C35.3013 44.2586 35.9844 42.4752 35.9844 40.6266C35.9844 38.7779 35.3013 36.9945 34.0664 35.6189V27.1639H48.5391V49.7969ZM51.8789 25.828H18.5918C18.4146 25.828 18.2447 25.8984 18.1195 26.0236C17.9942 26.1489 17.9238 26.3188 17.9238 26.496C17.9238 26.6731 17.9942 26.843 18.1195 26.9683C18.2447 27.0936 18.4146 27.1639 18.5918 27.1639H22.9336V35.5522C21.6616 36.9359 20.9556 38.747 20.9556 40.6266C20.9556 42.5062 21.6616 44.3173 22.9336 45.7011V53.5487H12.2812C10.194 53.5487 8.46094 51.8841 8.46094 49.7969V27.1639H14.1387C14.3158 27.1639 14.4857 27.0936 14.611 26.9683C14.7363 26.843 14.8066 26.6731 14.8066 26.496C14.8066 26.3188 14.7363 26.1489 14.611 26.0236C14.4857 25.8984 14.3158 25.828 14.1387 25.828H5.12109V21.3704C5.12112 20.3677 5.51947 19.4061 6.22851 18.697C6.93755 17.988 7.89919 17.5897 8.90191 17.5897H48.0826C49.0886 17.5926 50.0524 17.9936 50.7638 18.7049C51.4751 19.4162 51.876 20.3801 51.8789 21.386V25.828Z" fill="#8D6C52"/>
</svg>
