<svg width="70" height="74" viewBox="0 0 70 74" fill="none" xmlns="http://www.w3.org/2000/svg">
<path d="M21.409 38.557C21.2102 38.4637 20.9844 38.4577 20.7814 38.5403C20.5784 38.623 20.4147 38.7875 20.3265 38.9977L19.9771 39.8295C19.932 39.9338 19.9069 40.0465 19.9033 40.1611C19.8997 40.2757 19.9176 40.39 19.956 40.4972C19.9944 40.6045 20.0526 40.7026 20.1271 40.786C20.2017 40.8693 20.2911 40.9362 20.3903 40.9827C20.4894 41.0292 20.5963 41.0545 20.7048 41.0571C20.8133 41.0597 20.9211 41.0395 21.0222 40.9976C21.1232 40.9558 21.2154 40.8933 21.2934 40.8135C21.3714 40.7338 21.4336 40.6385 21.4765 40.5332L21.8259 39.7014C21.9141 39.4912 21.9198 39.2526 21.8416 39.0379C21.7634 38.8233 21.6078 38.6503 21.409 38.557Z" fill="#8D6C52"/>
<path d="M20.0057 41.8988C19.8069 41.8055 19.5811 41.7995 19.3781 41.8822C19.1751 41.9648 19.0114 42.1294 18.9232 42.3396L15.8172 49.7374C15.7735 49.8415 15.7496 49.9537 15.7468 50.0676C15.7441 50.1814 15.7627 50.2947 15.8014 50.401C15.8401 50.5073 15.8982 50.6045 15.9724 50.6871C16.0467 50.7696 16.1356 50.8359 16.234 50.8821C16.3325 50.9283 16.4386 50.9536 16.5463 50.9565C16.654 50.9594 16.7612 50.9398 16.8618 50.8988C16.9623 50.8579 17.0543 50.7965 17.1324 50.718C17.2104 50.6395 17.2731 50.5455 17.3169 50.4414L20.4228 43.0436C20.4666 42.9395 20.4905 42.8273 20.4932 42.7134C20.4959 42.5995 20.4774 42.4861 20.4387 42.3798C20.3999 42.2735 20.3418 42.1763 20.2675 42.0938C20.1932 42.0112 20.1042 41.945 20.0057 41.8988Z" fill="#8D6C52"/>
<path d="M53.047 14.1743C52.5851 13.5378 51.9901 13.0229 51.3085 12.67C50.627 12.3172 49.8774 12.1359 49.1185 12.1405H44.4337V2.38623C44.4337 2.15624 44.3473 1.93567 44.1934 1.77304C44.0396 1.61041 43.8309 1.51904 43.6134 1.51904C43.3958 1.51904 43.1872 1.61041 43.0333 1.77304C42.8795 1.93567 42.7931 2.15624 42.7931 2.38623V12.1405H38.0626C37.3037 12.1359 36.5541 12.3172 35.8725 12.67C35.1909 13.0229 34.5959 13.5378 34.134 14.1743L33.8536 14.5646L25.5255 19.1118C24.6155 19.6109 23.8829 20.4081 23.4372 21.3841L8.3726 54.5489C7.83263 55.7413 7.76209 57.1115 8.17645 58.3589C8.59081 59.6062 9.45625 60.6289 10.5829 61.2026L25.1926 68.619C25.7707 70.8212 27.7364 72.41 30.0098 72.41H57.1712C57.8126 72.4167 58.4489 72.2889 59.0433 72.0339C59.6377 71.779 60.1783 71.4019 60.634 70.9246C61.0896 70.4473 61.4511 69.8792 61.6977 69.2532C61.9443 68.6272 62.0709 67.9557 62.0704 67.2776V28.5535C62.0723 27.4293 61.7276 26.3351 61.0885 25.4365L53.047 14.1743ZM43.4322 18.5953C43.5368 18.6172 43.6445 18.6172 43.7491 18.5953C44.1433 18.6382 44.5069 18.8395 44.7647 19.1577C45.0226 19.4758 45.155 19.8865 45.1347 20.3049C45.1143 20.7233 44.9428 21.1174 44.6555 21.406C44.3681 21.6945 43.987 21.8554 43.5907 21.8554C43.1944 21.8554 42.8132 21.6945 42.5259 21.406C42.2386 21.1174 42.067 20.7233 42.0467 20.3049C42.0264 19.8865 42.1588 19.4758 42.4166 19.1577C42.6744 18.8395 43.038 18.6382 43.4322 18.5953ZM25.0196 66.6071L11.2931 59.6391C10.5582 59.265 9.99369 58.598 9.72343 57.7845C9.45318 56.9709 9.49923 56.0773 9.85149 55.2996L10.5931 53.6672L25.0196 60.9906V66.6071ZM26.0472 25.4365C25.3947 26.3306 25.0341 27.4243 25.0196 28.5535V59.0666L11.3034 52.1034L24.9164 22.1345C25.2071 21.498 25.6849 20.9781 26.2784 20.6525L31.5481 17.7752L26.0472 25.4365ZM60.4298 63.5936H36.6407C36.4231 63.5936 36.2145 63.685 36.0607 63.8476C35.9068 64.0103 35.8204 64.2308 35.8204 64.4608C35.8204 64.6908 35.9068 64.9114 36.0607 65.074C36.2145 65.2366 36.4231 65.328 36.6407 65.328H60.4298V67.2776C60.4305 67.728 60.3464 68.1741 60.1824 68.5898C60.0184 69.0054 59.7777 69.3824 59.4743 69.6987C59.171 70.0151 58.8111 70.2644 58.4157 70.4321C58.0203 70.5998 57.5972 70.6826 57.1712 70.6757H30.0098C28.2006 70.6757 26.6602 69.1903 26.6602 67.2776V65.328H31.172C31.3895 65.328 31.5982 65.2366 31.752 65.074C31.9058 64.9114 31.9923 64.6908 31.9923 64.4608C31.9923 64.2308 31.9058 64.0103 31.752 63.8476C31.5982 63.685 31.3895 63.5936 31.172 63.5936H26.6602V28.5535C26.674 27.7959 26.9182 27.0632 27.3567 26.4638L35.4265 15.2193C35.7385 14.796 36.1386 14.4544 36.5958 14.2213C37.0531 13.9881 37.555 13.8695 38.0626 13.8749H42.7931V16.9661C42.048 17.1765 41.4008 17.6662 40.972 18.3438C40.5432 19.0214 40.3621 19.8407 40.4625 20.6491C40.5629 21.4574 40.9379 22.1995 41.5176 22.7371C42.0973 23.2748 42.8422 23.5712 43.6134 23.5712C44.3845 23.5712 45.1294 23.2748 45.7091 22.7371C46.2888 22.1995 46.6638 21.4574 46.7642 20.6491C46.8646 19.8407 46.6835 19.0214 46.2547 18.3438C45.826 17.6662 45.1787 17.1765 44.4337 16.9661V13.8749H49.1185C49.6236 13.8696 50.123 13.9883 50.5775 14.2215C51.0319 14.4548 51.429 14.7962 51.7376 15.219L59.779 26.4813C60.2038 27.0786 60.4323 27.8062 60.4298 28.5535V63.5936Z" fill="#8D6C52"/>
<path d="M56.0547 34.832H31.1719C30.9543 34.832 30.7457 34.9234 30.5918 35.086C30.438 35.2487 30.3516 35.4692 30.3516 35.6992V57.957C30.3516 58.187 30.438 58.4076 30.5918 58.5702C30.7457 58.7329 30.9543 58.8242 31.1719 58.8242H56.0547C56.2722 58.8242 56.4809 58.7329 56.6347 58.5702C56.7886 58.4076 56.875 58.187 56.875 57.957V35.6992C56.875 35.4692 56.7886 35.2487 56.6347 35.086C56.4809 34.9234 56.2722 34.832 56.0547 34.832ZM55.2344 57.0898H31.9922V36.5664H55.2344V57.0898Z" fill="#8D6C52"/>
<path d="M40.6172 46.5166C41.147 46.5166 41.6649 46.3506 42.1054 46.0394C42.5459 45.7282 42.8893 45.286 43.092 44.7685C43.2948 44.2511 43.3478 43.6817 43.2445 43.1324C43.1411 42.5831 42.886 42.0785 42.5113 41.6824C42.1367 41.2864 41.6594 41.0167 41.1398 40.9074C40.6202 40.7982 40.0816 40.8543 39.5921 41.0686C39.1026 41.2829 38.6843 41.6459 38.3899 42.1116C38.0956 42.5773 37.9385 43.1248 37.9385 43.6848C37.9393 44.4356 38.2218 45.1554 38.7239 45.6863C39.2261 46.2172 39.907 46.5158 40.6172 46.5166ZM40.6172 42.5874C40.8225 42.5874 41.0232 42.6518 41.1939 42.7724C41.3647 42.8929 41.4977 43.0643 41.5763 43.2649C41.6549 43.4654 41.6754 43.686 41.6354 43.8989C41.5953 44.1118 41.4964 44.3073 41.3513 44.4608C41.2061 44.6143 41.0211 44.7188 40.8197 44.7612C40.6184 44.8035 40.4096 44.7818 40.2199 44.6987C40.0302 44.6157 39.8681 44.475 39.754 44.2945C39.64 44.1141 39.5791 43.9019 39.5791 43.6848C39.5794 43.3939 39.6888 43.1149 39.8834 42.9091C40.0781 42.7034 40.342 42.5877 40.6172 42.5874Z" fill="#8D6C52"/>
<path d="M46.5638 47.1396C46.0341 47.1397 45.5162 47.3058 45.0757 47.617C44.6352 47.9281 44.2918 48.3704 44.0891 48.8879C43.8864 49.4053 43.8334 49.9747 43.9367 50.524C44.0401 51.0733 44.2953 51.5779 44.6699 51.9739C45.0445 52.3699 45.5218 52.6396 46.0414 52.7488C46.5611 52.8581 47.0997 52.802 47.5891 52.5877C48.0786 52.3733 48.4969 52.0104 48.7913 51.5447C49.0856 51.079 49.2427 50.5315 49.2427 49.9714C49.2419 49.2206 48.9594 48.5008 48.4572 47.9699C47.955 47.4391 47.2741 47.1405 46.5638 47.1396ZM46.5638 51.0689C46.3585 51.0688 46.1578 51.0045 45.9871 50.8839C45.8164 50.7632 45.6834 50.5918 45.6049 50.3913C45.5263 50.1908 45.5058 49.9701 45.5458 49.7573C45.5859 49.5444 45.6848 49.3489 45.83 49.1954C45.9752 49.0419 46.1601 48.9374 46.3615 48.8951C46.5629 48.8528 46.7716 48.8745 46.9613 48.9576C47.151 49.0406 47.3131 49.1813 47.4271 49.3618C47.5412 49.5422 47.6021 49.7544 47.6021 49.9714C47.6018 50.2624 47.4924 50.5414 47.2977 50.7472C47.103 50.953 46.8391 51.0686 46.5638 51.0689Z" fill="#8D6C52"/>
<path d="M38.8658 51.823C39.0196 51.9856 39.2283 52.077 39.4458 52.077C39.6634 52.077 39.872 51.9856 40.0259 51.823L48.3151 43.06C48.469 42.8974 48.5554 42.6769 48.5554 42.4469C48.5554 42.2169 48.469 41.9963 48.3152 41.8336C48.1613 41.671 47.9527 41.5796 47.7351 41.5796C47.5176 41.5796 47.3089 41.6709 47.1551 41.8336L38.8658 50.5965C38.7896 50.677 38.7292 50.7726 38.6879 50.8778C38.6467 50.9831 38.6255 51.0958 38.6255 51.2097C38.6255 51.3236 38.6467 51.4364 38.6879 51.5416C38.7292 51.6468 38.7896 51.7425 38.8658 51.823Z" fill="#8D6C52"/>
</svg>
