<svg width="75" height="66" viewBox="0 0 75 66" fill="none" xmlns="http://www.w3.org/2000/svg">
<path d="M53.9063 35.1129C54.1394 35.1129 54.3629 35.0314 54.5277 34.8864C54.6926 34.7413 54.7852 34.5446 54.7852 34.3395V33.5274C54.7852 33.3222 54.6926 33.1255 54.5277 32.9804C54.3629 32.8354 54.1394 32.7539 53.9063 32.7539C53.6732 32.7539 53.4496 32.8354 53.2848 32.9804C53.1199 33.1255 53.0273 33.3222 53.0273 33.5274V34.3395C53.0273 34.5446 53.1199 34.7413 53.2848 34.8864C53.4496 35.0314 53.6732 35.1129 53.9063 35.1129Z" fill="#8D6C52"/>
<path d="M53.9063 42.5898C54.1394 42.5898 54.3629 42.5084 54.5277 42.3633C54.6926 42.2183 54.7852 42.0215 54.7852 41.8164V36.7891C54.7852 36.5839 54.6926 36.3872 54.5277 36.2422C54.3629 36.0971 54.1394 36.0156 53.9063 36.0156C53.6732 36.0156 53.4496 36.0971 53.2848 36.2422C53.1199 36.3872 53.0273 36.5839 53.0273 36.7891V41.8164C53.0273 42.0215 53.1199 42.2183 53.2848 42.3633C53.4496 42.5084 53.6732 42.5898 53.9063 42.5898Z" fill="#8D6C52"/>
<path d="M73.78 30.0961L66.2333 22.8654C65.8759 22.5244 65.4421 22.2524 64.9592 22.0665C64.4763 21.8806 63.9549 21.7848 63.4278 21.7852H49.9115C49.7988 21.7847 49.6871 21.8043 49.5832 21.8428C49.4793 21.8814 49.3853 21.938 49.3069 22.0093C49.2285 22.0806 49.1673 22.1651 49.127 22.2577C49.0867 22.3504 49.0681 22.4493 49.0723 22.5484V34.8047H46.4356V18.0346C46.4351 17.4263 46.2983 16.8239 46.0332 16.2621C45.7681 15.7002 45.3798 15.1898 44.8905 14.76C44.4013 14.3302 43.8205 13.9894 43.1816 13.7571C42.5426 13.5249 41.8579 13.4056 41.1666 13.4063H6.26226C5.57261 13.4062 4.88974 13.526 4.25287 13.7588C3.61599 13.9916 3.03764 14.3329 2.55105 14.7629C2.06445 15.193 1.67919 15.7034 1.41738 16.2649C1.15557 16.8263 1.02237 17.4277 1.02544 18.0346V47.3215C1.02564 47.5231 1.11675 47.7165 1.27879 47.8591C1.44083 48.0017 1.66054 48.0819 1.8897 48.082H7.71699C7.92687 49.3369 8.64256 50.4835 9.73341 51.3125C10.8243 52.1415 12.2175 52.5976 13.6588 52.5976C15.1002 52.5976 16.4934 52.1415 17.5843 51.3125C18.6751 50.4835 19.3908 49.3369 19.6007 48.082H55.4727C55.6838 49.3358 56.3999 50.481 57.4905 51.309C58.581 52.1369 59.9733 52.5924 61.4136 52.5924C62.8539 52.5924 64.2462 52.1369 65.3368 51.309C66.4273 50.481 67.1434 49.3358 67.3546 48.082H70.2027C70.7 48.0823 71.1924 47.996 71.6516 47.828C72.1108 47.6601 72.5277 47.4139 72.8783 47.1036C73.2289 46.7932 73.5063 46.4249 73.6945 46.0199C73.8826 45.6148 73.9778 45.181 73.9747 44.7434V30.6191C73.9811 30.4275 73.9048 30.2408 73.7609 30.0968L73.78 30.0961ZM37.5 14.9531H41.1666C41.6271 14.9523 42.0834 15.0313 42.5092 15.1858C42.935 15.3403 43.322 15.5671 43.6481 15.8533C43.9743 16.1395 44.2331 16.4795 44.4097 16.8538C44.5864 17.2281 44.6775 17.6293 44.6778 18.0346V34.8047H37.5V14.9531ZM28.711 14.9531H35.7422V34.8047H28.711V14.9531ZM19.9219 14.9531H26.9532V34.8047H19.9219V14.9531ZM11.1329 14.9531H18.1641V34.8047H11.1329V14.9531ZM2.78325 18.0346C2.77995 17.6308 2.86751 17.2305 3.0409 16.8566C3.21428 16.4827 3.47006 16.1427 3.79347 15.8563C4.11689 15.5698 4.50155 15.3425 4.92527 15.1875C5.34899 15.0325 5.80338 14.9528 6.26226 14.9531H9.37505V34.8047H2.78325V18.0346ZM13.6597 51.0598C12.8195 51.0598 11.9982 50.8405 11.2996 50.4298C10.601 50.019 10.0566 49.4351 9.73504 48.7521C9.41351 48.069 9.32939 47.3173 9.4933 46.5922C9.65721 45.867 10.0618 45.2009 10.6559 44.6781C11.25 44.1553 12.0069 43.7993 12.831 43.655C13.655 43.5108 14.5091 43.5848 15.2854 43.8678C16.0616 44.1507 16.7251 44.6299 17.1918 45.2446C17.6586 45.8594 17.9078 46.5821 17.9078 47.3215C17.9065 48.3126 17.4585 49.2628 16.6621 49.9636C15.8657 50.6644 14.786 51.0586 13.6597 51.0598ZM49.0723 39.3164H41.0157C40.7826 39.3164 40.559 39.3979 40.3942 39.5429C40.2294 39.688 40.1368 39.8847 40.1368 40.0898C40.1368 40.295 40.2294 40.4917 40.3942 40.6367C40.559 40.7818 40.7826 40.8633 41.0157 40.8633H49.0723V46.5352H19.6007C19.3881 45.2827 18.6714 44.139 17.5813 43.3123C16.4911 42.4856 15.0998 42.0309 13.6607 42.0309C12.2217 42.0309 10.8304 42.4856 9.74023 43.3123C8.65005 44.139 7.93343 45.2827 7.7208 46.5352H2.78325V40.8633H35.1563C35.3894 40.8633 35.613 40.7818 35.7778 40.6367C35.9426 40.4917 36.0352 40.295 36.0352 40.0898C36.0352 39.8847 35.9426 39.688 35.7778 39.5429C35.613 39.3979 35.3894 39.3164 35.1563 39.3164H2.78325V36.3516H49.0723V39.3164ZM61.67 23.332H63.4278C63.7137 23.337 63.9953 23.3937 64.2552 23.4986C64.5151 23.6035 64.7478 23.7543 64.9386 23.9416L71.1329 29.9063H61.67V23.332ZM58.1543 23.332H59.9122V29.9063H58.1543V23.332ZM50.8301 23.332H56.3965V29.9063H50.8301V23.332ZM61.4136 51.0598C60.5734 51.0598 59.7521 50.8405 59.0535 50.4298C58.3549 50.019 57.8105 49.4351 57.4889 48.7521C57.1674 48.069 57.0833 47.3173 57.2472 46.5922C57.4111 45.867 57.8157 45.2009 58.4098 44.6781C59.0039 44.1553 59.7608 43.7993 60.5849 43.655C61.4089 43.5108 62.263 43.5848 63.0393 43.8678C63.8155 44.1507 64.479 44.6299 64.9457 45.2446C65.4125 45.8594 65.6617 46.5821 65.6617 47.3215C65.6604 48.3126 65.2124 49.2628 64.416 49.9636C63.6196 50.6644 62.5399 51.0586 61.4136 51.0598ZM72.2168 37.3828H69.7266V34.9336H72.2168V37.3828ZM72.2168 33.3867H69.4953C69.0955 33.3948 68.7144 33.5374 68.4304 33.7852C68.1465 34.033 67.9812 34.3672 67.9688 34.719V37.579C67.9805 37.9327 68.1449 38.2692 68.4284 38.5201C68.712 38.771 69.0935 38.9174 69.4953 38.9297H72.2168V44.7434C72.2203 44.9779 72.1707 45.2106 72.071 45.4281C71.9712 45.6456 71.8234 45.8435 71.6359 46.0102C71.4485 46.177 71.2253 46.3092 70.9792 46.3994C70.7332 46.4895 70.4692 46.5356 70.2027 46.5352H67.3546C67.1434 45.2814 66.4273 44.1362 65.3368 43.3082C64.2462 42.4803 62.8539 42.0248 61.4136 42.0248C59.9733 42.0248 58.581 42.4803 57.4905 43.3082C56.3999 44.1362 55.6838 45.2814 55.4727 46.5352H50.8301V31.4531H72.2168V33.3867Z" fill="#8D6C52"/>
</svg>
