<svg width="16" height="16" viewBox="0 0 16 16" fill="none" xmlns="http://www.w3.org/2000/svg">
<path d="M15.6039 4.62814C15.5951 3.96976 15.4719 3.31792 15.2397 2.70178C15.0383 2.18207 14.7307 1.71008 14.3366 1.31597C13.9425 0.921859 13.4705 0.61429 12.9508 0.412917C12.3426 0.184602 11.7 0.0611476 11.0505 0.0478115C10.2143 0.0104316 9.94912 0 7.82629 0C5.70347 0 5.43138 5.8291e-08 4.6012 0.0478115C3.95197 0.0612456 3.30972 0.184698 2.70178 0.412917C2.18199 0.61415 1.70993 0.921669 1.3158 1.3158C0.921669 1.70993 0.61415 2.18199 0.412917 2.70178C0.184144 3.30953 0.0609579 3.95193 0.0486807 4.6012C0.0113009 5.43833 0 5.70347 0 7.82629C0 9.94912 -6.47678e-09 10.2203 0.0486807 11.0514C0.0617202 11.7016 0.184291 12.3432 0.412917 12.9525C0.614488 13.4722 0.922235 13.944 1.3165 14.338C1.71076 14.732 2.18286 15.0394 2.70265 15.2405C3.30893 15.478 3.95128 15.6103 4.60207 15.6317C5.4392 15.6691 5.70434 15.6804 7.82716 15.6804C9.94999 15.6804 10.2221 15.6804 11.0523 15.6317C11.7018 15.6189 12.3443 15.4958 12.9525 15.2675C13.4721 15.0659 13.944 14.7582 14.3381 14.3641C14.7322 13.9701 15.0398 13.4982 15.2414 12.9786C15.47 12.3701 15.5926 11.7286 15.6056 11.0775C15.643 10.2412 15.6543 9.97607 15.6543 7.85237C15.6526 5.72955 15.6526 5.46006 15.6039 4.62814ZM7.82108 11.8407C5.60089 11.8407 3.80231 10.0421 3.80231 7.82195C3.80231 5.60176 5.60089 3.80318 7.82108 3.80318C8.88692 3.80318 9.90911 4.22658 10.6628 4.98025C11.4164 5.73391 11.8398 6.7561 11.8398 7.82195C11.8398 8.88779 11.4164 9.90998 10.6628 10.6636C9.90911 11.4173 8.88692 11.8407 7.82108 11.8407ZM11.9998 4.59163C11.4808 4.59163 11.0627 4.17263 11.0627 3.65453C11.0627 3.53152 11.0869 3.40972 11.134 3.29608C11.1811 3.18244 11.2501 3.07918 11.337 2.9922C11.424 2.90523 11.5273 2.83623 11.6409 2.78916C11.7546 2.74209 11.8764 2.71786 11.9994 2.71786C12.1224 2.71786 12.2442 2.74209 12.3578 2.78916C12.4714 2.83623 12.5747 2.90523 12.6617 2.9922C12.7487 3.07918 12.8177 3.18244 12.8647 3.29608C12.9118 3.40972 12.936 3.53152 12.936 3.65453C12.936 4.17263 12.517 4.59163 11.9998 4.59163Z" fill="#8D6C52"/>
<path d="M7.82095 10.4324C9.26269 10.4324 10.4315 9.26367 10.4315 7.82193C10.4315 6.38019 9.26269 5.21143 7.82095 5.21143C6.37921 5.21143 5.21045 6.38019 5.21045 7.82193C5.21045 9.26367 6.37921 10.4324 7.82095 10.4324Z" fill="#8D6C52"/>
</svg>
