<svg width="20" height="11" viewBox="0 0 20 11" fill="none" xmlns="http://www.w3.org/2000/svg">
<path d="M19.0298 0.744917C19.1659 0.315157 19.0298 0 18.3864 0H16.2549C15.7126 0 15.4647 0.272644 15.3286 0.572089C15.3286 0.572089 14.2449 3.08503 12.7092 4.71442C12.2135 5.18854 11.9871 5.33826 11.7169 5.33826C11.5818 5.33826 11.3854 5.18854 11.3854 4.75878V0.744917C11.3854 0.229205 11.229 0 10.777 0H7.42765C7.08941 0 6.8853 0.238447 6.8853 0.465804C6.8853 0.953789 7.65314 1.06654 7.73187 2.44177V5.42514C7.73187 6.07856 7.60843 6.19778 7.33629 6.19778C6.61413 6.19778 4.85684 3.6756 3.81394 0.788355C3.6108 0.227357 3.40572 0.000924588 2.86142 0.000924588H0.730907C0.121494 0.000924588 0 0.273568 0 0.573013C0 1.11091 0.72216 3.77264 3.36392 7.29298C5.1251 9.69686 7.60455 11 9.86336 11C11.2173 11 11.3845 10.7107 11.3845 10.2116V8.39464C11.3845 7.81608 11.5137 7.69963 11.9424 7.69963C12.2573 7.69963 12.7996 7.8512 14.0641 9.00924C15.5085 10.3826 15.7476 10.9991 16.5591 10.9991H18.6897C19.2981 10.9991 19.6023 10.7098 19.4274 10.1386C19.2359 9.57024 18.5458 8.74307 17.6302 7.76432C17.1326 7.2061 16.389 6.60536 16.1626 6.30499C15.8467 5.91775 15.9381 5.74677 16.1626 5.40296C16.1635 5.40388 18.7596 1.92699 19.0298 0.744917Z" fill="#8D6C52"/>
</svg>
